SplineFontDB: 2.0
FontName: THMaliGrade6-Bold
FullName: THMaliGrade6-Bold
FamilyName: TH Mali Grade 6
Weight: Bold
Copyright: Copyright (c) 2006 by Department of Intellectual Property (DIP), Ministry of Commerce and Software Industry Promotion Agency (Public Organization) (SIPA). All rights reserved.
Version: 1.1
ItalicAngle: 0
UnderlinePosition: -55
UnderlineWidth: 50
Ascent: 1638
Descent: 410
XUID: [1021 375 425136265 16057784]
FSType: 0
OS2Version: 3
OS2_WeightWidthSlopeOnly: 0
OS2_UseTypoMetrics: 1
CreationTime: 1152588240
ModificationTime: 1204862654
PfmFamily: 17
TTFWeight: 700
TTFWidth: 5
LineGap: 123
VLineGap: 0
Panose: 2 0 5 6 0 0 0 2 0 4
OS2TypoAscent: 0
OS2TypoAOffset: 1
OS2TypoDescent: 0
OS2TypoDOffset: 1
OS2TypoLinegap: 0
OS2WinAscent: -18
OS2WinAOffset: 1
OS2WinDescent: -223
OS2WinDOffset: 1
HheadAscent: -18
HheadAOffset: 1
HheadDescent: 223
HheadDOffset: 1
OS2SubXSize: 1434
OS2SubYSize: 1331
OS2SubXOff: 0
OS2SubYOff: 287
OS2SupXSize: 1434
OS2SupYSize: 1331
OS2SupXOff: 0
OS2SupYOff: 977
OS2StrikeYSize: 49
OS2StrikeYPos: 399
OS2FamilyClass: 773
OS2Vendor: 'IPTH'
Lookup: 4 0 0 "'frac' Diagonal Fractions in Latin lookup 0"  {"'frac' Diagonal Fractions in Latin lookup 0 subtable"  } ['frac' ('latn' <'dflt' > ) ]
Lookup: 6 0 0 "'liga' Standard Ligatures in Latin lookup 1"  {"'liga' Standard Ligatures in Latin lookup 1 subtable"  } ['liga' ('latn' <'dflt' > ) ]
Lookup: 6 0 0 "'liga' Standard Ligatures in Latin lookup 2"  {"'liga' Standard Ligatures in Latin lookup 2 subtable"  } ['liga' ('latn' <'dflt' > ) ]
Lookup: 6 0 0 "'liga' Standard Ligatures in Latin lookup 3"  {"'liga' Standard Ligatures in Latin lookup 3 subtable"  } ['liga' ('latn' <'dflt' > ) ]
Lookup: 6 0 0 "'liga' Standard Ligatures in Latin lookup 4"  {"'liga' Standard Ligatures in Latin lookup 4 subtable"  } ['liga' ('latn' <'dflt' > ) ]
Lookup: 6 0 0 "'liga' Standard Ligatures in Latin lookup 5"  {"'liga' Standard Ligatures in Latin lookup 5 subtable"  } ['liga' ('latn' <'dflt' > ) ]

StartChar: .notdef
Encoding: 65536 -1 0
Width: 1811
VWidth: 3622
Flags: W
HStem: 25 147<1036.38 1285.63 1285.63 1412> 48 132<317.362 542.362 542.362 778.292 778.292 1040.23> 2360 143<333 553.485 553.485 891.857 891.857 1128>
VStem: 198 117<180 356.531 356.531 462.2 462.2 676.292 676.292 913.478 913.478 1215.83 1215.83 1247 1334 2082.47> 210 123<1473.33 2103 2103 2225.18 2225.18 2370> 1412 116<168 295.654 295.654 454.016 454.016 704.626> 1426 120<591.374 761 1199 1607.71 1607.71 2065 2065 2360>
Fore
1546 2453 m 2x6a
 1546 1998 l 2x6a
 1546 1758 1545 1838 1541 1199 c 2
 1528 97 l 1
 1537 49 1516 25 1465 25 c 0xa4
 1292 33 947 48 601 48 c 0
 425 48 319 43 249 35 c 0
 200 35 198 64 198 87 c 2
 198 334 l 2x74
 198 413 199 499 200 591 c 0
 200 644 200 700 201 762 c 2
 202 902 l 1
 204 1096 l 2
 205 1193 205 1273 205 1334 c 2
 210 2103 l 2
 210 2248 212 2272 212 2344 c 2
 212 2443 l 2
 212 2487 236 2510 336 2510 c 0
 858 2497 1100 2483 1496 2503 c 0
 1521 2504 1546 2502 1546 2453 c 2x6a
1426 2004 m 2
 1426 2053 1427 2077 1427 2126 c 2
 1427 2174 l 1
 1431 2360 l 1
 1128 2360 l 2
 651 2360 412 2368 333 2370 c 1xaa
 333 2258 325 1359 324 1247 c 0
 324 1140 315 712 315 538 c 0
 313 395 311 216 311 180 c 1x70
 462 178 l 2
 513 177 566 177 623 177 c 0
 721 174 827 173 934 173 c 0
 1009 172 1085 172 1160 172 c 0
 1236 172 1320 171 1412 168 c 1
 1412 240 l 2xb4
 1412 270 1412 307 1413 352 c 0
 1413 434 1415 454 1415 557 c 0
 1415 659 1417 679 1417 761 c 2
 1420 1263 l 1
 1426 1953 l 1
 1426 2004 l 2
EndSplineSet
EndChar
StartChar: uni0E01
Encoding: 3585 3585 5
Width: 1455
VWidth: 3622
Flags: W
HStem: 1222 108<460.159 916.954>
VStem: 345 94<-63.5509 47 47 59.0133 59.0133 103 110 145.174> 386 102<247.216 699.326> 1167 110<-35 41.6447 41.6447 140.385 140.385 842.899>
Fore
53 884 m 0xb0
 53 1015 285 1330 708 1330 c 0
 1030 1330 1125 1212 1189 1058 c 0
 1253 907 1255 751 1270 195 c 0
 1270 156 1271 120 1272 86 c 2
 1277 -34 l 2
 1277 -67 1250 -85 1225 -85 c 0
 1202 -85 1180 -70 1176 -35 c 0
 1171 34 1167 103 1167 195 c 0
 1149 840 1152 1222 708 1222 c 0
 354 1222 171 990 157 899 c 1
 203 882 188 881 264 865 c 1
 285 853 360 833 416 799 c 0
 448 782 488 734 488 555 c 256xb0
 488 520 488 413 462 202 c 2
 451 110 l 1
 439 -16 l 2xd0
 436 -48 419 -64 386 -64 c 256xb0
 353 -64 336 -47 336 -12 c 0
 336 11 337 34 345 103 c 0xd0
 345 115 386 394 386 555 c 0
 386 627 384 691 371 704 c 1
 310 729 l 1
 270 739 246 749 232 757 c 0
 177 788 53 802 53 884 c 0xb0
EndSplineSet
EndChar
StartChar: uni0E02
Encoding: 3586 3586 6
Width: 1068
VWidth: 3622
Flags: W
HStem: 0 103<544.309 761.1> 778 90<162.327 356.417> 1249 94<261.409 463.369>
VStem: 46 97<898.146 1068.09 1038.32 1061> 386 102<175.736 592.726 889.61 1084.42> 537 96<875.978 1209.6> 799 107<806.656 955.477 881.067 1179.87 1112.55 1247.19> 824 105<218.859 449.244 356.431 530.601>
Fore
134 1001 m 0xfc
 134 895 214 868 270 868 c 0
 353 868 379 941 379 987 c 0
 379 1075 308 1118 242 1118 c 0
 199 1118 158 1098 143 1061 c 1
 143 1060 l 1
 137 1036 134 1016 134 1001 c 0xfc
537 1107 m 0
 537 1232 420 1249 373 1249 c 0
 320 1249 277 1228 260 1215 c 1
 445 1204 478 1079 478 988 c 0
 478 909 401 778 265 778 c 0
 115 778 46 892 46 1012 c 0
 46 1125 114 1343 384 1343 c 0
 536 1343 633 1240 633 1105 c 0
 633 904 488 587 488 366 c 0
 488 234 518 103 640 103 c 0
 805 103 828 265 828 329 c 0
 828 340 825 370 824 384 c 0xfd
 820 454 799 906 799 1100 c 256xfe
 799 1180 802 1284 824 1298 c 0xfd
 841 1308 856 1312 867 1312 c 0
 897 1312 909 1285 909 1265 c 2
 903 1164 l 2
 901 1131 900 1096 900 1061 c 0
 900 990 902 920 906 850 c 2xfe
 916 644 l 2
 918 614 929 462 929 340 c 0xfd
 929 179 869 0 628 0 c 0
 434 0 386 213 386 366 c 0
 386 622 537 932 537 1107 c 0
EndSplineSet
EndChar
StartChar: uni0E03
Encoding: 3587 3587 7
Width: 1195
VWidth: 3622
Flags: W
HStem: -7 103<713.915 896.022> 775 89<172.551 356.752> 1047 20G<468.5 470.5> 1236 103<270.811 382.848 585.624 662.787>
VStem: 44 99<892.468 1059.34> 380 99<888.288 1052.49> 522 101<202.16 613.001> 677 98<843.039 1159.73> 934 92<682.658 921.454 921.454 959.361 959.361 1125.72 1125.72 1284.2> 952 102<156.702 497.381 451.014 543.748>
Fore
380 987 m 256xff
 380 1044 355 1107 255 1107 c 0
 157 1107 143 1027 143 987 c 0
 143 908 206 864 267 864 c 0
 324 864 380 903 380 987 c 256xff
439 1123 m 1
 399 1234 349 1236 334 1236 c 0
 304 1236 268 1226 248 1201 c 1
 376 1194 418 1151 439 1123 c 1
934 1104 m 2xff80
 934 1145 l 2
 934 1266 936 1339 986 1339 c 0
 997 1339 1040 1318 1040 1284 c 1
 1028 1201 1026 1115 1026 1022 c 0xff80
 1026 954 1028 887 1032 821 c 2
 1042 628 l 2
 1051 488 1054 403 1054 347 c 0
 1054 189 993 -7 812 -7 c 0
 623 -7 522 204 522 359 c 0
 522 602 677 847 677 1079 c 0
 677 1151 667 1230 627 1230 c 0
 601 1230 587 1200 584 1189 c 2
 547 1081 l 1
 541 1071 521 1058 498 1058 c 0
 487 1058 476 1061 465 1067 c 1
 472 1040 479 1012 479 982 c 0
 479 882 386 775 269 775 c 0
 89 775 44 928 44 1024 c 0
 44 1161 184 1339 347 1339 c 0
 437 1339 477 1265 497 1224 c 1
 524 1302 571 1330 621 1330 c 0
 709 1330 741 1276 759 1185 c 2
 768 1153 l 2
 772 1133 775 1109 775 1084 c 0
 775 900 623 561 623 359 c 0
 623 269 687 96 812 96 c 0
 911 96 952 230 952 331 c 0xff40
 952 347 951 331 943 652 c 2
 939 812 l 2
 934 929 934 1046 934 1104 c 2xff80
EndSplineSet
EndChar
StartChar: uni0E04
Encoding: 3588 3588 8
Width: 1478
VWidth: 3622
Flags: W
HStem: 11 21G<231.5 276.5> 398 94<638.898 816.012> 738 95<620.088 813.485> 1247 99<585.438 904.101>
VStem: 179 97<108.162 854.661> 837 88<512.121 713.252> 1206 92<4.97556 62 62 914.15>
Fore
265 11 m 0
 198 14 179 108 179 546 c 0
 179 1025 432 1346 759 1346 c 0
 1252 1346 1298 922 1298 417 c 0
 1298 267 l 0
 1298 54 1276 3 1244 3 c 0
 1207 3 1206 38 1206 62 c 2
 1206 417 l 2
 1206 792 1183 1097 946 1210 c 0
 895 1235 833 1247 759 1247 c 0
 527 1247 284 1015 279 578 c 2
 276 104 l 1
 371 170 476 605 505 688 c 0
 547 806 624 833 718 833 c 0
 856 833 925 761 925 616 c 0
 925 442 798 398 699 398 c 0
 635 398 585 428 539 465 c 1
 470 259 398 70 328 28 c 0
 309 17 288 11 265 11 c 0
837 616 m 0
 837 714 765 738 718 738 c 0
 607 738 593 648 578 550 c 1
 631 512 684 492 729 492 c 0
 792 492 837 531 837 616 c 0
EndSplineSet
EndChar
StartChar: uni0E05
Encoding: 3589 3589 9
Width: 1462
VWidth: 3622
Flags: W
HStem: 11 21G<233 304> 410 93<670.282 834.712> 745 106<619.575 806.005>
VStem: 145 100<174.387 719.229 546.784 891.196> 860 76<530.763 719.992> 1201 94<-16.6034 101.477 101.477 204.763 204.763 947.63>
Fore
145 559 m 0
 145 968 282 1269 508 1346 c 1
 637 1334 745 1198 766 1167 c 1
 799 1214 859 1278 894 1314 c 0
 918 1338 949 1352 987 1357 c 1
 1260 1318 1295 864 1295 278 c 2
 1295 162 l 2
 1295 121 1294 81 1293 41 c 0
 1293 -11 1258 -17 1245 -17 c 0
 1219 -17 1196 5 1196 36 c 0
 1196 70 1201 123 1201 384 c 0
 1201 792 1156 1240 975 1240 c 0
 904 1240 815 1061 791 1021 c 0
 786 1014 780 1010 773 1010 c 0
 766 1010 759 1013 754 1019 c 0
 637 1183 560 1214 513 1229 c 1
 395 1180 251 904 251 663 c 0
 251 632 245 556 245 426 c 0
 245 313 255 110 279 110 c 1
 312 129 339 201 372 324 c 2
 412 474 l 2
 494 805 590 851 729 851 c 0
 827 851 936 806 936 626 c 0
 936 482 865 410 723 410 c 0
 682 410 599 427 520 476 c 1
 485 375 481 353 453 272 c 2
 408 142 l 2
 368 33 337 11 271 11 c 0
 195 11 145 156 145 559 c 0
860 626 m 0
 860 732 765 745 731 745 c 0
 670 745 631 727 612 692 c 1
 612 693 l 1
 589 658 575 610 564 561 c 1
 617 522 677 503 728 503 c 0
 802 503 860 544 860 626 c 0
EndSplineSet
EndChar
StartChar: uni0E06
Encoding: 3590 3590 10
Width: 1521
VWidth: 3622
Flags: W
HStem: -46 94<405.956 601.771> 357 96<400.337 577.019> 688 94<164.592 326.263> 1010 88<174.806 351.71> 1183 103<177.9 338.705 581.496 655.849>
VStem: 43 98<805.121 989.454> 265 93<95.5671 313.48> 371 97<802.317 988.587> 660 90<84.9384 280.157 430 776.624> 674 94<797.078 1203.21> 1272 97<76 113.652 113.652 525.516 525.516 999.393 999.393 1287.47>
Fore
371 895 m 0xff20
 371 987 307 1010 245 1010 c 0
 187 1010 141 971 141 899 c 0
 141 805 216 782 261 782 c 0
 302 782 371 804 371 895 c 0xff20
1291 -21 m 1
 1170 -8 1041 145 752 299 c 1
 744 45 693 13 651 -12 c 0
 616 -34 573.01 -46 522 -46 c 0
 316 -46 265 101 265 210 c 0
 265 314 353 453 527 453 c 0
 554 453 609 446 660 430 c 1xffa0
 674 1107 l 2
 674 1166 634 1179 618 1179 c 0
 598 1179 576 1164 568 1137 c 2
 532 1029 l 1
 523 1013 508 1005 487 1005 c 0
 466 1005 450 1016 437 1037 c 1
 410 1183 319 1183 274 1183 c 0
 212 1183 164 1148 159 1083 c 1
 195 1094 225 1098 253 1098 c 0
 386 1098 468 998 468 893 c 0
 468 788 379 688 267 688 c 0
 156 693 43 727 43 955 c 0
 43 1123 110 1286 295 1286 c 0
 334 1286 416 1269 476 1169 c 1
 524 1270 587 1282 649 1282 c 0
 745 1282 764 1229 768 1210 c 1xff60
 768 965 760 842 754 596 c 2
 750 405 l 1xffa0
 865 341 1055 240 1185 145 c 2
 1272 76 l 1
 1272 1229 l 2
 1272 1277 1302 1288 1322 1288 c 0
 1343 1288 1373 1268 1373 1219 c 0
 1372 1049 1371 904 1371 782 c 0
 1371 479 1369 428 1369 276 c 2
 1369 155 l 2
 1369 72 1367 93 1367 51 c 0
 1365 20 1357 -14 1291 -21 c 1
358 206 m 0
 358 98 443 48 515 48 c 0
 612 48 655 113 655 231 c 0
 655 246 655 263 653 281 c 0
 646 327 558 357 531 357 c 0
 435 357 358 307 358 206 c 0
EndSplineSet
EndChar
StartChar: uni0E07
Encoding: 3591 3591 11
Width: 1199
VWidth: 3622
Flags: W
HStem: 830 109<675.517 889.287> 1251 99<686.31 891.253>
VStem: 539 101<974.718 1206.65> 955 103<755.367 876 1031.4 1197.17>
Fore
799 1350 m 0
 1001 1350 1058 1188 1058 991 c 2
 1058 941 l 2
 1046 608 1014 -4 837 -4 c 0
 675 -4 314 451 101 1037 c 0
 98 1044 97 1051 97 1056 c 0
 97 1084 123 1099 149 1099 c 0
 168 1099 187 1090 193 1074 c 0
 374 636 580 272 738 151 c 0
 779 120 806 103 821 101 c 1
 919 112 952 809 955 876 c 1
 919 850 866 830 807 830 c 0
 625 830 539 958 539 1068 c 0
 539 1245 632 1350 799 1350 c 0
640 1081 m 0
 640 1030 659 939 807 939 c 0
 929 939 943 1050 943 1072 c 0
 943 1183 865 1251 789 1251 c 0
 690 1251 640 1169 640 1081 c 0
EndSplineSet
EndChar
StartChar: uni0E08
Encoding: 3592 3592 12
Width: 1300
VWidth: 3622
Flags: W
HStem: 4 99<858.923 916.514> 428 100<529.842 706.286> 781 112<522.012 709.978> 1272 104<439.037 850.071>
VStem: 103 104<717.74 1030.6> 385 112<559.766 756.608> 752 95<164.25 451.624 550.878 746.247> 1056 101<430.745 1031.76>
Fore
857 588 m 0
 857 534 847 453 847 317 c 0
 847 195 854 103 883 103 c 0
 921 103 1056 487 1056 743 c 0
 1056 1124 897 1272 658 1272 c 0
 436 1272 207 1172 207 771 c 0
 207 731 187 715 164 715 c 0
 136 715 103 740 103 771 c 0
 103 1072 214 1376 658 1376 c 0
 816 1376 927 1337 1023 1226 c 0
 1082 1157 1157 1050 1157 743 c 0
 1157 396 1021 4 885 4 c 0
 748 4 752 211 752 294 c 2
 752 409 l 2
 752 435 757 423 752 453 c 1
 715 436 677 428 626 428 c 0
 433 428 385 607 385 671 c 0
 385 801 511 893 623 893 c 0
 795 893 857 767 857 588 c 0
745 647 m 0
 745 732 676 781 611 781 c 0
 552 781 497 742 497 654 c 0
 497 573 564 528 629 528 c 0
 688 528 745 566 745 647 c 0
EndSplineSet
EndChar
StartChar: uni0E09
Encoding: 3593 3593 13
Width: 1478
VWidth: 3622
Flags: W
HStem: -7 95<1071.28 1233.67> 343 97<198.639 364.756> 398 101<1091.42 1228.53> 689 98<195.472 389.233> 1226 109<400.245 771.362>
VStem: 73 97<465.876 636.805> 405 108<111.201 172.2 172.2 269.392 269.392 366.138 366.138 376.909> 414 111<483.576 666.361> 952 104<98.5524 292> 971 110<488 530.839 530.839 563.977 563.977 827.493> 1269 91<121.255 356.879>
Fore
496 -3 m 0xbca0
 423 -3 405 125 405 186 c 0xbea0
 405 286 408 269 410 352 c 0
 410 358 412 380 412 380 c 1
 370 348 308 343 274 343 c 0
 108 343 73 486 73 553 c 0
 73 657 127 787 288 787 c 0
 412 787 525 732 525 569 c 0xdd20
 525 534 513 377 513 242 c 0
 513 160 513 110 509 106 c 1
 558 135 604 166 649 200 c 2
 964 448 l 1
 967 487 971 546 971 644 c 0
 971 938 881 1226 608 1226 c 0
 448 1226 272 1182 225 890 c 0
 216 853 184 832 155 832 c 0
 131 832 110 848 110 883 c 0
 110 1040 207 1335 608 1335 c 0
 802 1335 905 1258 978 1144 c 0
 1070 998 1081 777 1081 721 c 2
 1081 574 l 2xde60
 1081 543 1079 512 1077 488 c 1
 1099 499 1112 499 1141 499 c 0
 1245 499 1360 402 1360 248 c 0
 1360 166 1327 -7 1132 -7 c 0
 973 -7 952 93 952 292 c 1
 815 207 779 164 735 132 c 0
 612 42 534 -3 496 -3 c 0xbca0
1137 398 m 0
 1099 398 1075 382 1056 363 c 1
 1056 327 l 2
 1056 146 1062 88 1132 88 c 0
 1247 88 1269 183 1269 254 c 0
 1269 320 1211 398 1137 398 c 0
170 566 m 0
 170 513 204 440 290 440 c 0
 351 440 414 481 414 562 c 0xdd20
 414 621 389 689 289 689 c 0
 185 689 170 602 170 566 c 0
EndSplineSet
EndChar
StartChar: uni0E0A
Encoding: 3594 3594 14
Width: 1137
VWidth: 3622
Flags: W
HStem: -0 103<549.249 746.03> 778 92<173.371 360.54> 1249 105<291.798 465.55>
VStem: 46 99<899.705 1094.22> 384 95<892.419 1085.45> 387 112<158.836 594.323> 538 102<926.641 1182.86> 814 116<173.806 654.396>
Fore
253 1114 m 0xfb
 167 1114 145 1055 145 1001 c 0
 145 946 175 870 277 870 c 0
 339 870 384 920 384 987 c 256
 384 1056 337 1114 253 1114 c 0xfb
685 1033 m 1
 796 1298 1005 1425 1051 1425 c 0
 1077 1425 1102 1403 1102 1373 c 0
 1102 1369 1102 1347 1083 1330 c 0
 917 1217 822 1094 796 1021 c 1
 814 948 l 2
 840 837 930 534 930 333 c 0
 930 164 872 -0 642 -0 c 0
 489 -0 387 94 387 366 c 0xf7
 387 606 538 928 538 1108 c 0
 538 1229 429 1249 373 1249 c 0
 333 1249 287 1235 260 1215 c 1
 446 1204 479 1076 479 987 c 0xfb
 479 906 397 778 265 778 c 0
 142 778 46 868 46 1002 c 0
 46 1255 243 1354 379 1354 c 0
 496 1354 553 1322 595 1256 c 0
 625 1207 640 1148 640 1077 c 0
 640 1019 633 963 623 911 c 2
 592 781 l 2
 560 641 499 465 499 366 c 0xf7
 499 227 542 103 617 103 c 0
 735 103 814 172 814 364 c 0
 814 495 781 631 756 733 c 2
 727 847 l 2
 700 958 689 986 685 1033 c 1
EndSplineSet
EndChar
StartChar: uni0E0B
Encoding: 3595 3595 15
Width: 1307
VWidth: 3622
Flags: W
HStem: -0 103<695.053 897.36> 775 90<172.649 357.272> 1048 20G<467 468> 1229 101<584.934 671.945> 1245 94<265.569 404.552>
VStem: 46 99<891.736 1050.54> 380 99<885.362 1040.02> 532 109<159.214 441.102> 685 107<1021.62 1193.12> 962 113<172.003 658.181>
Fore
272 1106 m 0xe7c0
 162 1100 145 1019 145 980 c 0
 145 908 208 865 269 865 c 0
 326 865 380 902 380 987 c 256
 380 1034 365 1099 272 1106 c 0xe7c0
237 1196 m 1
 241 1197 243 1197 245 1197 c 0
 342 1197 407 1164 446 1100 c 1
 432 1144 l 2
 427 1161 396 1245 340 1245 c 0xefc0
 293 1245 272 1241 237 1196 c 1
479 995 m 0
 479 883 385 775 271 775 c 0
 86 775 46 925 46 1024 c 0
 46 1166 185 1339 348 1339 c 0xefc0
 439 1339 479 1265 499 1224 c 1
 516 1272 549 1330 623 1330 c 0
 724 1330 792 1278 792 1120 c 0
 792 1032 783 961 711 681 c 2
 665 504 l 2
 648 440 641 383 641 334 c 0
 641 183 709 103 775 103 c 0
 887 103 962 172 962 350 c 0
 962 451 935 608 868 853 c 2
 844 950 l 2
 836 978 832 1006 830 1033 c 1
 925 1257 1074 1363 1169 1419 c 1
 1179 1423 1188 1424 1197 1424 c 0
 1229 1424 1247 1399 1247 1373 c 0
 1247 1358 1241 1342 1228 1330 c 2
 1164 1282 l 2
 1063 1205 970 1100 941 1021 c 1
 946 1001 952 976 960 948 c 2
 983 858 l 2
 1011 751 1075 516 1075 333 c 0
 1075 129 992 -0 787 -0 c 0
 634 -0 532 93 532 366 c 0
 532 443 542 519 612 757 c 2
 661 946 l 2
 679 1016 685 1066 685 1103 c 0
 685 1146 671 1229 629 1229 c 0xf7c0
 605 1229 591 1211 584 1187 c 2
 543 1084 l 2
 534 1057 518 1048 502 1048 c 0
 487 1048 471 1057 463 1068 c 1
 473 1047 479 1021 479 995 c 0
EndSplineSet
EndChar
StartChar: uni0E0C
Encoding: 3596 3596 16
Width: 1779
VWidth: 3622
Flags: W
HStem: 3 96<361.846 536.88 777.245 963.165> 317 100<786.959 942.516> 340 90<371.954 546.901> 1201 103<343.75 748.487>
VStem: 232 101<121.719 535.859> 269 108<663.683 793.946> 948 103<412 466.408 466.408 920.066> 980 87<106.122 250.033> 1512 105<115 393.523 393.523 644 518.762 1108.04 939.202 1276.87>
Fore
670 242 m 1xb680
 687 319 758 417 890 417 c 0xd680
 909 417 928 415 948 412 c 1
 948 467 l 2
 948 941 872 1201 568 1201 c 0
 309 1201 162 1061 136 955 c 1
 341 876 l 1
 357 867 377 843 377 755 c 0
 377 728 376 698 372 662 c 2
 350 412 l 1
 376 426 413 430 462 430 c 0
 589 430 659 341 670 242 c 1xb680
1054 522 m 0
 1054 462 1053 462 1051 371 c 1x9680
 1511 115 l 1
 1511 338 1512 450 1512 672 c 0
 1512 727 1512 891 1507 1219 c 0
 1507 1267 1546 1279 1567 1279 c 0
 1588 1279 1627 1266 1627 1215 c 2
 1617 73 l 2
 1613 21 1579 -4 1521 -4 c 1
 1065 251 l 1
 1066 240 1067 229 1067 218 c 0
 1067 90 987 0 877 0 c 0
 756 0 678 57 665 175 c 1
 634 56 544 3 454 3 c 0
 343 3 232 83 232 218 c 256x9980
 232 379 269 646 269 761 c 0
 269 782 270 793 271 794 c 1
 218 816 l 2
 100 863 23 874 23 927 c 0
 23 1085 220 1304 536 1304 c 0
 789 1304 903 1213 957 1111 c 0
 1034 968 1054 743 1054 522 c 0
449 99 m 0
 528 99 570 162 570 223 c 0
 570 282 531 340 449 340 c 0
 362 340 333 267 333 218 c 256xb880
 333 165 364 99 449 99 c 0
762 199 m 0
 762 146 785 92 876 92 c 0
 938 92 980 122 980 210 c 0
 980 290 928 317 881 317 c 0xd180
 799 317 762 257 762 199 c 0
EndSplineSet
EndChar
StartChar: uni0E0D
Encoding: 3597 3597 17
Width: 1775
VWidth: 3622
Flags: W
HStem: -610 105<1085.68 1365.42> -181 109<880.172 1074.89> 4 103<353.44 544.899 1047.57 1456.34 1395.34 1517.34> 7 108<1038 1189.11> 340 90<371.981 545.725> 1201 102<360.671 750.735>
VStem: 232 102<121.291 554.797> 570 101<125.708 315.163> 761 103<-389.33 -194.2> 936 102<115 314.504> 952 102<371.036 951.215> 1095 106<-379.479 -202.296> 1519 105<111 191.608 191.608 435.262 435.262 488.5 488.5 986.152 986.152 1265.97> 1663 116<-296.742 -54.3471>
Fore
1624 242 m 2xefdc
 1624 2 1617 4 1430 4 c 0xefdc
 1302 4 1124 7 1008 7 c 0
 939 7 936 44 936 69 c 2xdfdc
 952 617 l 2
 952 1006 829 1201 584 1201 c 0
 362 1201 162 1074 140 953 c 1
 343 876 l 1
 360 865 364 819 364 730 c 0
 364 666 362 603 352 412 c 1
 375 426 412 430 463 430 c 0
 602 430 671 328 671 224 c 0
 671 116 597 6 451 6 c 0
 341 6 232 80 232 218 c 0
 232 372 249 688 264 798 c 1
 205 836 23 860 23 927 c 0
 23 1086 293 1303 554 1303 c 0
 954 1303 1047 1045 1054 578 c 2xdfbc
 1038 115 l 1xdfdc
 1118 109 1195 107 1273 107 c 0
 1352 107 1432 109 1518 111 c 1
 1518 144 1519 161 1519 276 c 0
 1519 404 1521 436 1521 596 c 0
 1521 991 1513 1149 1513 1218 c 0
 1513 1257 1524 1300 1562 1300 c 0
 1576 1300 1617 1290 1617 1220 c 2
 1620 653 l 2
 1623 542 1624 435 1624 324 c 258
 1624 242 l 2xefdc
449 99 m 0
 528 99 570 162 570 223 c 0
 570 282 531 340 449 340 c 0
 357 340 334 262 334 218 c 256
 334 172 357 99 449 99 c 0
982 -72 m 0
 1107 -72 1201 -159 1201 -284 c 0
 1201 -362 1159 -447 1061 -490 c 1
 1108 -500 1147 -505 1189 -505 c 0
 1247 -505 1310 -495 1410 -474 c 0
 1597 -434 1646 -276 1663 -131 c 0
 1664 -75 1691 -52 1719 -52 c 0
 1749 -52 1779 -79 1779 -124 c 0
 1759 -436 1546 -610 1210 -610 c 0
 968 -610 761 -503 761 -270 c 0
 761 -143 872 -72 982 -72 c 0
962 -181 m 0
 883 -181 864 -241 864 -285 c 0
 864 -346 901 -411 965 -411 c 0
 1055 -411 1095 -334 1095 -282 c 0
 1095 -228 1055 -181 962 -181 c 0
EndSplineSet
Substitution2: "Single Substitution lookup 22 subtable" uni0E0D.alt1
Substitution2: "Single Substitution lookup 22 subtable" uni0E0D.alt1
EndChar
StartChar: uni0E0E
Encoding: 3598 3598 18
Width: 1376
VWidth: 3622
Flags: W
HStem: -651 97<214.82 554.697> -281 103<238.95 673.217> -1 95<148.968 331.143> 337 90<144.44 329.986> 1233 104<441.284 879.961>
VStem: 24 95<124.114 311.574> 89 96<-521.906 -334.709> 373 99<384 714.518 714.518 781.715> 729 102<-241.991 -146.735> 1123 106<-458 255.023 255.023 911.691>
Fore
784 -145 m 0xfbc0
 802 -145 831 -162 831 -241 c 0
 831 -248 830 -256 830 -264 c 1
 869 -283 1023 -361 1120 -458 c 1
 1121 210 l 2
 1122 241 1123 270 1123 300 c 2
 1123 384 l 2
 1123 920 1072 1202 708 1233 c 0
 370 1233 213 1061 191 987 c 1
 437 914 l 1
 463 914 472 742 472 487 c 0
 472 166 465 131 434 90 c 0
 387 29 312 -1 240 -1 c 0
 130 -1 24 68 24 205 c 0xfdc0
 24 347 115 427 231 427 c 0
 304 427 343 413 373 384 c 1
 373 695 363 829 363 833 c 1
 364 833 l 1
 283 880 71 886 71 960 c 0
 76 1073 250 1337 662 1337 c 0
 1104 1337 1229 1085 1229 456 c 0
 1229 414 l 2
 1222 -486 l 2
 1222 -565 1185 -610 1155 -610 c 0
 1149 -610 1142 -607 1137 -603 c 2
 1058 -540 l 2
 945 -446 863 -403 810 -379 c 1
 766 -554 553 -651 373 -651 c 0
 168 -651 89 -540 89 -429 c 0
 89 -329 153 -178 415 -178 c 0
 529 -178 647 -207 729 -242 c 1
 734 -193 l 2
 739 -170 761 -145 784 -145 c 0xfbc0
357 216 m 0
 357 280 309 337 237 337 c 0
 160 337 119 278 119 218 c 0
 119 126 201 94 250 94 c 0
 312 94 357 154 357 216 c 0
185 -437 m 0xfbc0
 185 -531 277 -554 356 -554 c 0
 500 -554 696 -473 715 -343 c 1
 656 -313 531 -281 417 -281 c 0
 295 -281 185 -318 185 -437 c 0xfbc0
EndSplineSet
Substitution2: "Single Substitution lookup 22 subtable" uni0E0E.alt1
Substitution2: "Single Substitution lookup 22 subtable" uni0E0E.alt1
EndChar
StartChar: uni0E0F
Encoding: 3599 3599 19
Width: 1406
VWidth: 3622
Flags: W
HStem: -603 95<149.771 336.305> -267 97<147.115 335.8> -1 95<193.126 369.555> 337 89<184.968 355.687> 1235 102<469.961 922.544>
VStem: 33 92<-484.512 -289.931> 67 93<125.802 312.478> 113 120<987 1062.59> 401 112<153.473 431.25 472.211 552.5 552.5 833> 416 97<380 660.01> 1148 110<-382.914 -157 -157 -97.6615 -97.6615 276.123 276.123 909.463>
Fore
373 -198 m 1xfc20
 373 -170 l 2
 373 -135 395 -118 419 -118 c 0
 446 -118 474 -138 476 -175 c 2
 485 -253 l 1
 501 -272 518 -293 535 -318 c 2
 632 -457 l 2
 643 -473 648 -485 648 -493 c 0
 648 -495 648 -497 647 -499 c 1
 808 -296 l 2
 843 -253 868 -228 884 -228 c 0
 913 -228 953 -254 1029 -373 c 2
 1084 -450 l 2
 1102 -473 1117 -491 1130 -504 c 1
 1138 -472 1148 -279 1148 -157 c 0
 1148 -121 1148 -81 1149 -38 c 2
 1150 60 l 1
 1152 194 l 2
 1153 262 1153 316 1153 357 c 0
 1153 982 1087 1235 701 1235 c 0
 439 1235 238 1073 233 987 c 1xf920
 502 907 l 1
 513 198 l 2
 513 75 394 -1 287 -1 c 0
 111 -1 67 118 67 213 c 0xfaa0
 67 344 154 426 282 426 c 0
 331 426 379 417 416 380 c 1
 407 833 l 1
 409 833 l 1
 372 851 308 869 260 879 c 2
 206 893 l 2
 137 911 113 933 113 960 c 2
 113 969 l 2xf960
 113 1090 337 1337 708 1337 c 0
 1148 1337 1258 1068 1258 379 c 2
 1258 -124 l 2
 1253 -577 1230 -624 1128 -624 c 0
 1106 -624 1073 -595 1017 -516 c 2
 925 -388 l 2
 910 -366 899 -355 893 -354 c 1
 888 -362 716 -614 644 -617 c 0
 593 -615 464 -400 460 -393 c 1
 453 -526 344 -603 237 -603 c 0
 127 -603 33 -522 33 -391 c 0
 33 -310 69 -170 255 -170 c 0
 301 -170 340 -179 373 -198 c 1xfc20
401 219 m 0xfaa0
 401 284 347 337 275 337 c 0
 203 337 160 279 160 219 c 0
 160 132 243 94 290 94 c 0
 369 94 401 185 401 219 c 0xfaa0
366 -367 m 0
 366 -347 367 -267 246 -267 c 0
 161 -267 125 -324 125 -383 c 0xfc20
 125 -445 165 -508 230 -508 c 0
 308 -508 366 -469 366 -367 c 0
EndSplineSet
Substitution2: "Single Substitution lookup 22 subtable" uni0E0F.alt1
Substitution2: "Single Substitution lookup 22 subtable" uni0E0F.alt1
EndChar
StartChar: uni0E10
Encoding: 3600 3600 20
Width: 1271
VWidth: 3622
Flags: W
HStem: -647 92<1.2187 126.518> -386 96<4.01117 124.747 696.242 838.044> -126 91<695.215 843.694> 0 103<760.113 824.651> 340 93<406.415 610.178> 700 103<405.902 598.28> 847 110<163.48 566.255 566.255 675.592 620.923 929.773> 988 105<957.603 1032.74> 1222 101<359.289 718.521>
VStem: -101 94<-548.689 -396.432> 41 118<914.395 1065.74> 191 101<-327 -286.15 -286.15 -207.219> 270 105<463.565 671.355> 587 98<-290.757 -135.513> 639 104<462.608 660.119> 855 107<-536.761 -270.444 -400.592 -371 -420.689 -141.556> 952 99<504.724 828.02> 1033 104<1100.13 1166.63>
Fore
506 700 m 0xffea
 402 700 375 617 375 562 c 0
 375 489 426 433 516 433 c 0
 587 433 639 492 639 559 c 0
 639 629 585 693 506 700 c 0xffea
62 -555 m 0
 99 -555 164 -540 164 -456 c 0
 164 -390 89 -386 78 -386 c 0
 20 -386 -7 -431 -7 -474 c 0
 -7 -515 17 -555 62 -555 c 0
229 -204 m 0
 267 -204 292 -237 292 -345 c 0
 292 -366 291 -380 290 -386 c 1
 410 -538 l 2
 418 -550 424 -555 426 -555 c 1
 468 -519 561 -420 624 -393 c 1
 644 -393 666 -403 690 -424 c 2
 768 -490 l 2
 799 -521 832 -545 842 -554 c 1
 845 -540 855 -501 855 -430 c 0
 855 -412 854 -393 853 -371 c 1
 832 -384 802 -391 762 -391 c 0
 648 -391 587 -303 587 -214 c 256
 587 -115 656 -35 759 -35 c 0
 842 -35 962 -60 962 -214 c 0
 962 -559 951 -668 850 -668 c 0
 786 -668 692 -536 631 -506 c 1
 600 -522 476 -662 440 -662 c 0
 402 -662 325 -606 251 -504 c 1
 223 -599 144 -647 69 -647 c 0
 -35 -647 -101 -562 -101 -467 c 0
 -101 -347 1 -290 87 -290 c 0
 130 -290 165 -308 191 -327 c 1xfff5
 191 -293 178 -275 178 -258 c 0
 178 -224 203 -204 229 -204 c 0
685 -210 m 0
 685 -253 716 -301 769 -301 c 0
 835 -301 862 -263 862 -225 c 0
 862 -181 824 -126 768 -126 c 0
 716 -126 685 -166 685 -210 c 0
777 0 m 0
 614 0 649 268 631 363 c 1
 609 352 582 340 508 340 c 0
 358 340 270 457 270 575 c 0
 270 708 382 803 506 803 c 0
 646 803 743 725 743 471 c 0
 743 178 756 103 784 103 c 0
 854 103 952 533 952 732 c 0xffea80
 942 810 938 853 755 853 c 0
 497 853 460 847 386 847 c 2
 313 847 l 2
 104 847 41 870 41 961 c 0
 41 1103 288 1323 522 1323 c 0
 823 1323 819 1205 942 1112 c 0
 959 1100 981 1093 1006 1093 c 0
 1028 1093 1033 1106 1033 1128 c 0
 1033 1154 1050 1167 1084 1167 c 0
 1119 1167 1137 1153 1137 1125 c 0xffe040
 1137 1073 1101 988 990 988 c 0
 975 988 952 991 925 1006 c 0
 775 1093 771 1222 532 1222 c 0
 374 1222 159 1087 159 969 c 0
 159 959 187 957 364 957 c 2
 525 957 l 2
 661 957 756 960 823 960 c 0
 942 960 978 950 1010 895 c 0
 1035 859 1051 814 1051 723 c 0xffe080
 1051 662 1044 581 1026 468 c 0
 979 168 877 0 777 0 c 0
EndSplineSet
Substitution2: "Single Substitution lookup 22 subtable" uni0E10.alt1
Substitution2: "Single Substitution lookup 22 subtable" uni0E10.alt1
EndChar
StartChar: uni0E11
Encoding: 3601 3601 21
Width: 1648
VWidth: 3622
Flags: W
HStem: 688 92<166.498 356.796> 1011 87<179.492 354.168> 1182 104<226.786 371.342 584.953 682.649> 1190 105<1088.21 1270.23>
VStem: 47 100<801.371 995.548> 375 99<794.573 989.688> 704 110<987.535 1163.88> 720 118<33.9193 123.769 123.769 447.625 447.625 678.122> 1380 109<45.3789 311.513 311.513 413.331 362.422 878.945>
Fore
242 1011 m 0xcc80
 166 1011 147 947 147 893 c 0
 147 825 181 780 280 780 c 0
 356 780 375 847 375 895 c 0
 375 974 328 1011 242 1011 c 0xcc80
771 7 m 0
 717 7 715 49 715 85 c 0
 715 106 717 132 720 163 c 2
 720 285 l 2xdd80
 720 369 718 495 711 704 c 2
 704 883 l 2
 693 1100 697 1176 630 1176 c 0
 582 1172 588 1137 572 1082 c 2
 555 1022 l 1
 535 1007 510 1002 493 1002 c 0
 476 1002 462 1009 451 1024 c 1
 441 1078 384 1182 304 1182 c 0
 274 1182 170 1157 161 1081 c 1
 193 1092 225 1098 258 1098 c 0
 415 1098 474 964 474 897 c 0
 474 806 394 688 272 688 c 0
 153 688 47 741 47 953 c 0
 47 1128 138 1286 306 1286 c 0
 340 1286 429 1270 492 1169 c 1
 519 1242 564 1279 628 1279 c 0
 774 1279 805 1166 814 856 c 1xee80
 864 1050 975 1295 1217 1295 c 0
 1459 1295 1496 910 1496 573 c 0
 1496 416 1492 321 1489 258 c 0
 1489 89 1507 3 1422 3 c 0
 1404 3 1390 17 1380 44 c 1
 1382 237 1394 438 1394 558 c 0
 1394 663 1387 914 1330 1077 c 0
 1297 1186 1236 1190 1212 1190 c 0
 1062 1190 845 1032 838 69 c 0xdd80
 834 25 794 7 771 7 c 0
EndSplineSet
EndChar
StartChar: uni0E12
Encoding: 3602 3602 22
Width: 1912
VWidth: 3622
Flags: W
HStem: -1 93<961.629 1112> 317 100<951.906 1100.99> 398 92<430.492 598.969> 738 99<430.859 625.961> 1176 110<373.53 581.225 866.913 1053.17>
VStem: 154 102<467.597 828.417> 304 101<544.293 682.513> 654 108<526.294 706.55> 819 106<105.427 290.87> 1128 98<107 248.745 670 787> 1654 99<111 281.585 281.585 409.5 409.5 570.5 570.5 669.5 669.5 735.569 735.569 1073.78 1073.78 1146.42 1146.42 1191.29 1191.29 1263.35>
Fore
524 490 m 0xbfe0
 599 490 648 545 654 621 c 0
 653 692 590 738 524 738 c 0
 419 738 405 640 405 612 c 0
 405 600 412 490 524 490 c 0xbfe0
1226 212 m 2
 1226 42 1122 -1 1016 -1 c 0
 884 -1 819 95 819 195 c 0
 819 303 897 417 1049 417 c 0xdfe0
 1076 417 1088 417 1113 412 c 1
 1116 670 l 1
 1109 787 l 2
 1100 1037 1082 1180 975 1180 c 0
 899 1180 824 1146 784 941 c 1
 768 910 755 904 736 904 c 0
 710 904 693 917 685 943 c 1
 650 1011 622 1176 478 1176 c 0
 272 1176 256 828 256 676 c 0
 256 197 296 88 306 88 c 0
 371 88 543 263 630 425 c 1
 595 407 559 398 524 398 c 0
 342 398 304 540 304 605 c 0
 304 669 357 837 527 837 c 0
 594 837 762 787 762 589 c 0
 762 269 439 17 290 -11 c 1
 179 -3 154 474 154 668 c 2
 154 706 l 2
 154 1202 348 1286 478 1286 c 0
 616 1286 689 1201 727 1107 c 1
 754 1199 824 1286 980 1286 c 0
 1170 1286 1217 1143 1217 379 c 1
 1657 111 l 1
 1655 128 1654 418 1654 453 c 0
 1654 592 1653 747 1650 886 c 2
 1648 1070 l 2
 1647 1130 1647 1180 1647 1222 c 0
 1653 1267 1676 1292 1702 1292 c 0
 1745 1292 1753 1256 1753 1215 c 0
 1754 1194 1754 1180 1754 1168 c 0
 1754 1131 1751 1111 1751 975 c 2
 1751 818 l 2
 1751 764 1752 710 1753 653 c 0
 1753 587 1755 554 1755 488 c 256
 1755 425 1753 394 1753 331 c 2
 1748 87 l 1
 1740 43 1724 -1 1667 -1 c 0
 1648 -1 1635 3 1620 11 c 2
 1224 249 l 1
 1225 244 1226 238 1226 232 c 2
 1226 212 l 2
1128 216 m 0
 1128 242 1123 270 1113 301 c 1
 1088 313 1065 317 1044 317 c 0
 981 317 925 270 925 201 c 0
 925 92 1003 92 1037 92 c 0
 1110 92 1128 154 1128 216 c 0
EndSplineSet
EndChar
StartChar: uni0E13
Encoding: 3603 3603 23
Width: 1963
VWidth: 3622
Flags: W
HStem: -8 96<367.507 534.827 1585.42 1749.08> 308 99<1597.35 1739.05> 327 92<372.755 547.931> 1209 102<337.115 689.438>
VStem: 233 101<138.568 275.041> 271 104<639.967 793.944> 573 101<115.098 281.478> 916 101<111.896 219.631 219.631 385.2 385.2 470 470 570.746 570.746 632.454 601.6 981.036> 1465 97<98.9096 241.434> 1477 101<401.31 532.131 532.131 876.924 876.924 1149.05 1149.05 1245 1245 1261> 1767 97<112.172 281.847>
Fore
1585 1037 m 256xb760
 1585 850 1578 756 1578 724 c 2
 1578 587 l 2xb760
 1578 541 1577 508 1577 478 c 0
 1577 452 1578 428 1580 400 c 1
 1609 406 1628 407 1640 407 c 0
 1789 407 1864 285 1864 176 c 0
 1864 163 1862 107 1811 39 c 0
 1786 9 1729 -13 1668 -13 c 0
 1571 -13 1465 42 1465 202 c 0
 1465 230 1465 234 1466 242 c 1
 1038 2 l 2
 1024 -4 1009 -7 994 -7 c 0
 932 -7 920 45 916 64 c 1
 916 470 l 2
 916 532 917 599 920 672 c 0
 916 955 846 1209 552 1209 c 0
 301 1209 163 1064 138 955 c 1
 343 876 l 1
 359 866 375 846 375 752 c 0xd7a0
 375 719 374 680 370 638 c 2
 361 506 l 2
 356 471 356 449 352 402 c 1
 376 417 414 419 439 419 c 0
 654 419 674 258 674 203 c 0
 667 145 627 -8 437 -8 c 0
 371 -8 233 60 233 205 c 0xbb20
 233 272 237 339 256 539 c 0
 256 560 271 677 271 752 c 0
 271 779 272 793 274 794 c 1
 264 798 212 820 170 835 c 2
 115 854 l 2
 31 882 25 912 25 927 c 0
 25 1087 207 1311 562 1311 c 0
 614 1311 811 1299 913 1158 c 0
 994 1045 1019 871 1019 672 c 0
 1018 645 1017 618 1017 593 c 2
 1017 516 l 2
 1017 387 1019 309 1022 258 c 0
 1022 212 1024 212 1024 182 c 0
 1024 156 1026 130 1028 111 c 1
 1477 359 l 1
 1470 1245 l 1
 1477 1286 1501 1306 1525 1306 c 0
 1547 1306 1569 1291 1581 1261 c 1
 1584 1188 1585 1112 1585 1037 c 256xb760
334 205 m 0xbb20
 334 185 348 88 449 88 c 0
 521 88 569 139 573 214 c 0
 573 282 518 327 449 327 c 0
 346 327 334 228 334 205 c 0xbb20
1767 184 m 0
 1767 262 1709 308 1649 308 c 0
 1628 308 1604 301 1576 288 c 1
 1569 264 1562 237 1562 203 c 0xd3a0
 1562 116 1614 77 1666 77 c 0
 1717 77 1767 115 1767 184 c 0
EndSplineSet
EndChar
StartChar: uni0E14
Encoding: 3604 3604 24
Width: 1445
VWidth: 3622
Flags: W
HStem: -11 107<243.881 423.136> 439 90<564.9 722.67> 778 90<565.042 744.652> 1226 109<598.562 910.968>
VStem: 166 110<98.4515 911.449> 437 99<585.33 719.825> 769 113<553.437 754.105> 1183 99<18.1899 888.753>
Fore
1233 -4 m 0
 1194 -4 1183 24 1183 30 c 2
 1183 582 l 2
 1183 1109 910 1226 720 1226 c 0
 542 1226 276 1081 276 626 c 0
 276 229 292 96 315 96 c 0
 397 96 582 234 739 456 c 1
 701 441 674 439 658 439 c 0
 481 439 437 583 437 644 c 256
 437 703 481 868 658 868 c 0
 745 868 882 780 882 616 c 0
 882 354 488 -11 297 -11 c 0
 192 -11 166 163 166 653 c 0
 166 788 186 899 225 985 c 0
 296 1136 395 1256 557 1304 c 0
 623 1325 677 1335 720 1335 c 0
 1015 1335 1134 1166 1212 996 c 0
 1254 893 1277 758 1282 589 c 2
 1282 34 l 2
 1282 20 1259 -4 1233 -4 c 0
658 529 m 0
 731 529 769 597 769 662 c 0
 769 723 725 778 658 778 c 0
 547 778 536 664 536 653 c 0
 536 630 551 529 658 529 c 0
EndSplineSet
EndChar
StartChar: uni0E15
Encoding: 3605 3605 25
Width: 1445
VWidth: 3622
Flags: W
HStem: -11 107<242.051 401.921> 398 92<436.66 600.706> 738 99<438.904 625.049> 1219 101<389.134 570.067 910.751 1091.17>
VStem: 163 106<101.599 1035.78> 313 97<543.794 682.358> 653 104<524.767 707.551> 1183 99<18.1899 1071.5>
Fore
1233 -4 m 0
 1194 -4 1183 24 1183 30 c 2
 1183 630 l 2
 1183 972 1138 1222 1012 1222 c 0
 854 1222 823 982 821 978 c 0
 812 957 798 946 777 946 c 0
 748 946 732 960 729 987 c 1
 625 1214 538 1219 487 1219 c 0
 296 1219 269 866 269 676 c 0
 269 194 290 96 321 96 c 0
 380 96 546 260 630 425 c 1
 597 407 562 398 527 398 c 0
 356 398 313 536 313 605 c 0
 313 658 357 837 531 837 c 0
 601 837 757 788 757 589 c 0
 757 263 441 -11 297 -11 c 0
 190 -11 163 182 163 633 c 0
 163 1141 290 1320 481 1320 c 0
 651 1320 734 1194 764 1127 c 1
 800 1209 863 1320 1012 1320 c 0
 1174 1320 1282 1186 1282 697 c 2
 1282 34 l 2
 1282 20 1259 -4 1233 -4 c 0
527 490 m 0
 602 490 653 552 653 621 c 0
 653 686 597 738 527 738 c 0
 426 738 410 639 410 612 c 0
 410 596 421 490 527 490 c 0
EndSplineSet
EndChar
StartChar: uni0E16
Encoding: 3606 3606 26
Width: 1372
VWidth: 3622
Flags: W
HStem: 3 96<422.747 585.807> 340 90<417.375 589.398> 1229 103<396.469 932.942>
VStem: 279 98<149.469 521.529> 311 106<641.688 811.577 811.577 831> 613 102<150.755 292.213> 1106 107<39 132.5 132.5 515.024> 1123 101<259.362 1001.59>
Fore
715 220 m 0xed
 715 196 691 3 478 3 c 0
 401 3 279 79 279 218 c 0xf4
 279 390 311 648 311 791 c 0
 311 817 312 830 313 831 c 1
 224 879 19 887 19 962 c 0
 29 1037 118 1332 695 1332 c 0
 799 1332 1015 1308 1124 1131 c 0
 1178 1042 1224 905 1224 582 c 0xed
 1224 511 1223 440 1217 226 c 0
 1217 151 1213 114 1213 39 c 1
 1196 18 1176 10 1158 10 c 0
 1130 10 1106 30 1106 44 c 0xe6
 1119 321 1123 487 1123 598 c 0
 1123 1086 1040 1229 689 1229 c 0
 341 1229 175 1091 140 987 c 1
 386 914 l 1
 412 892 417 841 417 794 c 0
 417 747 414 675 403 557 c 2
 397 482 l 2
 395 457 394 432 393 409 c 1
 433 428 467 430 506 430 c 0
 693 430 715 255 715 220 c 0xed
492 99 m 0
 571 99 613 161 613 223 c 0
 613 282 574 340 492 340 c 0
 397 340 377 252 377 218 c 0
 377 192 386 165 405 136 c 0
 420 111 449 99 492 99 c 0
EndSplineSet
EndChar
StartChar: uni0E17
Encoding: 3607 3607 27
Width: 1469
VWidth: 3622
Flags: W
HStem: 815 107<199.185 442.731> 1189 114<1036.47 1143.09> 1247 99<211.167 436.128>
VStem: 55 109<957.493 1201.28> 485 108<361 573.387 573.387 862.59 967.918 1197.18> 1206 110<39.8649 301.056 301.056 1101.76>
Fore
488 1068 m 0xbc
 488 1211 385 1247 313 1247 c 0
 217 1247 164 1167 164 1080 c 0
 164 1004 194 922 315 922 c 0
 399 922 488 970 488 1068 c 0xbc
1257 -2 m 0
 1205 -2 1206 62 1206 162 c 2
 1206 577 l 2
 1206 962 1184 1189 1078 1189 c 0xdc
 1072 1189 1065 1189 1058 1187 c 1
 895 1064 763 743 642 39 c 1
 615 4 569 -1 554 -1 c 0
 514 -1 484 24 484 79 c 0
 484 85 484 92 485 99 c 2
 492 863 l 1
 462 839 393 815 318 815 c 0
 120 815 55 979 55 1084 c 0
 55 1223 156 1346 313 1346 c 0xbc
 572 1346 595 1158 600 988 c 0
 600 947 601 903 601 856 c 0
 601 550 593 462 593 418 c 2
 593 361 l 1
 670 797 854 1303 1076 1303 c 0xdc
 1274 1303 1323 1091 1323 522 c 0
 1323 179 1316 136 1316 94 c 2
 1316 35 l 2
 1316 22 1286 -2 1257 -2 c 0
EndSplineSet
EndChar
StartChar: uni0E18
Encoding: 3608 3608 28
Width: 1188
VWidth: 3622
Flags: MW
HStem: 12 101<341.328 430.723 430.723 579.092 579.092 632.396 632.396 838> 782 101<214.943 510 510 808.794> 946 99<949.013 1002.04> 1201 104<381.17 715.447>
VStem: 99 103<886.204 1022.54> 228 115<117 656.832> 842 106<127 153.846 153.846 283.87 283.87 358.123 358.123 456 456 681.214>
Fore
971 1045 m 0
 1029 1045 973 1148 1054 1148 c 0
 1092 1148 1110 1121 1110 1086 c 0
 1110 1027 1058 946 975 946 c 0
 801 946 849 1201 534 1201 c 0
 327 1201 202 988 202 902 c 0
 202 887 229 883 366 883 c 2
 586 883 l 2
 847 883 878 877 908 824 c 0
 941 765 948 639 948 460 c 0
 948 113 949 148 949 113 c 0
 949 58 907 21 863 21 c 2
 616 14 l 2
 593 13 569 12 542 12 c 2
 410 12 l 2
 240 18 228 29 228 50 c 2
 232 600 l 1
 241 639 260 658 288 658 c 0
 301 658 338 651 343 601 c 2
 341 117 l 1
 412 114 500 113 518 113 c 0
 550 113 711 115 838 127 c 1
 842 153 842 169 842 180 c 2
 842 262 l 2
 842 340 840 340 840 456 c 0
 840 760 821 769 709 769 c 2
 311 782 l 2
 131 788 99 799 99 891 c 0
 99 1051 263 1305 534 1305 c 0
 820 1305 896 1136 930 1093 c 0
 956 1060 961 1045 971 1045 c 0
EndSplineSet
EndChar
StartChar: uni0E19
Encoding: 3609 3609 29
Width: 1641
VWidth: 3622
Flags: W
HStem: -18 98<1211.06 1390.55> 382 94<1214.93 1391.55> 769 101<194.923 408.209> 1205 93<206.964 431.169>
VStem: 53 99<909.6 1149.58> 486 105<115.314 204.296 204.296 445.892 445.892 556.369 556.369 602.523 602.523 724.277 724.277 742.239 742.239 815 831.066 1056.24 961.691 1150.8> 1060 100<132.854 325> 1060 104<462 497.915 497.915 598.893 598.893 812.377 812.377 1043.22 1043.22 1272> 1436 94<124.996 337.28>
Fore
1111 1320 m 0xfd80
 1133 1320 1175 1293 1175 1253 c 0
 1175 1177 1164 973 1164 667 c 0
 1164 585 1163 567 1163 533 c 0
 1163 517 1163 496 1164 462 c 1xfd80
 1203 472 1240 476 1282 476 c 0
 1494 476 1530 312 1530 239 c 0
 1530 153 1482 -18 1288 -18 c 0
 1106 -18 1061 166 1060 325 c 1xfe80
 1004 291 957 259 918 230 c 2
 720 82 l 2
 653 32 613 6 577 6 c 0
 560 6 508 13 493 81 c 1
 493 114 480 265 480 415 c 0
 480 444 481 464 481 476 c 0
 481 556 483 572 483 636 c 0
 483 690 484 708 486 815 c 1
 447 790 380 769 311 769 c 0
 105 769 53 950 53 1041 c 0
 53 1175 146 1298 310 1298 c 0
 584 1298 587 1087 590 978 c 0
 591 950 591 919 591 886 c 256
 591 798 589 776 589 667 c 0
 588 624 587 582 587 538 c 2
 587 297 l 1
 587 297 586 119 582 115 c 1
 765 215 785 285 1060 437 c 1
 1063 707 1065 930 1065 1174 c 2
 1065 1272 l 1
 1077 1304 1092 1320 1111 1320 c 0xfd80
152 1023 m 0
 152 962 180 870 317 870 c 0
 393 870 486 925 486 1022 c 0
 486 1168 379.07 1205 311 1205 c 0
 210 1205 152 1111 152 1023 c 0
1436 239 m 0
 1436 292 1391 382 1282 382 c 0
 1248 382 1207 371 1160 350 c 1xfe80
 1160 120 1237 80 1288 80 c 0
 1406 80 1436 196 1436 239 c 0
EndSplineSet
EndChar
StartChar: uni0E1A
Encoding: 3610 3610 30
Width: 1542
VWidth: 3622
Flags: W
HStem: -5 113<683 706.362 706.362 961.092 961.092 972.997 972.997 1274> 795 102<287.496 532.455> 1230 93<307.032 534.477>
VStem: 150 98<936.398 1170.13> 587 107<111 319.06 319.06 418.75 418.75 782.963 782.963 842 866.681 1174.01> 1250 110<982 992 1075 1114.05 1114.05 1309.53> 1259 119<398.141 816.5 816.5 846 846 982 992 1075> 1274 112<107.56 400.705 171.608 500.516>
Fore
1125 103 m 0xf9
 1274 103 1274 113 1274 139 c 0xf9
 1274 153 1272 174 1272 205 c 0
 1272 354 1267 403 1259 700 c 2xfa
 1250 992 l 2
 1246 1085 1245 1166 1245 1235 c 0
 1245 1305 1285 1311 1297 1311 c 256
 1313 1311 1353 1301 1353 1233 c 2
 1360 1075 l 1xfc
 1366 982 l 1
 1378 651 l 2xfa
 1380 604 1386 482 1386 256 c 0
 1386 98 1385 79 1385 59 c 0
 1385 29 1367 9 1330 0 c 1
 1133 -2 804 -5 672 -5 c 2
 580 -5 l 2
 574 -5 573 19 573 54 c 0
 573 65 587 753 587 842 c 1
 556 814 494 795 427 795 c 0
 258 795 150 905 150 1063 c 0
 150 1196 253 1323 409 1323 c 0
 675 1323 694 1153 694 870 c 0
 694 824 693 774 693 722 c 0
 693 557 690 353 683 111 c 1
 696 109 711 108 730 108 c 2
 794 108 l 2
 943 108 1045 103 1125 103 c 0xf9
420 1230 m 0
 283 1230 248 1101 248 1043 c 0
 248 966 296 897 417 897 c 0
 508 897 584 968 584 1047 c 0
 584 1179 500 1230 420 1230 c 0
EndSplineSet
EndChar
StartChar: uni0E1B
Encoding: 3611 3611 31
Width: 1434
VWidth: 3622
Flags: W
HStem: 2 106<583.232 741.739 741.739 810.984 810.984 969.223 969.223 1041.62 1041.62 1173> 795 102<188.059 433.888> 1229 94<203.762 433.627>
VStem: 51 98<938.205 1176.97> 488 105<111 320.406 320.406 494.482 494.482 842 951.936 1168.69> 1124 114<1543.63 1647.86 1647.86 1813.35 1813.35 1908.52> 1173 111<113 179.408 179.408 333.077 333.077 408 472 678.077>
Fore
308 1323 m 0xfa
 579 1323 593 1158 593 841 c 0
 593 804 593 764 593 722 c 0
 593 557 589 353 582 111 c 1
 615 110 713 108 909 108 c 0
 1015 108 1094 110 1173 113 c 1
 1173 196 l 2xfa
 1173 268 1171 360 1167 472 c 2
 1124 1758 l 2
 1123 1802 1123 1839 1123 1868 c 1
 1130 1896 1156 1910 1182 1910 c 0
 1210 1910 1238 1893 1238 1859 c 0xfc
 1238 1787 1242 1644 1247 1500 c 2
 1263 966 l 2
 1267 702 1272 584 1276 408 c 2
 1280 252 l 2
 1283 130 1284 130 1284 100 c 2
 1284 59 l 2
 1284 6 1249 -1 1186 -1 c 2
 1072 2 l 258
 996 4 931 5 867 5 c 0
 843 5 799 5 754 2 c 2
 598 2 l 2
 558 2 523 5 492 11 c 1
 485 11 477 40 477 194 c 0
 477 388 488 583 488 842 c 1
 452 812 392 795 329 795 c 0
 198 795 51 867 51 1052 c 0
 51 1177 130 1323 308 1323 c 0xfa
149 1055 m 0
 149 978 182 897 315 897 c 0
 406 897 485 965 485 1047 c 0
 485 1161 418 1229 311 1229 c 0
 208 1229 149 1143 149 1055 c 0
EndSplineSet
EndChar
StartChar: uni0E1C
Encoding: 3612 3612 32
Width: 1268
VWidth: 3622
Flags: W
HStem: 4 125<939.217 1011.06> 805 98<342.46 528.221> 1234 106<309.07 533.392>
VStem: 154 113<155.245 329.369 329.369 631.477 631.477 687.696 687.696 861 825.393 1188.58> 576 105<950.216 1189.5> 1014 109<131.757 299 299 406.492 406.492 652.354 652.354 1091.16 1091.16 1157.79 1157.79 1312.61>
Fore
429 805 m 0
 378 805 311 818 262 861 c 1
 265 700 l 2
 266 654 267 608 267 563 c 2
 267 428 l 2
 267 335 268 277 268 233 c 0
 268 199 267 174 265 149 c 1
 408 290 478 362 577 610 c 0
 594 642 603 656 634 656 c 0
 688 656 686 605 686 605 c 1
 755 410 921 129 1015 129 c 1
 1012 129 1010 162 1010 299 c 0
 1010 385 1008 407 1008 515 c 256
 1008 625 1006 653 1006 791 c 0
 1006 949 1009 1112 1014 1272 c 1
 1021 1298 1028 1314 1075 1314 c 0
 1110 1314 1121 1292 1125 1258 c 0
 1124 1187 1123 1120 1123 1058 c 2
 1123 346 l 2
 1123 217 1120 129 1113 83 c 1
 1113 37 1059 4 1022 4 c 0
 934 4 795 138 718 262 c 0
 689 310 660 369 631 440 c 1
 540 230 327 4 233 4 c 0
 154 4 154 90 154 507 c 0
 154 748 149 892 149 988 c 0
 149 1126 159 1179 204 1240 c 0
 253 1306 335 1340 418 1340 c 0
 565 1340 681 1236 681 1081 c 0
 681 903 566 805 429 805 c 0
423 1234 m 0
 332 1234 264 1172 264 1079 c 0
 264 980 341 903 421 903 c 0
 491 903 576 952 576 1070 c 0
 576 1170 515 1234 423 1234 c 0
EndSplineSet
EndChar
StartChar: uni0E1D
Encoding: 3613 3613 33
Width: 1278
VWidth: 3622
Flags: MW
HStem: 804 99<341.38 530.48> 1234 106<310.201 534.992>
VStem: 152 119<113.527 277.647 277.647 483.562 380.604 690.782 655.654 725.911 725.911 860 842.731 1145.71> 576 106<951.858 1192.34> 1021 113<977.784 1438.47 1438.47 1627.43 1627.43 1916.03>
Fore
1014 4 m 0
 940 4 861 97 633 453 c 1
 569 315 386 0 237 0 c 0
 180 0 152 29 152 383 c 0
 152 441 152 508 154 585 c 0
 154 759 150 879 150 967 c 0
 150 1099 159 1161 206 1232 c 0
 252 1303 338 1340 423 1340 c 0
 553 1340 682 1256 682 1074 c 0
 682 903 564 804 428 804 c 0
 379 804 311 817 264 860 c 1
 268 738 268 621 271 449 c 0
 271 246 269 212 269 111 c 1
 355 178 459 313 573 610 c 0
 579 629 598 646 620 646 c 0
 637 646 661 636 674 605 c 0
 742 441 979 113 987 113 c 1
 1016 180 1015 1386 1021 1880 c 0
 1021 1908 1028 1940 1074 1940 c 0
 1111 1940 1130 1938 1134 1871 c 2
 1132 1668 l 2
 1131 1639 1131 1613 1131 1587 c 0
 1131 1499 1134 1418 1134 1288 c 2
 1134 1218 l 2
 1134 965 1132 293 1102 85 c 0
 1096 36 1058 4 1014 4 c 0
423 1234 m 0
 333 1234 264 1172 264 1079 c 0
 264 979 342 903 421 903 c 0
 491 903 576 952 576 1070 c 0
 576 1191 496 1234 423 1234 c 0
EndSplineSet
EndChar
StartChar: uni0E1E
Encoding: 3614 3614 34
Width: 1507
VWidth: 3622
Flags: W
HStem: 796 97<198.528 410.243> 1222 105<196.469 419.017>
VStem: 41 111<940.004 1178.23> 488 113<174.062 225 225 277.315 277.315 668.454 668.454 709.407 709.407 860> 1251 109<776.423 1277>
Fore
295 1327 m 0
 581 1327 598 1133 598 741 c 0
 599 692 600 643 600 596 c 2
 600 330 l 2
 600 291 600 256 601 225 c 2
 601 173 l 1
 765 447 822 722 835 830 c 0
 843 862 872 872 892 872 c 0
 912 872 941 861 948 830 c 0
 1022 487 1149 133 1199 133 c 0
 1241 133 1251 788 1251 1277 c 1
 1257 1295 1278 1307 1303 1307 c 0
 1328 1307 1349 1299 1360 1281 c 1
 1357 805 1350 319 1294 92 c 0
 1275 14 1224 7 1206 7 c 0
 1149 7 1117 41 1048 172 c 0
 968 326 910 542 899 584 c 1
 809 217 646 7 568 7 c 0
 496 7 488 60 488 350 c 2
 488 556 l 2
 488 678 483 799 481 860 c 1
 461 835 424 796 302 796 c 0
 155 796 41 901 41 1061 c 0
 41 1210 143 1327 295 1327 c 0
310 893 m 0
 381 893 456 956 462 1060 c 0
 460 1122 431 1222 306 1222 c 0
 248 1222 152 1188 152 1061 c 0
 152 927 253 893 310 893 c 0
EndSplineSet
EndChar
StartChar: uni0E1F
Encoding: 3615 3615 35
Width: 1499
VWidth: 3622
Flags: W
HStem: 10 133<1162.67 1237.25> 801 103<193.364 388.939> 1233 106<187.589 409.693>
VStem: 39 106<954.232 1189.55> 485 109<165.19 237.004 237.004 618.754 618.754 793.262 793.262 872> 1231 120<581.68 1432.13>
Fore
1231 1038 m 2
 1231 1477 1218 1742 1206 1917 c 0
 1206 1958 1227 1974 1250 1974 c 0
 1278 1974 1308 1953 1312 1924 c 0
 1335 1741 1351 1392 1351 999 c 2
 1351 914 l 2
 1351 553 1325 193 1297 76 c 0
 1287 32 1266 10 1219 10 c 0
 1113 10 993 216 877 610 c 1
 829 378 692 11 582 11 c 0
 486 11 485 169 485 561 c 2
 485 716 l 2
 485 778 483 778 483 872 c 1
 437 821 368 801 306 801 c 0
 163 801 39 913 39 1072 c 0
 39 1223 143 1339 299 1339 c 0
 590 1339 594 1149 594 778 c 0
 594 598 596 588 596 462 c 0
 604 205 608 165 608 159 c 1
 624 159 796 593 815 854 c 0
 826 907 863 911 874 911 c 0
 897 911 925 895 932 860 c 0
 959 643 1142 143 1203 143 c 0
 1214 143 1231 803 1231 884 c 2
 1231 1038 l 2
306 904 m 0
 393 904 452 975 456 1070 c 0
 456 1153 408 1233 302 1233 c 0
 239 1233 145 1198 145 1072 c 0
 145 976 209 904 306 904 c 0
EndSplineSet
EndChar
StartChar: uni0E20
Encoding: 3616 3616 36
Width: 1386
VWidth: 3622
Flags: W
HStem: -1 92<150.049 319.806> 334 92<146.807 334.701> 1240 104<455.107 972.22>
VStem: 24 98<119.467 308.951> 380 108<389.135 481.954 481.954 763.771> 1123 112<37 490.372 490.372 518.007 518.007 1052.85>
Fore
1178 7 m 256
 1153 7 1113 23 1113 42 c 2
 1120 370 l 2
 1122 545 1123 574 1123 662 c 0
 1123 1086 1058 1240 771 1240 c 0
 336 1240 226 1062 207 987 c 1
 302 955 352 947 446 914 c 0
 482 900 482 754 488 587 c 2
 488 524 l 2
 488 495 488 467 487 440 c 2
 485 357 l 2
 476 189 492 100 372 33 c 0
 332 10 286 -1 241 -1 c 0
 129 -1 24 68 24 205 c 0
 24 366 134 426 238 426 c 0
 349 426 365 390 375 386 c 1
 378 453 380 513 380 566 c 2
 380 635 l 2
 380 661 371 830 363 833 c 1
 364 833 l 1
 258 890 87 882 87 960 c 0
 98 1130 325 1344 727 1344 c 0
 870 1344 1003 1314 1081 1256 c 0
 1224 1140 1235 903 1235 713 c 2
 1235 676 l 2
 1235 661 1224 422 1224 37 c 1
 1209 17 1193 7 1178 7 c 256
359 208 m 0
 359 252 339 334 240 334 c 0
 163 334 122 275 122 215 c 0
 122 140 182 91 245 91 c 0
 317 91 359 144 359 208 c 0
EndSplineSet
EndChar
StartChar: uni0E21
Encoding: 3617 3617 37
Width: 1282
VWidth: 3622
Flags: W
HStem: -18 89<223.017 454.784> 387 94<220.218 404.866> 774 94<217.207 460.126> 1212 90<224.478 454.604>
VStem: 83 96<113.911 347.643 908.661 1161.95> 499 101<115.901 305.688 449 613.864> 508 115<886.154 1156.1> 1031 101<116.426 312 312 392.454 392.454 562.315 562.315 1054.33 1054.33 1058.18 1058.18 1257.29>
Fore
340 71 m 0xfd
 471 71 499 161 499 299 c 0
 499 316 497 324 497 341 c 1
 442 374 386 387 338 387 c 0
 249 387 179 343 179 221 c 0
 179 117 261 71 340 71 c 0xfd
600 306 m 1
 600 119 550 -18 348 -18 c 0
 195 -18 83 82 83 219 c 0
 83 324 162 481 336 481 c 0
 383 481 434 473 492 449 c 1
 508 817 l 1
 479 798 410 774 335 774 c 0
 127 774 74 956 74 1037 c 0
 74 1119 126 1302 333 1302 c 0
 519 1302 615 1194 623 1042 c 2xfb
 600 421 l 1
 645 390 685 360 721 332 c 2
 826 248 l 2
 868 214 867 212 1044 88 c 1
 1036 96 1031 205 1031 312 c 2
 1031 449 l 2
 1031 521 1031 596 1030 676 c 2
 1028 906 l 2
 1026 1000 1024 1124 1024 1210 c 0
 1024 1253 1061 1258 1076 1258 c 0
 1126 1258 1134 1232 1134 1145 c 0
 1134 1101 1132 1042 1132 962 c 2
 1132 472 l 2
 1132 418 1131 365 1130 313 c 2
 1125 64 l 1
 1111 -0 1063 -12 1040 -12 c 0
 1008 -12 987 -7 882 80 c 2
 653 266 l 2
 638 279 620 292 600 306 c 1
174 1031 m 0
 174 956 207 868 341 868 c 0
 409 868 515 921 515 1026 c 0
 515 1175 396 1212 323 1212 c 0
 230 1212 174 1121 174 1031 c 0
EndSplineSet
EndChar
StartChar: uni0E22
Encoding: 3618 3618 38
Width: 1261
VWidth: 3622
Flags: MW
HStem: 0 92<409.252 854.667> 580 100<357 434.67 512.541 572.62> 587 92<387.529 508.674> 840 96<301.384 531.377> 1247 99<292.863 530.147>
VStem: 145 90<851.511 916> 157 96<220.108 521.9 849.229 1206.51> 571 99<973.684 1207.16> 1017 103<232.586 384 384 1199.62 1199.62 1345.5>
Fore
551 694 m 0
 571 694 575 658 575 648 c 0
 575 609 541 587 502 587 c 2
 357 580 l 1
 287 522 253 481 253 347 c 0
 253 165 468 92 612 92 c 0
 798 92 1017 150 1017 384 c 2
 1017 1098 l 2
 1017 1179 1016 1246 1014 1300 c 0
 1014 1331 1031 1346 1065 1346 c 0
 1102 1346 1120 1332 1120 1304 c 2
 1120 386 l 2
 1112 144 976 0 580 0 c 0
 423 0 157 97 157 330 c 0
 157 515 220 594 258 630 c 1
 150 676 145 882 145 1005 c 0
 145 1170 201 1346 425 1346 c 0
 629 1346 670 1159 670 1093 c 0
 670 947 575 840 432 840 c 0
 355 840 290 865 235 916 c 1
 242 759 283 680 386 680 c 0
 419 680 428 679 435 679 c 0
 492 679 541 694 551 694 c 0
423 1247 m 0
 287 1247 253 1166 253 1086 c 0
 253 979 358 936 428 936 c 0
 524 936 571 1009 571 1088 c 0
 571 1147 542 1247 423 1247 c 0
EndSplineSet
EndChar
StartChar: uni0E23
Encoding: 3619 3619 39
Width: 1261
VWidth: 3622
Flags: W
HStem: 4 99<519.08 721.698> 357 101<514.742 715.437> 769 98<173.918 363.223 363.223 538.992 538.992 737.915> 934 95<932.939 1008.91> 1187 104<350.443 701.358>
VStem: 50 104<870.301 999.455> 384 104<133.473 330.35> 780 94<387 434.831 434.831 658.649>
Fore
978 1029 m 0
 1035 1029 980 1134 1061 1134 c 0
 1098 1134 1115 1106 1115 1071 c 0
 1115 1013 1067 934 982 934 c 0
 810 934 826 1187 509 1187 c 0
 298 1187 154 975 154 888 c 0
 154 870 188 865 302 865 c 0
 351 865 364 867 425 867 c 0
 517 867 540 868 654 868 c 0
 793 868 838 796 862 684 c 0
 870 648 874 612 874 573 c 2
 867 244 l 2
 867 52 725 4 628 4 c 0
 479 4 384 130 384 235 c 0
 384 333 468 458 614 458 c 0
 686 458 747 429 784 387 c 1
 784 397 780 445 780 484 c 2
 780 531 l 2
 780 742 737 769 547 769 c 2
 260 766 l 2
 96 766 50 776 50 877 c 0
 50 1028 231 1291 509 1291 c 0
 860 1291 931 1029 978 1029 c 0
488 235 m 0
 488 165 532 103 617 103 c 0
 707 103 748 162 748 223 c 0
 748 289 701 357 617 357 c 0
 532 357 488 301 488 235 c 0
EndSplineSet
EndChar
StartChar: uni0E24
Encoding: 3620 3620 40
Width: 1379
VWidth: 3622
Flags: W
HStem: -1 97<389.917 572.71> 336 91<405.216 576.344> 1231 103<473.907 834.401>
VStem: 262 104<146.239 266.756> 603 100<124.642 309.212> 1109 108<-699.713 -296.234> 1128 103<-27.9215 651.091>
Fore
471 427 m 0xfa
 643 427 703 314 703 214 c 0
 703 137 640 -1 479 -1 c 0
 375 -1 262 83 262 214 c 0
 264 252 267 297 272 348 c 2
 285 508 l 1
 294 594 l 1
 308 768 l 2
 310 802 312 820 315 821 c 1
 298 832 276 840 250 848 c 2
 114 884 l 2
 87 891 19 909 19 948 c 0
 19 1033 173 1334 674 1334 c 0
 1140 1334 1191 1038 1212 816 c 0
 1225 689 1231 527 1231 329 c 0xfa
 1231 115 1225 -164 1222 -327 c 2
 1217 -639 l 2
 1217 -684 1206 -701 1159 -701 c 0
 1128 -701 1112 -682 1109 -644 c 0xfc
 1115 -379 1128 349 1128 350 c 2
 1128 407 l 2
 1128 881 1065 1056 976 1139 c 0
 893 1213 759 1231 687 1231 c 0
 596 1231 268 1230 143 980 c 1
 389 904 l 1
 409 888 414 853 414 799 c 0
 414 759 413 730 382 407 c 1
 406 420 435 427 471 427 c 0xfa
481 96 m 0
 554 96 597 149 603 223 c 0
 600 287 552 336 481 336 c 0
 386 336 366 249 366 214 c 256
 366 187 378 96 481 96 c 0
EndSplineSet
EndChar
StartChar: uni0E25
Encoding: 3621 3621 41
Width: 1438
VWidth: 3622
Flags: W
HStem: 0 99<386.789 589.228> 343 105<412.593 570.703> 752 99<553.526 797.61> 1247 106<509.825 895.147>
VStem: 149 102<667.301 986.608> 262 97<127.328 314.099> 623 97<131.448 287.762> 1185 104<155.815 532.861 532.861 740.356>
Fore
1291 458 m 0
 1291 89 1250 18 1189 18 c 0
 1162 18 1107 32 1050 196 c 2
 956 460 l 2
 857 729 738 752 683 752 c 0
 621 752 423 688 375 417 c 1
 417 442 473 448 497 448 c 0
 662 448 720 295 720 225 c 0
 720 29 554 0 497 0 c 0
 439 0 262 28 262 218 c 2
 262 271 l 2
 262 515 389 851 677 851 c 0
 842 851 988 732 1090 404 c 2
 1156 178 l 2
 1165 150 1172 136 1178 136 c 0
 1182 136 1185 206 1185 490 c 2
 1185 568 l 2
 1185 722 1181 958 1021 1114 c 0
 1003 1132 884 1247 715 1247 c 0
 417 1247 279 1043 251 713 c 0
 247 681 220 663 195 663 c 0
 171 663 149 678 149 713 c 0
 183 1236 485 1353 709 1353 c 256
 941 1353 1289 1221 1289 665 c 2
 1289 605 l 2
 1289 576 1291 546 1291 458 c 0
493 343 m 0
 437 343 359 309 359 228 c 0
 359 145 414 99 497 99 c 0
 573 99 623 166 623 228 c 0
 623 243 614 269 593 304 c 0
 574 330 540 343 493 343 c 0
EndSplineSet
EndChar
StartChar: uni0E26
Encoding: 3622 3622 42
Width: 1376
VWidth: 3622
Flags: W
HStem: 0 95<148.156 330.249> 337 89<144.587 332.317> 1240 103<493.078 964.274>
VStem: 24 95<123.079 311.717> 356 102<181.417 297.823> 380 96<389.135 485.421 485.421 763.771> 1118 108<-670 -371.146 -371.146 -331.738 -331.738 106.492 106.492 259 259 352.615 352.615 515.092 515.092 1015.86>
Fore
375 386 m 1xfa
 378 453 380 513 380 566 c 2
 380 635 l 2
 380 661 371 830 363 833 c 1
 364 833 l 1
 273 886 90 881 90 960 c 0
 99 1062 319 1343 744 1343 c 0
 1179 1343 1229 1001 1229 555 c 2
 1229 424 l 2
 1229 379 1229 331 1228 281 c 2
 1228 210 l 2
 1228 127 1226 65 1226 4 c 2
 1226 -173 l 2
 1226 -331 1224 -363 1224 -489 c 2
 1224 -670 l 1
 1207 -693 1192 -704 1178 -704 c 0
 1161 -704 1116 -686 1116 -665 c 2
 1116 -513 l 2
 1116 -399 1118 -370 1118 -228 c 2
 1118 210 l 2
 1118 249 1120 269 1120 308 c 2
 1122 450 l 2
 1123 495 1123 539 1123 580 c 0
 1123 1045 1080 1240 769 1240 c 0
 419 1240 246 1069 212 987 c 1
 301 956 348 946 437 914 c 0
 467 901 476 816 476 587 c 0xf6
 476 509 473 430 469 356 c 2
 458 189 l 2
 452 65 344 0 238 0 c 0
 130 0 24 66 24 204 c 0
 24 373 141 426 238 426 c 0
 348 426 366 389 375 386 c 1xfa
356 222 m 0xfa
 356 285 309 337 237 337 c 0
 160 337 119 278 119 218 c 0
 119 154 166 95 246 95 c 0
 337 95 356 191 356 222 c 0xfa
EndSplineSet
EndChar
StartChar: uni0E27
Encoding: 3623 3623 43
Width: 1043
VWidth: 3622
Flags: W
HStem: -5 100<564.82 750.561> 337 97<558.413 731.907> 1265 101<263.977 655.358>
VStem: 23 104<888.746 1117.94> 432 102<126.106 313.473> 783 112<128.441 305.798 389 389> 796 106<633 676.023 676.023 726.046 726.046 1112.61>
Fore
451 1366 m 0xfa
 847 1366 902 1155 902 801 c 2
 902 719 l 2xfa
 902 691 901 662 900 633 c 2
 895 209 l 2xfc
 885 60 732 -5 651 -5 c 0
 584 -5 432 39 432 213 c 0
 432 333 521 434 646 434 c 0
 698 434 745 424 789 389 c 1
 796 633 l 2
 798 697 799 757 799 819 c 0
 799 1103 754 1265 451 1265 c 0
 293 1265 138 1206 127 922 c 0
 125 876 88 867 68 867 c 0
 25 867 23 905 23 937 c 0
 23 1207 168 1366 451 1366 c 0xfa
649 337 m 0
 586 337 534 291 534 223 c 0
 534 140 599 95 662 95 c 0
 740 95 783 176 783 216 c 0xfc
 783 251 751 337 649 337 c 0
EndSplineSet
EndChar
StartChar: uni0E28
Encoding: 3624 3624 44
Width: 1448
VWidth: 3622
Flags: W
HStem: 11 21G<128.5 209> 421 90<543.886 717.883> 755 92<519.704 733.932> 1243 103<511.609 882.117>
VStem: 78 102<143.43 454.615 454.615 543.685 546.31 819.139> 754 90<545.687 731.983> 1164 108<48 118.919 118.919 864.213> 1371 99<1372.96 1745.98 1743.96 1748 1748 1852>
Fore
617 847 m 0
 761 847 844 768 844 640 c 0
 844 531 763 421 624 421 c 0
 595 421 492 436 446 490 c 1
 354 192 268 11 150 11 c 0
 107 11 78 118 78 545 c 0
 78 1209 433 1346 670 1346 c 0
 776 1346 1031 1330 1166 1083 c 1
 1298 1238 1371 1427 1371 1684 c 0
 1371 1717 1370 1767 1358 1848 c 1
 1365 1880 1381 1892 1399 1892 c 0
 1435 1892 1456 1852 1456 1852 c 1
 1468 1799 1470 1742 1470 1679 c 0
 1470 1408 1368 1150 1215 992 c 1
 1252 884 1272 753 1272 407 c 0
 1272 398 1272 122 1261 48 c 1
 1249 16 1232 -1 1211 -1 c 0
 1173 -1 1164 29 1164 34 c 2
 1167 430 l 2
 1167 870 1084 1243 670 1243 c 0
 462 1243 198 1011 184 585 c 0
 184 559 182 533 182 499 c 0
 181 472 180 442 180 410 c 2
 180 313 l 2
 180 232 179 130 172 126 c 1
 222 133 333 434 364 578 c 0
 404 742 472 847 617 847 c 0
624 755 m 0
 570 755 492 723 492 640 c 0
 492 537 562 511 628 511 c 0
 702 511 754 583 754 649 c 0
 754 704 717 755 624 755 c 0
EndSplineSet
EndChar
StartChar: uni0E29
Encoding: 3625 3625 45
Width: 1528
VWidth: 3622
Flags: W
HStem: 2 106<608.981 971.169 971.169 1005.8 988.484 1153.83 1127.41 1180.25> 448 97<985.069 1142.58 1134.52 1150.64 1150.64 1179> 795 102<215.055 461.057> 819 95<829.87 951.208> 1229 94<227.26 456.861>
VStem: 78 97<934.71 1173.64> 508 109<111 511.254 511.254 568.231 568.231 788.931 788.931 840.48 944.046 1177.69> 711 96<651.289 813.615> 988 89<660.139 803.684> 1173 102<649 956.023 956.023 1048.8 1048.8 1146.92 1146.92 1290.91> 1180 117<111.035 257.154 240.885 273.423 273.423 386.197 386.197 455 611 630 630 854> 1373 100<655.53 913.45>
Back
342 795 m 0xefb0
 125 795 78 979 78 1058 c 0
 78 1176 160 1323 334 1323 c 0
 598 1323 615 1122 616 976 c 0
 617 938 617 891 617 838 c 2
 617 722 l 2
 616 600 613 416 605 111 c 1
 618 109 633 108 650 108 c 2
 916 108 l 2
 989 108 1035 113 1095 113 c 0
 1115 113 1136 112 1160 111 c 0
 1175 111 1185 120 1185 182 c 0xefb0
 1185 238 1180 285 1180 366 c 0
 1180 437 1180 493 1179 536 c 2
 1174 854 l 2
 1174 936 1173 977 1173 1058 c 0
 1173 1147 1171 1164 1171 1235 c 0
 1171 1289 1212 1296 1223 1296 c 0
 1249 1296 1275 1273 1275 1215 c 0xefd0
 1279 1098 1288 901 1288 862 c 2
 1293 649 l 2
 1296 517 1297 384 1297 318 c 0
 1297 265 1300 212 1300 164 c 0
 1300 72 1289 2 1229 2 c 0
 1189 3 1149 3 1109 3 c 0
 1028 3 942 2 832 2 c 0
 503 2 499 2 499 42 c 2
 504 345 l 1
 508 506 l 2
 508 552 509 594 510 630 c 2
 512 736 l 2
 513 770 513 805 513 842 c 1
 484 816 416 795 342 795 c 0xefb0
341 1229 m 0
 203 1229 175 1101 175 1043 c 0
 175 969 217 897 343 897 c 0
 414 897 509 946 509 1047 c 0
 509 1176 423 1229 341 1229 c 0
895 914 m 0xdf90
 1004 914 1077 820 1077 734 c 0
 1077 666 1034 600 955 568 c 1
 990 554 1037 545 1087 545 c 0
 1316 545 1373 682 1373 856 c 0
 1373 893 1392 914 1426 914 c 0
 1457 914 1473 896 1473 860 c 0
 1473 531 1283 448 1089 448 c 0
 880 448 711 557 711 739 c 0
 711 847 802 914 895 914 c 0xdf90
988 738 m 0
 988 803 917 819 876 819 c 0
 848 819 807 805 807 739 c 0
 807 644 879 642 883 642 c 0
 948 642 988 692 988 738 c 0
EndSplineSet
Fore
988 738 m 0xdf90
 988 803 917 819 876 819 c 0
 848 819 807 805 807 739 c 0
 807 644 879 642 883 642 c 0
 948 642 988 692 988 738 c 0xdf90
895 914 m 0
 1004 914 1077 820 1077 734 c 0
 1077 666 1034 600 955 568 c 1
 990 554 1037 545 1087 545 c 0
 1121 545 1152 548 1179 554 c 1
 1174 854 l 2
 1174 936 1173 977 1173 1058 c 0
 1173 1147 1171 1164 1171 1235 c 0
 1171 1289 1212 1296 1223 1296 c 0
 1249 1296 1275 1273 1275 1215 c 0
 1279 1098 1288 901 1288 862 c 2
 1293 649 l 2
 1293 636 1294 624 1294 611 c 1
 1354 667 1373 756 1373 856 c 0
 1373 893 1392 914 1426 914 c 0xdfd0
 1457 914 1473 896 1473 860 c 0
 1473 654 1399 545 1296 492 c 1
 1297 420 1297 357 1297 318 c 0
 1297 265 1300 212 1300 164 c 0
 1300 72 1289 2 1229 2 c 0
 1189 3 1149 3 1109 3 c 0
 1028 3 942 2 832 2 c 0
 503 2 499 2 499 42 c 2
 504 345 l 1
 508 506 l 2
 508 552 509 594 510 630 c 2
 512 736 l 2
 513 770 513 805 513 842 c 1
 484 816 416 795 342 795 c 0
 125 795 78 979 78 1058 c 0
 78 1176 160 1323 334 1323 c 0
 598 1323 615 1122 616 976 c 0
 617 938 617 891 617 838 c 2
 617 722 l 2
 616 600 613 416 605 111 c 1
 618 109 633 108 650 108 c 2
 916 108 l 2
 989 108 1035 113 1095 113 c 0
 1115 113 1136 112 1160 111 c 0
 1175 111 1185 120 1185 182 c 0
 1185 238 1180 285 1180 366 c 2
 1180 455 l 1xefb0
 1150 450 1120 448 1089 448 c 0
 880 448 711 557 711 739 c 0
 711 847 802 914 895 914 c 0
341 1229 m 0
 203 1229 175 1101 175 1043 c 0
 175 969 217 897 343 897 c 0xef90
 414 897 509 946 509 1047 c 0
 509 1176 423 1229 341 1229 c 0
EndSplineSet
EndChar
StartChar: uni0E2A
Encoding: 3626 3626 46
Width: 1538
VWidth: 3622
Flags: W
HStem: 0 104<462.928 651.537> 350 105<481.728 658.202> 755 103<624.56 854.311> 1257 101<562.666 952.777>
VStem: 168 108<723.045 942.178> 338 94<133.029 417.387> 686 96<136.048 294.826> 1229 107<281.082 349.625 349.625 935.15> 1479 105<1634.26 1864.83>
Fore
168 762 m 0
 168 1072 370 1358 769 1358 c 0
 987 1358 1102 1265 1132 1240 c 1
 1333 1354 1437 1574 1479 1797 c 0
 1488 1863 1529 1868 1541 1868 c 0
 1569 1868 1584 1850 1584 1806 c 0
 1584 1732 1508 1322 1206 1159 c 1
 1279 1062 1336 975 1336 501 c 0
 1336 303 1325 18 1236 18 c 0
 1208 18 1151 34 1096 200 c 0
 1005 477 920 755 746 755 c 0
 641 755 501 646 451 428 c 1
 486 445 527 455 568 455 c 0
 713 455 782 337 782 219 c 0
 782 50 655 0 564 0 c 0
 338 0 338 168 338 248 c 0
 338 583 503 858 739 858 c 0
 814 858 997 836 1116 477 c 2
 1222 138 l 1
 1224 174 l 2
 1228 243 1229 380 1229 518 c 2
 1229 662 l 2
 1229 1124 950 1257 765 1257 c 0
 639 1257 331 1201 276 764 c 1
 265 726 232 722 221 722 c 0
 185 722 168 735 168 762 c 0
561 350 m 0
 498 350 432 312 432 235 c 0
 432 150 489 104 564 104 c 0
 627 104 686 163 686 235 c 0
 686 240 679 350 561 350 c 0
EndSplineSet
EndChar
StartChar: uni0E2B
Encoding: 3627 3627 47
Width: 1452
VWidth: 3622
Flags: W
HStem: 745 99<203.094 445.619> 1219 101<211.531 456.738> 1240 95<918.495 1154.19>
VStem: 38 109<898.87 1155.5> 513 111<891.438 1160.83> 768 99<963.851 1185.71> 1116 101<-10.2115 61.5461 61.5461 144.292 144.292 168.431 168.431 635.05> 1204 101<932.824 1190.6>
Fore
324 1320 m 0xde
 468 1320 624 1221 624 1006 c 0
 624 921 607 770 574 580 c 2
 545 412 l 2
 521 291 502 169 495 108 c 1
 534 205 570 229 651 347 c 2
 934 791 l 1
 867 824 822 866 799 918 c 0
 778 971 768 1021 768 1068 c 0
 768 1217 863 1335 1044 1335 c 0
 1181 1335 1305 1239 1305 1075 c 0xbd
 1305 937 1246 805 1106 789 c 1
 1205 639 1221 467 1221 296 c 0
 1221 210 1217 124 1217 41 c 1
 1210 -7 1175 -12 1164 -12 c 0
 1147 -12 1116 -1 1116 41 c 0
 1117 56 1117 69 1117 82 c 0
 1117 124 1114 156 1114 207 c 0
 1114 516 1082 660 1021 722 c 1
 988 683 954 634 919 576 c 2
 737 267 l 2
 669 157 576 -7 472 -7 c 0
 442 -7 395 3 387 78 c 1
 407 245 l 2
 442 529 473 646 476 662 c 2
 484 708 l 2
 486 725 490 748 493 777 c 1
 453 754 418 745 309 745 c 0
 127 745 38 886 38 1028 c 0
 38 1191 152 1320 324 1320 c 0xde
147 1028 m 0
 147 936 197 844 329 844 c 0
 401 844 448 860 469 891 c 0
 494 930 508 979 513 1038 c 0
 513 1117 458 1219 354 1219 c 0xdc
 218 1219 147 1140 147 1028 c 0
1204 1058 m 0xbd
 1204 1152 1156 1240 1037 1240 c 0
 919 1240 867 1150 867 1061 c 0
 867 972 919 884 1008 884 c 0
 1153 884 1204 954 1204 1058 c 0xbd
EndSplineSet
EndChar
StartChar: uni0E2C
Encoding: 3628 3628 48
Width: 1659
VWidth: 3622
Flags: W
HStem: 11 118<1166.55 1272.34> 801 103<196.028 408.928> 1120 108<1018.32 1188.53> 1233 106<186.934 414.465> 1449 101<1032.26 1179.4>
VStem: 41 104<952.442 1189.96> 485 109<362.176 585 585 717.723 717.723 872> 893 108<1267.91 1418.77> 1243 107<137.918 1003.32 1003.32 1146>
Fore
1350 838 m 2
 1350 221 1325 11 1224 11 c 0
 1106 11 981 254 879 610 c 1
 822 356 691 11 582 11 c 0
 486 11 486 174 486 585 c 2
 486 654 l 2
 486 706 485 718 485 782 c 2
 485 872 l 1
 436 822 369 801 306 801 c 0
 147 801 41 932 41 1072 c 0
 41 1222 144 1339 299 1339 c 0
 586 1339 594 1160 594 801 c 2
 594 734 l 2
 594 368 612 175 612 142 c 1
 614 145 725 388 778 646 c 0
 807 770 814 812 817 854 c 1
 829 883 849 897 876 897 c 0
 903 897 912 884 932 849 c 1
 936 826 959 688 1061 407 c 2
 1105 301 l 2
 1120 264 1176 129 1206 129 c 0
 1221 129 1243 297 1243 801 c 2
 1243 861 l 2
 1243 960 1242 1039 1236 1146 c 1
 1167 1122 1138 1120 1115 1120 c 0
 932 1120 893 1278 893 1344 c 0
 893 1432 956 1550 1124 1550 c 0
 1281 1550 1324 1412 1332 1381 c 1
 1374 1417 l 2
 1404 1444 1411 1468 1447 1468 c 0
 1477 1468 1505 1445 1505 1416 c 0
 1505 1359 1389 1274 1389 1274 c 1
 1350 1249 l 1
 1350 838 l 2
306 904 m 0
 393 904 456 979 456 1070 c 0
 456 1163 404 1233 302 1233 c 0
 241 1233 145 1201 145 1072 c 0
 145 976 209 904 306 904 c 0
1121 1228 m 0
 1154 1228 1235 1273 1235 1327 c 0
 1235 1423 1143 1449 1121 1449 c 0
 1044 1449 1001 1379 1001 1321 c 0
 1001 1293 1017 1228 1121 1228 c 0
EndSplineSet
Substitution2: "Single Substitution lookup 22 subtable" uni0E2C.alt1
Substitution2: "Single Substitution lookup 22 subtable" uni0E2C.alt1
EndChar
StartChar: uni0E2D
Encoding: 3629 3629 49
Width: 1282
VWidth: 3622
Flags: W
HStem: -7 106<357.33 940.051> 333 100<391.919 593.879> 730 103<353.026 576.57> 1236 110<464.054 739.42>
VStem: 159 107<184.156 345.531 264.844 438.653 783.72 972.068> 619 107<457.516 690.244> 1031 108<263.847 899.01>
Fore
491 433 m 0
 555 433 619 460 619 570 c 0
 619 682 546 730 471 730 c 0
 391 730 310 677 310 591 c 0
 310 485 412 433 491 433 c 0
266 311 m 0
 266 116 428 99 686 99 c 0
 887 99 949 130 980 184 c 0
 1014 247 1031 330 1031 433 c 0
 1031 866 968 1055 830 1169 c 0
 764 1224 684 1236 605 1236 c 0
 402 1236 287 1008 256 817 c 1
 248 792 223 780 199 780 c 0
 176 780 147 789 147 830 c 1
 197 1149 337 1346 623 1346 c 0
 1008 1346 1139 1008 1139 433 c 0
 1139 154 1070 -7 796 -7 c 0
 400 -7 159 -5 159 348 c 0
 159 585 230 833 473 833 c 0
 635 833 726 709 726 565 c 0
 726 457 678 333 490 333 c 0
 453 333 328 336 271 442 c 1
 266 408 265 395 265 379 c 0
 265 365 266 348 266 311 c 0
EndSplineSet
EndChar
StartChar: uni0E2E
Encoding: 3630 3630 50
Width: 1289
VWidth: 3622
Flags: W
HStem: -4 103<342.853 822.815> 336 90<352.208 571.402> 729 101<371.921 570.734> 864 107<318.609 674.18> 1268 108<341.03 714.794>
VStem: 150 99<191.408 350.023 270.715 446.783> 161 106<1021.52 1201.73> 610 101<463.445 690.291> 1021 102<265.163 751.234>
Fore
267 1109 m 0xfb80
 267 1054 314 971 476 971 c 0
 608 971 765 1034 837 1151 c 1
 805 1182 667 1268 516 1268 c 0
 322 1268 267 1161 267 1109 c 0xfb80
610 571 m 0
 610 632 582 729 467 729 c 0
 376 729 303 674 303 592 c 0
 303 539 336 426 467 426 c 0
 555 426 610 490 610 571 c 0
473 864 m 0
 350 864 161 910 161 1093 c 0xfb80
 161 1246 310 1376 520 1376 c 0
 637 1376 811 1310 899 1236 c 1
 930 1275 1027 1365 1058 1557 c 0
 1060 1572 1079 1582 1099 1582 c 0
 1122 1582 1147 1568 1147 1530 c 0
 1147 1474 1127 1368 1049 1251 c 2
 1012 1198 l 2
 998 1180 986 1164 973 1150 c 1
 1117 915 1123 601 1123 433 c 0
 1123 110 998 9 784 0 c 2
 591 -4 l 2
 283 -4 150 66 150 347 c 0
 150 713 280 775 368 812 c 0
 397 824 427 830 457 830 c 0
 588 830 711 720 711 561 c 0
 711 480 654 336 474 336 c 0
 281 336 255 453 255 453 c 1
 249 419 248 395 248 374 c 0
 248 358 249 343 249 326 c 0xfd80
 249 135 397 99 598 99 c 2
 689 99 l 2
 812 99 917 106 969 184 c 0
 1004 247 1021 330 1021 433 c 0
 1021 663 994 925 893 1068 c 1
 783 924 618 864 473 864 c 0
EndSplineSet
EndChar
StartChar: uni0E2F
Encoding: 3631 3631 51
Width: 978
VWidth: 3622
Flags: W
HStem: 755 114<319.423 567.228> 1213 100<134.769 333.214>
VStem: 17 98<1003.49 1190.48> 357 105<1032.77 1189.62> 718 122<7.81433 53 53 652.5 652.5 837 1000.76 1309.15>
Fore
462 1099 m 0
 462 946 328 904 297 888 c 1
 332 875 372 869 418 869 c 0
 664 869 725 1006 725 1251 c 0
 725 1290 756 1311 784 1311 c 0
 799 1311 840 1301 840 1252 c 2
 826 53 l 2
 825 40 816 5 778 5 c 0
 741 5 715 22 715 57 c 2
 718 837 l 1
 638 766 506 755 434 755 c 0
 71 755 17 946 17 1074 c 0
 17 1221 107 1313 241 1313 c 0
 351 1313 462 1236 462 1099 c 0
357 1093 m 0
 357 1189 283 1213 236 1213 c 0
 161 1213 115 1170 115 1104 c 0
 115 1020 159 985 231 985 c 0
 332 985 357 1058 357 1093 c 0
EndSplineSet
EndChar
StartChar: uni0E30
Encoding: 3632 3632 52
Width: 953
VWidth: 3622
Flags: W
HStem: 97 98<238.43 515.246> 255 83<226.412 338.433> 492 92<204.415 338.152> 722 97<241.407 517.596> 879 83<226.366 336.658> 1116 96<206.245 338.114>
VStem: 80 92<347.27 477.599 973.583 1092.84> 347 89<347.245 481.626 971.227 1107.04> 628 106<310.322 510.973 489.977 531.97 934.462 1134.89 1114.5 1155.29>
Fore
347 1040 m 0
 347 1083 305 1116 267 1116 c 0
 243 1116 172 1103 172 1040 c 0
 172 978 225 962 267 962 c 0
 311 962 347 999 347 1040 c 0
436 1035 m 0
 436 966 396 879 258 879 c 0
 245 879 234 880 226 881 c 1
 251 844 281 819 386 819 c 256
 488 819 628 903 628 1095 c 0
 628 1108 627 1121 626 1134 c 0
 626 1159 648 1182 677 1182 c 0
 731 1182 734 1140 734 1115 c 0
 734 875 584 722 372 722 c 0
 234 722 80 779 80 1007 c 0
 80 1067 83 1212 272 1212 c 0
 375 1212 436 1122 436 1035 c 0
347 416 m 0
 347 459 305 492 267 492 c 0
 245 492 172 479 172 416 c 0
 172 354 225 338 267 338 c 0
 311 338 347 375 347 416 c 0
265 584 m 0
 364 584 436 514 436 408 c 0
 436 313 366 255 256 255 c 0
 246 255 236 255 226 256 c 1
 251 220 281 195 386 195 c 256
 487 195 628 277 628 471 c 0
 628 483 627 496 626 509 c 0
 626 535 648 557 677 557 c 0
 731 557 734 520 734 488 c 0
 734 191 514 97 379 97 c 0
 139 97 80 249 80 378 c 0
 80 533 169 584 265 584 c 0
EndSplineSet
EndChar
StartChar: uni0E31
Encoding: 3633 3633 53
Width: 0
VWidth: 3622
Flags: W
HStem: 1489 105<-568.962 -256.815> 1928 103<-767.364 -573.963>
VStem: -887 101<1709.17 1908.4> -553 106<1715.57 1907.45> -94 121<1745.25 2049.59 2005.78 2093.4>
Fore
-447 1818 m 0
 -447 1756 -472 1666 -591 1610 c 1
 -554 1599 -519 1594 -480 1594 c 0
 -196 1594 -94 1731 -94 1937 c 0
 -94 2012 -102 2033 -102 2043 c 0
 -102 2076 -69 2098 -41 2098 c 0
 13 2098 27 2047 27 1929 c 0
 27 1577 -238 1489 -455 1489 c 0
 -791 1489 -887 1686 -887 1817 c 0
 -887 1941 -777 2031 -669 2031 c 0
 -604 2031 -447 1989 -447 1818 c 0
-669 1928 m 0
 -744 1928 -786 1884 -786 1819 c 0
 -786 1710 -731 1691 -672 1691 c 0
 -586 1691 -553 1761 -553 1813 c 0
 -553 1891 -606 1928 -669 1928 c 0
EndSplineSet
Substitution2: "Single Substitution lookup 22 subtable" uni0E31.alt1
Substitution2: "Single Substitution lookup 22 subtable" uni0E31.alt1
EndChar
StartChar: uni0E32
Encoding: 3634 3634 54
Width: 999
VWidth: 3622
Flags: W
HStem: 1201 104<301.981 621.952>
VStem: 750 101<24.0151 281.185 281.185 333.5 333.5 420.585 420.585 593.694 593.694 1028.42>
Fore
851 73 m 2
 851 31 816 23 793 23 c 0
 764 23 750 39 750 73 c 2
 750 228 l 2
 750 267 751 303 752 334 c 0
 752 386 754 438 754 508 c 0
 758 577 762 652 762 725 c 0
 762 968 717 1201 469 1201 c 0
 160 1201 236 926 177 900 c 0
 166 894 154 891 143 891 c 0
 120 891 101 905 101 941 c 0
 107 1111 173 1305 462 1305 c 0
 833 1305 861 1054 861 681 c 2
 861 594 l 1
 851 73 l 2
EndSplineSet
EndChar
StartChar: uni0E33
Encoding: 3635 3635 55
Width: 999
VWidth: 3622
Flags: W
HStem: 1201 104<301.981 621.952> 1503 96<-316.829 -156.121> 1774 97<-317.357 -156.044>
VStem: -421 94<1610.14 1742.71> -147 96<1609.45 1764.3> 750 101<24.0151 281.185 281.185 333.5 333.5 420.585 420.585 593.694 593.694 1028.42>
Back
-233 1882 m 0
 -203.667 1882 -175.833 1876.33 -149.5 1865 c 128
 -123.167 1853.67 -100.5 1838.67 -81.5 1820 c 128
 -62.5 1801.33 -47.3333 1778.67 -36 1752 c 128
 -24.6667 1725.33 -19 1697.33 -19 1668 c 0
 -19 1636 -24.6667 1607 -36 1581 c 128
 -47.3333 1555 -62.5 1532.33 -81.5 1513 c 128
 -100.5 1493.67 -123.167 1478.67 -149.5 1468 c 128
 -175.833 1457.33 -203.667 1452 -233 1452 c 0
 -263.667 1452 -292.333 1457.33 -319 1468 c 128
 -345.667 1478.67 -368.667 1493.67 -388 1513 c 128
 -407.333 1532.33 -422.667 1555 -434 1581 c 128
 -445.333 1607 -451 1636 -451 1668 c 0
 -451 1697.33 -445.333 1725.33 -434 1752 c 128
 -422.667 1778.67 -407.333 1801.33 -388 1820 c 128
 -368.667 1838.67 -345.667 1853.67 -319 1865 c 128
 -292.333 1876.33 -263.667 1882 -233 1882 c 0
-241 1778 m 0
 -275 1776.67 -301.167 1765 -319.5 1743 c 128
 -337.833 1721 -347 1696 -347 1668 c 0
 -347 1634.67 -336.667 1607.17 -316 1585.5 c 128
 -295.333 1563.83 -267.667 1553 -233 1553 c 0
 -201.667 1553 -175.333 1563.83 -154 1585.5 c 128
 -132.667 1607.17 -122 1634.67 -122 1668 c 0
 -122 1698.67 -132.333 1724.67 -153 1746 c 128
 -173.667 1767.33 -203 1778 -241 1778 c 0
96 941 m 0
 100.667 1054.33 131.167 1143.33 187.5 1208 c 128
 243.833 1272.67 333.333 1305 456 1305 c 0
 552.667 1305 627.833 1288.33 681.5 1255 c 128
 735.167 1221.67 775 1176.67 801 1120 c 128
 827 1063.33 842.667 997.167 848 921.5 c 128
 853.333 845.833 856 765.667 856 681 c 2
 856 594 l 1
 845 73 l 2
 845 56.3333 841 44.5 833 37.5 c 128
 825 30.5 812.667 25.6667 796 23 c 0
 762 19.6667 745 36.3333 745 73 c 0
 745 168 745 168 745 227.5 c 128
 745 267.167 745.333 302.667 746 334 c 0
 746 355.333 746.333 382.5 747 415.5 c 128
 747.667 448.5 748 479.333 748 508 c 0
 750.667 543.333 752.5 579.833 753.5 617.5 c 128
 754.5 655.167 755.667 694.667 757 736 c 0
 759.667 823.333 752 899.333 734 964 c 0
 726 997.333 715.167 1028.33 701.5 1057 c 128
 687.833 1085.67 670.333 1110.67 649 1132 c 128
 627.667 1153.33 602 1170.17 572 1182.5 c 128
 542 1194.83 505.667 1201 463 1201 c 0
 417 1199.67 378.167 1193.5 346.5 1182.5 c 128
 314.833 1171.5 288.667 1155 268 1133 c 128
 247.333 1111 231.167 1083.17 219.5 1049.5 c 128
 207.833 1015.83 199 976 193 930 c 1
 190.333 923.333 187.5 917.333 184.5 912 c 128
 181.5 906.667 177.333 902.667 172 900 c 0
 158.667 893.333 147.333 890 138 890 c 0
 133.333 890 125.167 893.167 113.5 899.5 c 128
 101.833 905.833 96 919.667 96 941 c 0
EndSplineSet
Refer: 77 3661 N 1 0 0 1 0 0 2
Refer: 54 3634 N 1 0 0 1 0 0 2
Substitution2: "Single Substitution lookup 22 subtable" uni0E33.alt1
Substitution2: "Single Substitution lookup 22 subtable" uni0E33.alt1
EndChar
StartChar: uni0E34
Encoding: 3636 3636 56
Width: 0
VWidth: 3622
Flags: W
HStem: 1450 96<-977.309 -553.567> 1869 87<-851.104 -516.089>
VStem: -1128 90<1565.07 1701.92> -255 117<1531.37 1615.29>
Fore
-792 1450 m 0
 -1060 1450 -1128 1507 -1128 1593 c 0
 -1128 1775 -884 1956 -693 1956 c 0
 -491 1956 -296 1805 -182 1643 c 0
 -146 1600 -138 1568 -138 1549 c 0
 -138 1495 -186 1484 -216 1484 c 0
 -418 1475 -619 1450 -792 1450 c 0
-679 1869 m 0
 -863 1869 -1038 1709 -1038 1590 c 0
 -1038 1555 -870 1546 -736 1546 c 0
 -553 1546 -255 1565 -255 1577 c 0
 -255 1588 -448 1869 -679 1869 c 0
EndSplineSet
Substitution2: "Single Substitution lookup 22 subtable" uni0E34.alt1
Substitution2: "Single Substitution lookup 22 subtable" uni0E34.alt1
EndChar
StartChar: uni0E35
Encoding: 3637 3637 57
Width: 0
VWidth: 3622
Flags: W
HStem: 1457 98<-1087.9 -491.307> 1874 89<-904.866 -553.537>
VStem: -1180 92<1573.95 1714.74> -294 126<1882.35 2080.81>
Fore
-863 1457 m 0
 -1054 1457 -1180 1497 -1180 1597 c 0
 -1180 1780 -940 1963 -743 1963 c 0
 -557 1963 -379 1828 -279 1709 c 1
 -294 2041 l 2
 -294 2070 -278 2084 -246 2084 c 0
 -174 2084 -209 2026 -180 1668 c 0
 -175 1615 -168 1582 -168 1559 c 0
 -168 1539 -173 1526 -191 1512 c 0
 -233 1478 -220 1505 -539 1475 c 0
 -733 1459 -798 1457 -863 1457 c 0
-1088 1597 m 0
 -1088 1577 -1008 1555 -785 1555 c 0
 -517 1555 -394 1565 -297 1576 c 1
 -374 1751 -567 1874 -733 1874 c 0
 -904 1874 -1088 1730 -1088 1597 c 0
EndSplineSet
Substitution2: "Single Substitution lookup 22 subtable" uni0E35.alt1
Substitution2: "Single Substitution lookup 22 subtable" uni0E35.alt1
EndChar
StartChar: uni0E36
Encoding: 3638 3638 58
Width: 0
VWidth: 3622
Flags: W
HStem: 1449 606<-842 -292 -292 -292> 1449 92<-1125.22 -640.61> 1868 92<-936.353 -663.962> 1955 100<-360.063 -213.259>
VStem: -1217 89<1554.87 1694.05> -198 92<1758.66 1942.52>
Fore
-476 1859 m 1x2c
 -471 1975 -402 2055 -292 2055 c 0
 -176 2055 -106 1977 -106 1852 c 0
 -106 1736 -171 1659 -269 1647 c 1
 -262 1638 -225 1584 -225 1542 c 0
 -225 1506 -251 1487 -302 1484 c 2
 -421 1472 l 2
 -511 1464 -699 1449 -842 1449 c 0x8c
 -1040 1449 -1217 1476 -1217 1583 c 0
 -1217 1761 -987 1960 -784 1960 c 0
 -726 1960 -605 1946 -476 1859 c 1x2c
-1128 1581 m 0
 -1128 1557 -1064 1541 -851 1541 c 256
 -770 1541 -682 1544 -589 1552 c 0
 -515 1565 -350 1552 -333 1581 c 1
 -443 1694 l 2
 -501 1752 -636 1868 -780 1868 c 0x6c
 -920 1868 -1120 1732 -1128 1581 c 0
-288 1743 m 0
 -236 1743 -198 1793 -198 1850 c 256
 -198 1904 -228 1955 -283 1955 c 0x1c
 -362 1955 -377 1882 -377 1848 c 0
 -377 1779 -332 1743 -288 1743 c 0
EndSplineSet
Substitution2: "Single Substitution lookup 22 subtable" uni0E36.alt1
Substitution2: "Single Substitution lookup 22 subtable" uni0E36.alt1
EndChar
StartChar: uni0E37
Encoding: 3639 3639 59
Width: 0
VWidth: 3622
Flags: MW
HStem: 1457 96<-1083.91 -434.995> 1875 88<-900.545 -552.474>
VStem: -1173 89<1572.38 1710.9> -483 106<1958.13 2085> -285 90<1920.75 2082.96> -272 92<1695.64 1885.38>
Fore
-838 1457 m 0
 -1017 1457 -1173 1485 -1173 1597 c 0
 -1173 1771 -940 1963 -736 1963 c 0
 -570.466 1963 -510 1908 -471 1878 c 1
 -483 2077 l 2
 -483 2125 -448 2131 -434 2131 c 0
 -413 2131 -392 2117 -387 2085 c 2
 -377 1817 l 1
 -272 1695 l 1
 -279 1832 -276 1833 -285 2039 c 0
 -285 2069 -261 2083 -238 2083 c 0
 -216 2083 -195 2070 -195 2045 c 2
 -180 1785 l 2
 -175 1663 -172 1622 -168 1581 c 0
 -168 1547 -196 1497 -258 1491 c 0
 -519 1479 -635 1457 -838 1457 c 0
-1084 1597 m 0
 -1084 1579 -1024 1553 -762 1553 c 0
 -610 1553 -443 1568 -302 1585 c 1
 -433 1815 -619 1875 -733 1875 c 0
 -930 1875 -1082 1707 -1084 1597 c 0
EndSplineSet
Substitution2: "Single Substitution lookup 22 subtable" uni0E37.alt1
Substitution2: "Single Substitution lookup 22 subtable" uni0E37.alt1
EndChar
StartChar: uni0E38
Encoding: 3640 3640 60
Width: 0
VWidth: 3622
Flags: W
HStem: -492 92<-447.082 -250.813> -175 92<-446.566 -257.202>
VStem: -559 95<-382.891 -193.902> -225 98<-749.76 -655.115 -655.115 -539.446 -597.281 -503.764 -527.527 -480 -480 -460 -333.972 -200.725>
Fore
-350 -400 m 0
 -256 -400 -232 -332 -232 -302 c 0
 -232 -214 -291 -175 -341 -175 c 0
 -406 -175 -464 -197 -464 -287 c 0
 -464 -377 -409 -400 -350 -400 c 0
-180 -775 m 0
 -207 -775 -225 -765 -225 -715 c 2
 -225 -580 l 2
 -225 -532 -224 -524 -224 -500 c 0
 -224 -487 -224 -473 -225 -460 c 1
 -246 -476 -277 -492 -365 -492 c 0
 -521 -492 -559 -361 -559 -280 c 0
 -559 -162 -464 -83 -341 -83 c 0
 -170 -83 -127 -217 -127 -324 c 0
 -127 -459 -125 -540 -125 -594 c 0
 -125 -637 -126 -678 -127 -716 c 0
 -127 -745 -138 -775 -180 -775 c 0
EndSplineSet
Substitution2: "Single Substitution lookup 21 subtable" a
Substitution2: "Single Substitution lookup 22 subtable" uni0E38.alt1
Substitution2: "Single Substitution lookup 21 subtable" a
Substitution2: "Single Substitution lookup 22 subtable" uni0E38.alt1
EndChar
StartChar: uni0E39
Encoding: 3641 3641 61
Width: 0
VWidth: 3622
Flags: MW
HStem: -739 102<-423 -402.454 -402.454 -345.5 -345.5 -287.069 -287.069 -265> -481 92<-739.397 -563.733> -166 93<-736.189 -550.027>
VStem: -855 96<-370.575 -212.805> -524 105<-637 -579.012 -579.012 -572.923 -572.923 -480.406 -480.406 -453 -321.6 -191.652> -272 99<-637 -569.592 -569.592 -438.731 -438.731 -365 -365 -211.823 -211.823 -96.1755>
Fore
-172 -140 m 0
 -172 -211 -173 -226 -173 -283 c 0
 -173 -380 -172 -412 -170 -444 c 2
 -163 -672 l 2
 -164 -705 -175 -732 -235 -732 c 2
 -469 -739 l 2
 -472 -739 -476 -740 -479 -740 c 0
 -522 -740 -532 -700 -532 -674 c 0
 -532 -663 -524 -572 -524 -453 c 1
 -581 -477 -597 -481 -646 -481 c 0
 -786 -481 -855 -401 -855 -274 c 0
 -855 -177 -785 -73 -650 -73 c 0
 -472 -73 -419 -183 -419 -361 c 2
 -419 -389 l 2
 -419 -462 -421 -462 -421 -510 c 0
 -421 -561 -423 -561 -423 -637 c 1
 -408 -636 -395 -636 -382 -636 c 0
 -353 -636 -338 -638 -309 -638 c 0
 -296 -638 -281 -638 -265 -637 c 1
 -268 -597 -269 -546 -269 -502 c 0
 -271 -465 -272 -422 -272 -375 c 2
 -272 -136 l 2
 -272 -109 -255 -96 -221 -96 c 0
 -188 -96 -172 -111 -172 -140 c 0
-646 -389 m 0
 -551 -389 -527 -317 -527 -292 c 0
 -527 -198 -591 -166 -637 -166 c 0
 -757 -166 -759 -268 -759 -273 c 0
 -759 -329 -737 -389 -646 -389 c 0
EndSplineSet
Substitution2: "Single Substitution lookup 21 subtable" b
Substitution2: "Single Substitution lookup 22 subtable" uni0E39.alt1
Substitution2: "Single Substitution lookup 21 subtable" b
Substitution2: "Single Substitution lookup 22 subtable" uni0E39.alt1
EndChar
StartChar: uni0E3A
Encoding: 3642 3642 62
Width: 0
VWidth: 3622
Flags: W
HStem: -327 251<-316.06 -116.328>
VStem: -343 255<-297.668 -103.032>
Fore
-218 -76 m 256
 -140 -76 -88 -125 -88 -200 c 256
 -88 -276 -142 -327 -218 -327 c 256
 -294 -327 -343 -275 -343 -200 c 256
 -343 -122 -292 -76 -218 -76 c 256
EndSplineSet
Substitution2: "Single Substitution lookup 21 subtable" c
Substitution2: "Single Substitution lookup 22 subtable" uni0E3A.alt1
Substitution2: "Single Substitution lookup 21 subtable" c
Substitution2: "Single Substitution lookup 22 subtable" uni0E3A.alt1
EndChar
StartChar: uni0E3F
Encoding: 3647 3647 63
Width: 1296
VWidth: 3622
Flags: W
HStem: 10 21G<232.5 255> 46 106<311 383.215 383.215 432.296 432.296 548.554 548.554 568 688 756.543> 692 110<484.376 559.354 559.354 582> 1378 94<522 596 715 831.319>
VStem: 233 115<532.407 1070.48 1056.32 1084.64 1084.64 1277.89> 568 120<-105.538 -35.4077 -35.4077 33.9539 33.9539 46 152 675.99> 582 118<388.629 681 801 1114.06> 596 119<998.174 1367 1472 1552.58 1552.58 1681.3> 1024 102<260.148 548.135> 1047 99<934.068 1214.64>
Fore
306 57 m 1xfc80
 292 27 267 10 243 10 c 0
 222 10 202 25 198 57 c 1
 156 57 l 1
 117 63 100 87 100 112 c 0
 100 139 120 166 154 173 c 1
 203 173 l 1
 227 459 233 711 233 890 c 0
 233 1033 231 1142 226 1279 c 1
 220 1278 214 1277 209 1277 c 0
 174 1277 152 1302 152 1330 c 0
 152 1357 173 1386 225 1399 c 1
 317 1438 416 1461 522 1468 c 2
 596 1472 l 1
 599 1551 600 1599 600 1631 c 0
 600 1673 639 1684 660 1684 c 0
 681 1684 718 1673 718 1631 c 2
 715 1466 l 1
 954 1446 1146 1308 1146 1072 c 0xf940
 1146 934 1029 800 888 739 c 1
 1048 670 1126 529 1126 394 c 0
 1126 59 744 53 688 46 c 1
 679 -73 702 -161 621 -161 c 0
 597 -161 562 -156 562 -93 c 0
 562 -46 569 -21 569 22 c 0
 569 29 568 37 568 46 c 1
 450 46 411 57 306 57 c 1xfc80
596 1378 m 1
 569 1378 425 1362 341 1335 c 1
 341 1080 348 1157 348 826 c 0
 348 557 334 354 311 154 c 1
 374 153 422 152 454 152 c 2
 528 152 l 2
 560 152 560 150 568 150 c 1xfc
 575 380 l 2
 582 566 582 629 582 691 c 2
 582 692 l 1xfa
 486 692 440 700 440 746 c 0
 440 795 490 802 536 802 c 0
 554 802 572 801 585 801 c 1
 590 1009 596 1306 596 1322 c 2
 596 1378 l 1
704 801 m 1
 975 823 1047 964 1047 1072 c 0
 1047 1284 835 1340 715 1367 c 1xf940
 704 801 l 1
688 152 m 1xfc
 1004 176 1024 312 1024 396 c 0
 1024 562 917 651 700 681 c 1xfa80
 700 574 698 474 695 382 c 2
 688 152 l 1xfc
EndSplineSet
EndChar
StartChar: uni0E40
Encoding: 3648 3648 64
Width: 636
VWidth: 3622
Flags: W
HStem: 4 95<263.885 448.431> 378 84<312.392 418.869>
VStem: 142 93<124.555 350.942 437 539.078 539.078 959.506 959.506 1260> 474 88<124.941 349.446>
Fore
354 4 m 0
 184 4 142 119 142 269 c 2
 142 1249 l 2
 145 1274 161 1286 190 1286 c 0
 218 1286 234 1278 236 1260 c 0
 242 1232 242 956 242 646 c 0
 242 524 242 454 241 437 c 1
 292 454 333 462 364 462 c 0
 439 462 562 428 562 228 c 0
 562 58 449 4 354 4 c 0
354 99 m 0
 400 99 474 125 474 228 c 0
 474 364 386 378 357 378 c 0
 323 378 235 351 235 269 c 0
 235 137 283 99 354 99 c 0
EndSplineSet
EndChar
StartChar: uni0E41
Encoding: 3649 3649 65
Width: 1144
VWidth: 3622
Flags: W
HStem: 4 95<266.869 448.622 746.831 930.753> 379 83<280.368 448.647 788.538 928.884>
VStem: 143 101<125.883 357.165 437 969.069 969.069 1285.64> 476 90<123.396 353.357> 624 101<124.555 355.421 437 1029.88 1029.88 1285.76> 957 90<125.213 353.423>
Fore
357 4 m 0
 186 4 143 122 143 269 c 2
 143 1249 l 2
 143 1279 173 1286 196 1286 c 0
 222 1286 241 1272 242 1252 c 2
 244 1045 l 2
 245 996 246 945 246 893 c 2
 246 656 l 1
 244 437 l 1
 284 454 325 462 368 462 c 0
 447 462 566 422 566 228 c 0
 566 99 493 4 357 4 c 0
357 99 m 0
 402 99 476 125 476 228 c 0
 476 359 403 379 354 379 c 0
 308 379 239 349 239 269 c 0
 239 135 286 99 357 99 c 0
837 4 m 0
 667 4 624 119 624 269 c 2
 624 1249 l 2
 624 1279 649 1286 676 1286 c 0
 707 1286 722 1273 722 1247 c 2
 722 1168 l 2
 722 1031 725 1003 725 893 c 2
 725 656 l 1
 723 437 l 1
 763 453 806 462 846 462 c 0
 954 462 1047 398 1047 228 c 0
 1047 55 929 4 837 4 c 0
837 99 m 0
 881 99 957 125 957 228 c 0
 957 308 932 379 833 379 c 0
 801 379 718 357 718 269 c 0
 718 137 766 99 837 99 c 0
EndSplineSet
EndChar
StartChar: uni0E42
Encoding: 3650 3650 66
Width: 905
VWidth: 3622
Flags: W
HStem: 0 99<592.541 765.424> 313 96<600.705 766.215> 1537 101<-20.0469 42.1539 42.1539 132.585 132.585 422.915> 1703 98<868.417 926.29> 2016 103<215.629 499.44>
VStem: -131 106<1635.6 1766.98> 446 115<123.444 453.843 368 516.974> 465 97<891.065 1489.68> 785 99<117.215 295.291> 927 106<1811.87 1899.11>
Fore
899 1703 m 0xfdc0
 729 1703 674 2016 361 2016 c 0
 159 2016 -25 1738 -25 1650 c 0
 -25 1636 -23 1634 7 1634 c 0
 35 1634 35 1636 78 1636 c 0
 106 1637 142 1638 188 1638 c 2
 338 1638 l 2
 547 1638 562 1478 562 1178 c 2
 562 1029 l 2xfdc0
 562 534 551 498 547 368 c 1
 577 392 624 409 677 409 c 0
 833 409 884 279 884 210 c 0
 884 132 819 0 663 0 c 0
 642 0 599 1 524 42 c 0
 473 75 447 135 446 221 c 2xfec0
 465 1297 l 2
 465 1510 422 1537 232 1537 c 2
 83 1530 l 2
 -82 1530 -131 1540 -131 1640 c 0
 -131 1788 85 2119 366 2119 c 0
 410 2119 598 2119 760 1946 c 2
 871 1820 l 2
 882 1808 890 1801 895 1801 c 0
 925 1801 927 1826 927 1843 c 0
 930 1881 947 1900 978 1900 c 0
 1016 1900 1033 1872 1033 1838 c 0
 1033 1780 984 1703 899 1703 c 0xfdc0
674 313 m 0
 603 313 561 263 561 205 c 0xfec0
 561 134 599 99 674 99 c 0
 746 99 785 143 785 210 c 0
 785 262 751 313 674 313 c 0
EndSplineSet
EndChar
StartChar: uni0E43
Encoding: 3651 3651 67
Width: 923
VWidth: 3622
Flags: W
HStem: -7 99<619.462 811.669> 308 94<643.724 812.837> 1429 103<42.8598 257.765> 1806 104<66.241 218.336> 1990 111<101.844 407.025>
VStem: -103 113<1562.52 1770.8> 285 113<1561.42 1770.62> 495 103<370 773.319> 506 110<108.616 494.83 1084.91 1715.01> 831 94<110.409 288.621>
Fore
720 308 m 0xfe40
 651 308 606 259 606 196 c 0
 606 127 644 92 720 92 c 0
 795 92 831 142 831 202 c 0
 831 254 798 308 720 308 c 0xfe40
154 1806 m 0
 87 1806 10 1774 10 1670 c 0
 10 1612 42 1532 140 1532 c 0
 211.03 1532 285 1559 285 1667 c 0
 285 1782 183 1806 154 1806 c 0
709 -7 m 0
 576 -7 495 72 495 204 c 0xff40
 495 669 506 789 506 1070 c 2
 506 1542 l 2
 502 1686 498 1840 463 1893 c 0
 440 1924 381 1990 258 1990 c 0
 172 1990 66 1945 44 1889 c 1
 77 1903 114 1910 155 1910 c 0
 284 1910 398 1816 398 1672 c 0
 398 1539 283 1429 140 1429 c 0
 -54 1429 -103 1603 -103 1739 c 0
 -103 1937 18 2101 269 2101 c 0
 547 2101 616 1904 616 1602 c 2
 616 1558 l 1xfec0
 598 370 l 1xff40
 629 389 671 402 723 402 c 0
 851 402 925 300 925 202 c 0
 925 83 846 -7 709 -7 c 0
EndSplineSet
EndChar
StartChar: uni0E44
Encoding: 3652 3652 68
Width: 923
VWidth: 3622
Flags: W
HStem: -7 99<619.828 815.672> 311 91<643.495 815.577>
VStem: 495 104<113.187 270.293> 600 113<1008.43 1886> 835 87<111.296 290.373>
Fore
647 2107 m 0
 687 2107 713 2073 713 1985 c 0
 696 1280 645 620 617 380 c 1
 648 393 682 402 727 402 c 0
 854 402 922 308 922 198 c 0
 922 34 822 -7 713 -7 c 0
 587 -7 495 84 495 211 c 0
 495 216 564 938 600 1886 c 1
 384 1560 l 2
 364 1536 342 1528 321 1528 c 0
 293 1528 269 1543 256 1557 c 2
 -71 2020 l 2
 -76 2028 -78 2038 -78 2049 c 0
 -78 2084 -55 2113 -19 2113 c 0
 -4 2113 11 2104 28 2087 c 1
 318 1659 l 1
 351 1707 468 1877 484 1902 c 2
 529 1970 l 258
 576 2040 603 2107 647 2107 c 0
835 202 m 0
 835 251 804 311 723 311 c 0
 643 311 599 253 599 197 c 0
 599 144 638 92 723 92 c 0
 813 92 835 157 835 202 c 0
EndSplineSet
EndChar
StartChar: uni0E45
Encoding: 3653 3653 69
Width: 999
VWidth: 3622
Flags: MW
HStem: 1251 95<300.805 618.601>
VStem: 750 111<-585.474 -545 -545 -362.758 -362.758 -358.8 -358.8 -214.062 -214.062 322.792 322.792 719.931 719.931 931.351>
Fore
147 914 m 0
 123 914 104 933 104 945 c 2
 104 980 l 2
 104 1129 175 1346 458 1346 c 0
 639 1346 829 1286 853 946 c 0
 858 868 861 788 861 704 c 2
 861 529 l 2
 861 402 860 297 860 114 c 0
 860 -84 854 -413 847 -545 c 0
 844 -571 818 -591 794 -591 c 0
 762 -591 746 -574 746 -539 c 2
 746 -430 l 2
 746 -389 747 -341 748 -287 c 0
 748 -232 750 -178 750 -142 c 2
 750 660 l 2
 750 698 751 739 752 780 c 0
 741 1063 695 1251 469 1251 c 0
 306 1251 212 1180 198 943 c 1
 178 924 168 914 147 914 c 0
EndSplineSet
EndChar
StartChar: uni0E46
Encoding: 3654 3654 70
Width: 1126
VWidth: 3622
Flags: MW
HStem: 673 98<225.257 338.006> 893 99<249.187 351.115> 1180 109<277.657 434.833 675.297 808.875>
VStem: 119 102<791.225 1002.02> 354 97<787.586 889.501> 511 115<957 1098.5> 838 112<-551.843 -448.037> 874 101<109.778 742.325 742.325 925 925 1116.1>
Fore
119 913 m 0
 119 1103 228 1289 340 1289 c 0
 449 1289 515 1220 555 1148 c 1
 595 1248 667 1292 739 1292 c 0
 925 1292 971 1058 971 932 c 2
 975 336 l 1
 950 -453 l 2
 940 -528 904 -565 872 -565 c 0
 858 -565 838 -559 838 -528 c 0
 838 -473 874 -308 874 302 c 0
 874 514 872 722 865 925 c 0
 865 1049 818 1173 747 1173 c 0
 650 1173 633 1047 626 955 c 0
 623 925 593 904 564 904 c 0
 540 904 516 919 511 957 c 0
 511 1094 411 1180 340 1180 c 0
 274 1180 235 1051 226 980 c 1
 244 988 263 992 283 992 c 0
 398 992 451 904 451 835 c 0
 451 810 446 726 380 697 c 0
 343 681 311 673 282 673 c 0
 171 673 119 784 119 913 c 0
354 837 m 0
 354 871 322 893 292 893 c 0
 283 893 221 887 221 839 c 0
 221 818 233 771 280 771 c 0
 315 771 354 800 354 837 c 0
EndSplineSet
EndChar
StartChar: uni0E47
Encoding: 3655 3655 71
Width: 0
VWidth: 3622
Flags: W
HStem: 1480 91<-540.506 -460.702> 1613 67<-493.302 -449.64> 1626 107<-741.481 -628.299> 1760 87<-484.819 -416.928> 1989 99<-823.918 -583.716>
VStem: -1022 735<1792 2117 1792 2117 1792 1792> -1022 97<1644.44 1897.71> -580 85<1697.07 1759.27> -409 84<1688.63 1759.85> -382 95<1998.66 2263.76>
Fore
-700 1626 m 0xbb80
 -720 1626 -787 1495 -853 1495 c 0
 -918 1495 -1022 1630 -1022 1792 c 0xbc
 -1022 1964 -851 2088 -683 2088 c 0
 -595 2088 -528 2051 -504 2036 c 2
 -437 1992 l 1
 -402 2005 -382 2056 -382 2115 c 0xb840
 -382 2225 -430 2248 -430 2280 c 0
 -430 2302 -407 2321 -379 2321 c 0
 -342 2321 -287 2292 -287 2117 c 0xbc
 -287 1992 -358 1891 -465 1891 c 1
 -508 1921 l 2
 -592 1981 -637 1989 -681 1989 c 0
 -803 1989 -925 1893 -925 1790 c 0
 -925 1702 -907 1670 -891 1649 c 0
 -877 1631 -864 1606 -856 1601 c 1
 -815 1654 -761 1733 -704 1733 c 0xba
 -611 1733 -524 1571 -486 1571 c 0
 -478 1571 -449 1607 -444 1613 c 1xda
 -565 1613 -580 1696 -580 1728 c 0
 -580 1788 -523 1847 -453 1847 c 0
 -391.48 1847 -325 1800.56 -325 1710 c 0
 -325 1629 -391 1480 -490 1480 c 0
 -591 1480 -622 1626 -700 1626 c 0xbb80
-451 1680 m 256xd980
 -417 1680 -409 1705.96 -409 1718 c 0
 -409 1749 -428 1760 -449 1760 c 0
 -471 1760 -495 1746 -495 1728 c 0
 -495 1704 -477 1680 -451 1680 c 256xd980
EndSplineSet
Substitution2: "Single Substitution lookup 22 subtable" uni0E47.alt1
Substitution2: "Single Substitution lookup 22 subtable" uni0E47.alt1
EndChar
StartChar: uni0E48
Encoding: 3656 3656 72
Width: 0
VWidth: 3622
Flags: W
HStem: 2169 491<-296.444 -247.473>
VStem: -322 101<2204 2632 2204 2632 2204 2204>
Fore
-272 2660 m 256
 -253 2660 -236 2651 -221 2632 c 1
 -221 2204 l 1
 -235 2181 -252 2169 -272 2169 c 256
 -292 2169 -309 2181 -322 2204 c 1
 -322 2625 l 2
 -322 2627 -321 2660 -272 2660 c 256
EndSplineSet
Substitution2: "Single Substitution lookup 22 subtable" uni0E48.alt2
Substitution2: "Single Substitution lookup 22 subtable" uni0E48.alt2
EndChar
StartChar: uni0E49
Encoding: 3657 3657 73
Width: 0
VWidth: 3622
Flags: W
HStem: 2427 88<-608.005 -508.764> 2657 86<-610.818 -462.816>
VStem: -697 81<2524.71 2648.13> -458 88<2525.64 2635.37>
Fore
-525 2743 m 0
 -438 2743 -370 2687 -370 2579 c 0
 -370 2398 -523 2253 -525 2252 c 1
 -226 2314 -121 2428 -55 2708 c 0
 -51 2742 -23 2747 -12 2747 c 0
 27 2747 37 2720 37 2684 c 0
 37 2595 -20 2307 -326 2208 c 0
 -392 2186 -496 2158 -561 2158 c 0
 -621 2158 -636 2175 -636 2201 c 0
 -636 2207 -635 2214 -633 2222 c 1
 -610 2268 -568 2337 -508 2430 c 1
 -518 2426 -526 2427 -543 2427 c 0
 -606 2427 -697 2467 -697 2584 c 0
 -697 2642 -644 2743 -525 2743 c 0
-534 2657 m 0
 -571 2657 -616 2634 -616 2591 c 0
 -616 2545 -578 2515 -534 2515 c 0
 -495 2515 -458 2547 -458 2591 c 0
 -458 2601 -462 2657 -534 2657 c 0
EndSplineSet
Substitution2: "Single Substitution lookup 22 subtable" uni0E49.alt2
Substitution2: "Single Substitution lookup 22 subtable" uni0E49.alt2
EndChar
StartChar: uni0E4A
Encoding: 3658 3658 74
Width: 0
VWidth: 3622
Flags: MW
HStem: 2087 76<-794.789 -684.735> 2265 75<-773.238 -696.364> 2579 99<-746.715 -631.409 -423.92 -339.342>
VStem: -891 95<2164.61 2405.02 2338 2418.61> -683 75<2174.14 2263.85> -564 88<2261.02 2494.97> -274 90<2331 2412.79> -163 105<2373.89 2671.65>
Fore
-58 2503 m 0
 -58 2301 -173 2106 -247 2106 c 0
 -276 2106 -304 2125 -311 2167 c 1
 -286 2232 -274 2287 -274 2333 c 0
 -274 2399 -287 2458 -313 2510 c 1
 -311 2510 l 1
 -335 2553 -356 2575 -373 2575 c 0
 -414 2575 -459 2495 -476 2312 c 0
 -482 2276 -501 2261 -520 2261 c 0
 -542 2261 -564 2282 -564 2315 c 0
 -564 2446 -637 2579 -693 2579 c 0
 -767 2579 -783 2405 -785 2338 c 1
 -776 2340 -779 2340 -741 2340 c 0
 -634 2340 -608 2260 -608 2213 c 0
 -608 2154 -627 2096 -741 2087 c 0
 -857 2087 -891 2170 -891 2335 c 0
 -891 2493 -815 2678 -693 2678 c 0
 -596 2678 -527 2540 -527 2540 c 1
 -509 2579 -453 2682 -382 2682 c 0
 -297 2682 -184 2570 -184 2348 c 2
 -184 2331 l 1
 -170 2396 -163 2454 -163 2503 c 0
 -163 2578 -178 2699 -235 2804 c 1
 -243 2813 -247 2823 -247 2832 c 0
 -247 2851 -232 2868 -206 2868 c 0
 -190 2868 -171 2862 -149 2846 c 1
 -90 2778 -58 2643 -58 2503 c 0
-796 2213 m 0
 -796 2180 -778 2163 -741 2163 c 0
 -683 2163 -683 2199 -683 2213 c 0
 -683 2249 -709 2265 -736 2265 c 0
 -765 2265 -796 2246 -796 2213 c 0
EndSplineSet
Substitution2: "Single Substitution lookup 22 subtable" uni0E4A.alt2
Substitution2: "Single Substitution lookup 22 subtable" uni0E4A.alt2
EndChar
StartChar: uni0E4B
Encoding: 3659 3659 75
Width: 0
VWidth: 3622
Flags: MW
HStem: 2384 101<-611.107 -352 -241 -82.4198 -82.4198 3.51114>
VStem: -347 99<2128.75 2278.7 2278.7 2381 2485 2513.22 2513.22 2588.66 2588.66 2700.3>
Fore
-172 2485 m 2
 -65 2485 -52 2493 -38 2493 c 0
 -5 2493 7 2470 7 2446 c 0
 7 2384 -92 2394 -241 2384 c 1
 -246 2276 -248 2207 -248 2177 c 0
 -250 2146 -267 2130 -299 2128 c 1
 -331 2131 -347 2150 -347 2184 c 2
 -347 2381 l 1
 -568 2388 l 2
 -597 2391 -612 2409 -612 2441 c 0
 -612 2475 -597 2492 -566 2492 c 2
 -352 2485 l 1
 -353 2497 -353 2518 -353 2542 c 0
 -353 2688 -358 2738 -296 2738 c 0
 -259 2738 -245 2716 -245 2646 c 0
 -245 2612 -248 2572 -248 2531 c 2
 -248 2485 l 1
 -172 2485 l 2
EndSplineSet
Substitution2: "Single Substitution lookup 22 subtable" uni0E4B.alt2
Substitution2: "Single Substitution lookup 22 subtable" uni0E4B.alt2
EndChar
StartChar: uni0E4C
Encoding: 3660 3660 76
Width: 0
VWidth: 3622
Flags: W
HStem: 2066 87<-530.801 -365.162> 2352 87<-530.592 -363.167> 2608 90<-439.485 -20.5074>
VStem: -670 116<2176.9 2411.29> -348 93<2172.39 2338.4>
Fore
-348 2248 m 0
 -348 2317 -397 2352 -436 2352 c 0
 -513 2352 -554 2289 -554 2255 c 0
 -554 2202 -499 2153 -448 2153 c 0
 -413 2153 -348 2186 -348 2248 c 0
-434 2439 m 0
 -323 2439 -255 2346 -255 2256 c 0
 -255 2150 -350 2066 -463 2066 c 0
 -590 2066 -670 2177 -670 2325 c 0
 -670 2529 -499 2698 -221 2698 c 0
 -135 2698 -56 2671 -5 2651 c 1
 10 2642 21 2631 21 2612 c 0
 21 2579 -15 2570 -28 2570 c 0
 -41 2570 -124 2608 -257 2608 c 0
 -432 2608 -535 2520 -570 2377 c 1
 -544 2414 -490 2439 -434 2439 c 0
EndSplineSet
Substitution2: "Single Substitution lookup 22 subtable" uni0E4C.alt2
Substitution2: "Single Substitution lookup 22 subtable" uni0E4C.alt2
EndChar
StartChar: uni0E4D
Encoding: 3661 3661 77
Width: 0
VWidth: 3622
Flags: W
HStem: 1503 96<-316.829 -156.121> 1774 97<-317.357 -156.044>
VStem: -421 94<1610.14 1742.71> -147 96<1609.45 1764.3>
Fore
-421 1687 m 0
 -421 1796 -350 1871 -235 1871 c 0
 -127 1871 -51 1798 -51 1687 c 0
 -51 1573 -144 1503 -235 1503 c 0
 -331 1503 -421 1574 -421 1687 c 0
-147 1687 m 0
 -147 1727 -165 1774 -235 1774 c 0
 -317 1774 -327 1712 -327 1687 c 0
 -327 1634 -291 1599 -235 1599 c 256
 -180 1599 -147 1634 -147 1687 c 0
EndSplineSet
Substitution2: "Single Substitution lookup 22 subtable" uni0E4D.alt1
Substitution2: "Single Substitution lookup 22 subtable" uni0E4D.alt1
EndChar
StartChar: uni0E4E
Encoding: 3662 3662 78
Width: 0
VWidth: 3622
Flags: W
HStem: 1491 118<-434.924 -241.326> 1857 103<-371.524 -247.833> 2132 114<-374.123 -201.492>
VStem: -578 123<1628.97 1813.89> -508 124<1994.04 2102.44>
Fore
-578 1723 m 0xf0
 -578 1800 -540 1885 -471 1928 c 1
 -492 1958 -508 1997 -508 2043 c 0
 -508 2159 -397 2246 -301 2246 c 0
 -257 2246 -212 2228 -166 2193 c 0
 -160 2188 -158 2180 -158 2171 c 0
 -158 2135 -195 2089 -223 2089 c 0
 -246 2089 -261 2132 -312 2132 c 0
 -362 2132 -384 2079 -384 2048 c 0xe8
 -384 2014 -363 1967 -290 1960 c 1
 -261 1952 -247 1928 -247 1906 c 0
 -247 1880 -264 1857 -296 1857 c 0
 -370 1857 -455 1804 -455 1725 c 0
 -455 1675 -431 1609 -337 1609 c 0
 -275 1609 -255 1659 -221 1659 c 0
 -195 1659 -157 1626 -157 1594 c 0
 -157 1543 -242 1491 -338 1491 c 0
 -480 1491 -578 1598 -578 1723 c 0xf0
EndSplineSet
Substitution2: "Single Substitution lookup 22 subtable" uni0E4E.alt1
Substitution2: "Single Substitution lookup 22 subtable" uni0E4E.alt1
EndChar
StartChar: uni0E4F
Encoding: 3663 3663 79
Width: 1630
VWidth: 3622
Flags: W
HStem: 149 115<598.329 983.769> 414 110<690.114 892.347> 757 111<688.742 893.467> 1017 117<595.774 986.543>
VStem: 246 125<473.285 805.507> 538 124<552.292 728.214> 923 124<554.471 726.948> 1213 128<476.352 806.108>
Fore
246 640 m 256
 246 903 484 1134 791 1134 c 0
 1098 1134 1341 906 1341 640 c 256
 1341 374 1099 149 791 149 c 0
 482 149 246 379 246 640 c 256
371 640 m 256
 371 438 551 264 791 264 c 256
 1030 264 1213 438 1213 640 c 256
 1213 852 1023 1017 791 1017 c 256
 558 1017 371 852 371 640 c 256
538 640 m 0
 538 764 642 868 791 868 c 0
 948 868 1047 758 1047 640 c 0
 1047 525 946 414 791 414 c 0
 651 414 538 504 538 640 c 0
791 757 m 0
 724 757 662 710 662 640 c 0
 662 565 727 524 791 524 c 0
 874 524 923 583 923 640 c 256
 923 710 860 757 791 757 c 0
EndSplineSet
EndChar
StartChar: uni0E50
Encoding: 3664 3664 80
Width: 1213
VWidth: 3622
Flags: W
HStem: 35 101<405.027 773.606> 907 105<400.085 770.355>
VStem: 74 108<358.071 703.928> 975 108<348.064 699.877>
Fore
594 1012 m 0
 945 1012 1083 715 1083 522 c 0
 1083 291 922 35 594 35 c 0
 248 35 74 299 74 527 c 256
 74 748 239 1012 594 1012 c 0
594 136 m 0
 823 136 966 312 975 522 c 0
 975 684 852 907 594 907 c 0
 350 907 182 729 182 541 c 0
 182 330 344 136 594 136 c 0
EndSplineSet
EndChar
StartChar: uni0E51
Encoding: 3665 3665 81
Width: 1202
VWidth: 3622
Flags: W
HStem: 21 108<334.613 723.121> 256 110<308.894 477.782> 633 92<487.674 667.481> 941 108<377.945 750.028>
VStem: 90 117<464.877 765.943> 371 101<454.158 618.638> 685 99<457.001 614.908> 982 116<418.907 721.594>
Fore
227 236 m 0
 279 236 320 129 518 129 c 0
 655 129 784 193 863 260 c 0
 963 360 982 481 982 541 c 0
 982 819 735 941 562 941 c 0
 278 941 207 705 207 593 c 0
 207 465 311 366 479 366 c 1
 410 393 371 461 371 529 c 0
 371 617 448 725 587 725 c 0
 713 725 784 629 784 527 c 0
 784 353 583 256 460 256 c 0
 277 256 90 395 90 612 c 0
 90 770 206 1049 570 1049 c 0
 820 1049 1098 851 1098 555 c 0
 1098 414 1035 290 952 202 c 0
 838 94 692 21 518 21 c 0
 372 21 271 73 193 143 c 1
 179 152 173 164 173 177 c 0
 173 206 200 236 227 236 c 0
582 434 m 0
 622 434 685 475 685 536 c 0
 685 597 633 633 580 633 c 0
 494 633 472 584 472 521 c 0
 472 454 561 434 582 434 c 0
EndSplineSet
EndChar
StartChar: uni0E52
Encoding: 3666 3666 82
Width: 1406
VWidth: 3622
Flags: W
HStem: 18 86<297.651 1091.27> 258 90<405.627 599.918> 536 92<429.394 603.295> 904 99<444.311 573.246 940.92 1076.96> 1265 74<-66.8982 45.6506>
VStem: 99 106<219.455 549.451> 127 108<584.623 1173.9> 265 126<366.036 665.785> 265 105<578 673.463> 617 96<408.968 518.164> 1171 99<197.05 759.61>
Fore
1171 527 m 0xfc60
 1171 642 1107 907 1012 907 c 0
 967 907 936 873 849 716 c 2
 773 580 l 1
 731 584 l 1
 610 872 541 904 493 904 c 0
 395 904 372 668 370 578 c 1xfce0
 411 616 470 628 513 628 c 0
 574 628 713 594 713 453 c 0
 713 424 695 258 513 258 c 0
 389 258 265 311 265 524 c 0
 265 798 350 911 410 966 c 0
 436 991 463 1003 490 1003 c 0
 604 1003 704 889 761 771 c 1
 790 833 870 1003 1015 1003 c 0
 1170 1003 1270 779 1270 527 c 0
 1270 79 1199 18 872 18 c 2
 396 18 l 2
 158 18 99 254 99 460 c 0xfd60
 99 491 100 524 104 562 c 2
 113 681 l 2
 122 761 127 845 127 930 c 0
 127 1083 99 1239 -34 1265 c 1
 -56 1265 -67 1274 -67 1293 c 0
 -67 1310 -32 1339 14 1339 c 0
 191 1339 235 1143 235 920 c 0xfa60
 235 690 205 538 205 410 c 0
 205 291 267 104 393 104 c 2
 888 108 l 2
 1107 108 1171 137 1171 527 c 0xfc60
508 536 m 0
 451 536 391 504 391 456 c 0xf960
 391 370 445 348 508 348 c 0
 599 348 617 414 617 453 c 0
 617 486 583 536 508 536 c 0
EndSplineSet
EndChar
StartChar: uni0E53
Encoding: 3667 3667 83
Width: 1406
VWidth: 3622
Flags: W
HStem: 46 87<264.108 408.561> 327 89<270.048 406.513> 923 96<293.196 456.754 881.528 1036.26>
VStem: 55 110<362.881 704.957> 422 100<145.13 314.078> 612 106<83.0272 120 124 278.5 278.5 653.599> 1180 111<334.579 698.669>
Fore
522 228 m 0
 522 170 494 46 318 46 c 0
 129 49 55 250 55 460 c 0
 55 743 188 1019 364 1019 c 0
 496 1019 626 868 677 731 c 1
 742 907 852 1022 969 1022 c 0
 1162 1022 1291 805 1291 511 c 0
 1291 276 1196 46 1084 46 c 0
 1053 46 1038 57 1038 80 c 0
 1038 85 1040 82 1047 103 c 1
 1161 197 1180 446 1180 524 c 0
 1180 621 1160 796 1062 886 c 0
 1036 909 1006 926 972 926 c 0
 825 926 745 611 727 433 c 2
 718 124 l 2
 716 86 703 42 665 42 c 0
 630 42 612 68 612 120 c 2
 612 471 l 2
 612 668 491 923 368 923 c 0
 245 923 165 611 165 436 c 0
 165 405 168 379 173 359 c 1
 207 391 267 416 333 416 c 0
 447 416 514 340 522 228 c 0
221 226 m 0
 221 144 314 133 329 133 c 0
 392 133 422 180 422 227 c 0
 422 277 390 327 333 327 c 0
 319 327 298 319 264 306 c 0
 238 294 221 260 221 226 c 0
EndSplineSet
EndChar
StartChar: uni0E54
Encoding: 3668 3668 84
Width: 1330
VWidth: 3622
Flags: W
HStem: 74 99<409.367 832.805> 226 98<674.406 920.295> 410 91<643.062 773.401> 637 94<625.92 766.771> 762 103<851.303 981.694> 937 108<389.325 696.867>
VStem: 78 108<380.329 725.738> 515 100<394.336 625.51> 777 99<507.29 628.545>
Fore
697 731 m 0
 804 731 876 645 876 582 c 0
 876 459 777 410 692 410 c 0
 682 410 664 410 640 419 c 1
 668 349 730 324 830 324 c 0
 911 324 938 382 1024 382 c 0
 1032 382 1081 374 1081 350 c 0
 1081 240 1017 74 665 74 c 0
 174 74 78 373 78 573 c 0
 78 784 244 1045 547 1045 c 0
 835 1045 814 865 943 865 c 0
 964 865 986 880 996 960 c 2
 1003 1021 l 2
 1017 1180 1040 1276 1137 1345 c 0
 1186 1380 1230 1390 1264 1390 c 0
 1310 1390 1355 1374 1355 1350 c 0
 1355 1313 1282 1338 1207 1284 c 0
 1005 1137 1211 772 943 762 c 0
 743 762 761 929 559 937 c 0
 311 937 186 720 186 531 c 0
 186 364 349 173 614 173 c 0
 757 173 869 181 943 248 c 1
 911 233 877 226 840 226 c 0
 683 226 515 283 515 511 c 0
 515 634 551 731 697 731 c 0
700 637 m 0
 656 637 615 596 615 557 c 0
 615 528 639 501 695 501 c 0
 741 501 777 526 777 560 c 0
 777 591 746 637 700 637 c 0
EndSplineSet
EndChar
StartChar: uni0E55
Encoding: 3669 3669 85
Width: 1416
VWidth: 3622
Flags: W
HStem: 28 98<398.602 760.602> 212 105<659.883 929.73> 398 95<639.238 782.68> 621 92<655.952 781.737> 700 101<911.967 1137.93> 879 99<1012.24 1155.62> 914 101<350.258 631.842> 1194 97<998.359 1192.52>
VStem: 42 114<340.983 719.941> 499 129<460.742 609.946> 787 101<498.087 616.433> 877 103<1010.17 1174.09> 1327 102<1170.67 1299.65>
Fore
499 495 m 0xebd8
 499 657 635 713 715 713 c 0
 764 713 888 681 888 555 c 0
 888 429 776 398 686 398 c 0
 665 398 646 400 630 405 c 1
 650 366 685 317 789 317 c 0
 947 317 1072 381 1083 334 c 0
 1086 316 1086 302 1086 288 c 0
 1086 45 673 36 594 28 c 0
 318 28 42 198 42 518 c 0
 42 841 226 1015 555 1015 c 0xf3e8
 644 1015 748 997 822 928 c 2
 874 881 l 2
 937 818 966 801 1028 801 c 0
 1118 801 1181 882 1187 893 c 1
 1161 884 1133 879 1102 879 c 0xede8
 994 879 877 954 877 1093 c 0
 877 1161 941 1291 1091 1291 c 0
 1212 1291 1277 1231 1300 1159 c 1
 1309 1190 1316 1222 1327 1318 c 0
 1327 1336 1341 1345 1360 1337 c 2
 1415 1307 l 2
 1421 1303 1429 1290 1429 1286 c 0
 1403 972 1245 700 1028 700 c 0
 934 700 864 734 794 807 c 2
 748 848 l 2
 687 899 611 914 541 914 c 0
 317 914 156 768 156 515 c 0
 156 266 392 126 594 126 c 0
 724 126 922 181 962 230 c 1
 911 219 854 212 794 212 c 0
 529 212 499 424 499 495 c 0xebd8
980 1100 m 0xe5d8
 980 1064 1015 978 1107 978 c 0
 1139 978 1172 991 1205 1017 c 1
 1214 1040 1219 1058 1219 1072 c 0
 1219 1129 1179 1194 1098 1194 c 0
 1022 1194 980 1146 980 1100 c 0xe5d8
711 493 m 0
 754 493 787 518 787 555 c 0
 787 587 763 621 715 621 c 0xf1e8
 681 621 628 601 628 555 c 0
 628 518 651 493 711 493 c 0
EndSplineSet
EndChar
StartChar: uni0E56
Encoding: 3670 3670 86
Width: 1195
VWidth: 3622
Flags: W
HStem: 27 100<437.314 616.332> 358 105<434.136 620.247> 890 115<423.883 779.312>
VStem: 301 110<169.343 306.673> 646 100<195.594 330.852> 957 118<307.407 694.105>
Fore
516 463 m 0
 676 463 746 324 746 244 c 0
 746 204 745 190 732 166 c 1
 906 210 957 369 957 492 c 0
 957 719 820 890 614 890 c 0
 521 890 427 851 364 815 c 1
 356 808 352 800 303 800 c 0
 277 800 245 805 241 821 c 0
 173 1029 80 1196 9 1240 c 0
 2 1245 -1 1251 -1 1258 c 0
 -1 1279 26 1315 71 1315 c 0
 136 1315 247 1140 297 1002 c 2
 325 927 l 1
 434 979 532 1005 619 1005 c 0
 912 1005 1075 747 1075 502 c 0
 1075 271 928 27 580 27 c 0
 460 27 397 38 341 115 c 0
 314 152 301 192 301 236 c 0
 301 366 401 463 516 463 c 0
535 127 m 0
 624 127 646 216 646 243 c 0
 646 300 603 358 514 358 c 0
 431 358 411 267 411 240 c 0
 411 172 475 127 535 127 c 0
EndSplineSet
EndChar
StartChar: uni0E57
Encoding: 3671 3671 87
Width: 1538
VWidth: 3622
Flags: W
HStem: 14 97<204.37 358.023> 294 100<203.939 364.627> 907 99<267.756 442.147 849.422 1002.1>
VStem: 37 105<252.446 688.815> 375 97<129.142 262.67> 619 117<322.062 380 380 608.446> 1128 112<240.942 683.302> 1360 108<396.539 1047.61>
Fore
1054 84 m 0
 1054 124 1128 185 1128 396 c 0
 1128 656 1025 893 929 893 c 0
 813 893 745 663 736 387 c 0
 733 342 715 320 681 320 c 0
 660 320 624 328 619 380 c 0
 605 645 462 907 357 907 c 0
 227 907 142 611 142 413 c 0
 142 391 143 371 145 352 c 1
 173 373 221 394 272 394 c 0
 394 394 472 317 472 202 c 0
 472 52 359 14 276 14 c 0
 133 14 37 60 37 430 c 0
 37 637 128 1006 361 1006 c 0
 486 1006 621 842 674 692 c 1
 718 858 823 1010 922 1010 c 0
 1104 1010 1240 696 1240 421 c 0
 1240 331 1228 245 1205 173 c 1
 1276 246 1360 432 1360 736 c 0
 1360 940 1309 1115 1233 1249 c 1
 1220 1262 1213 1274 1213 1288 c 0
 1213 1314 1251 1344 1276 1344 c 0
 1339 1344 1468 1088 1468 732 c 0
 1468 276 1311 112 1213 50 c 0
 1192 35 1167 27 1137 27 c 0
 1092 27 1054 50 1054 84 c 0
170 202 m 0
 170 129 226 111 269 111 c 0
 331 111 375 156 375 208 c 0
 375 238 363 294 272 294 c 0
 216 294 170 241 170 202 c 0
EndSplineSet
EndChar
StartChar: uni0E58
Encoding: 3672 3672 88
Width: 1361
VWidth: 3622
Flags: W
HStem: 14 94<852.303 921.917> 14 115<279.619 347.532> 233 94<843.049 964.026> 249 109<517.434 634.634> 476 99<842.455 980.418> 856 104<401.801 772.915>
VStem: 71 109<275.58 638.389> 731 104<363.991 468.227> 1001 99<337.023 463.929> 1141 99<818.944 1094.79>
Fore
180 488 m 0x5fc0
 180 306 286 129 329 129 c 0
 332 129 338 136 345 148 c 2
 400 245 l 2
 436 305 491 358 551 358 c 0x5fc0
 612 358 688 297 734 251 c 2
 846 136 l 2
 865 117 879 108 888 108 c 0
 900 108 926 152 966 241 c 1
 953 236 937 233 918 233 c 0
 753 233 731 361 731 410 c 0
 731 487 810 575 918 575 c 0
 949 575 1100 561 1100 384 c 256
 1100 251 1021 14 884 14 c 256xafc0
 764 14 652 249 550 249 c 0
 536 249 523 239 511 218 c 2
 472 150 l 2
 426 58 389 14 333 14 c 0
 228 14 71 262 71 488 c 0
 71 801 391 960 585 960 c 0
 802 960 905 872 1022 762 c 1
 1104 773 1141 891 1141 1008 c 0
 1141 1075 1124 1177 1065 1252 c 1
 1065 1300 1083 1314 1104 1314 c 0
 1121 1314 1140 1305 1155 1297 c 1
 1223 1209 1240 1097 1240 1012 c 0
 1240 867 1191 654 985 654 c 1
 927 677 840 856 564 856 c 0
 400 856 180 695 180 488 c 0x5fc0
920 476 m 0
 836 476 835 403 835 403 c 1
 835 386 843 327 911 327 c 256x2fc0
 968 327 1001 365 1001 403 c 0
 1001 436 976 469 920 476 c 0
EndSplineSet
EndChar
StartChar: uni0E59
Encoding: 3673 3673 89
Width: 1344
VWidth: 3622
Flags: W
HStem: -25 87<290.086 452.931> 246 92<301.093 449.706> 554 106<1040.54 1145.81> 826 115<282.23 459.87> 863 108<730.096 844.793>
VStem: 62 115<281.801 708.35> 463 99<93.0769 212.251> 702 110<154 440.329> 1176 115<680.772 1057.01 915.438 1198.58>
Fore
805 971 m 0xef80
 975 971 1005 660 1098 660 c 0
 1145 660 1176 756 1176 866 c 0
 1176 905 1173 944 1173 964 c 0
 1150 1253 1104 1221 1104 1258 c 0
 1104 1289 1169 1295 1173 1295 c 0
 1252 1295 1291 1025 1291 941 c 0xf780
 1291 632 1172 554 1094 554 c 0
 1001 554 966 611 932 658 c 0
 867 761 841 863 805 863 c 0xef80
 740 863 706 796 706 742 c 0
 706 615 785 493 812 163 c 0
 812 140 776 118 751 118 c 0
 735 118 718 130 702 154 c 1
 690 622 463 826 354 826 c 0
 212 826 177 575 177 448 c 0
 177 407 179 322 196 241 c 1
 239 329 328 338 368 338 c 0
 521 338 562 233 562 161 c 0
 562 12 463 -25 382 -25 c 0
 126 -25 62 196 62 448 c 0
 62 577 91 788 219 895 c 0
 256 926 299 941 350 941 c 0xf780
 460 941 533 868 607 794 c 1
 623 893 690 971 805 971 c 0xef80
463 154 m 0
 463 184 446 246 379 246 c 0
 312 246 278 214 278 150 c 0
 278 80 320 62 375 62 c 0
 449 62 463 117 463 154 c 0
EndSplineSet
EndChar
StartChar: uni0E5A
Encoding: 3674 3674 90
Width: 1282
VWidth: 3622
Flags: W
HStem: 755 114<377.437 659.184> 1202 112<196.124 382.466>
VStem: 73 109<1009.2 1186.95> 404 115<1016.06 1180.94> 780 115<205.432 301 302 647.5 647.5 837 1147.85 1251 1251 1309.15> 1010 118<48.4996 371.888> 1026 113<121.368 406 406 641.51 641.51 784.839 784.839 1109.44>
Fore
897 1146 m 1xfa
 985 1221 1057 1311 1081 1311 c 0
 1111 1308 1139 1293 1139 1252 c 2
 1139 886 l 2xfa
 1139 815 1139 748 1138 684 c 2
 1136 495 l 1
 1128 78 l 2
 1128 60 1116 14 1068 14 c 256
 1018 14 1010 64 1010 78 c 2xfc
 1018 406 l 2
 1023 583 1026 878 1026 996 c 0
 1026 1088 1027 1077 1024 1111 c 1
 895 994 l 1
 886 301 l 2
 856 88 712 19 673 19 c 0
 642 19 615 42 615 74 c 0
 615 104 626 113 646 125 c 0
 663 135 769 196 769 302 c 2
 773 837 l 1
 734 803 672 762 499 755 c 0
 296 755 73 825 73 1104 c 0
 73 1230 185 1314 301 1314 c 0
 433 1314 519 1208 519 1093 c 0
 519 1012 473 928 352 888 c 1
 386 876 432 869 481 869 c 0
 723 869 780 1017 780 1251 c 0
 780 1294 817 1311 838 1311 c 0
 858 1311 897 1300 897 1252 c 2
 897 1146 l 1xfa
286 1202 m 0
 222 1202 182 1167 182 1104 c 0
 182 996 263 996 288 996 c 0
 366 996 404 1046 404 1097 c 0
 404 1149 364 1202 286 1202 c 0
EndSplineSet
EndChar
StartChar: uni0E5B
Encoding: 3675 3675 91
Width: 2605
VWidth: 3622
Flags: W
HStem: 198 115<537.509 878.466> 269 110<1490.88 1581.27> 403 105<2054.36 2260.98> 485 299<594.875 762.924> 782 111<1778.57 1887.4> 890 116<1238.11 1336.79> 978 101<499.358 785.169>
VStem: 244 119<478.162 828.055> 863 119<671.324 902.382> 1351 124<386.894 598 598 883.637>
Fore
2399 506 m 0x69c0
 2399 424 2192 403 2113 403 c 0
 2057 403 2005 412 1976 440 c 0
 1885 530 1938 782 1836 782 c 256x69c0
 1687 782 1807 269 1534 269 c 0
 1379 274 1351 408 1351 598 c 2
 1351 735 l 2
 1351 853 1328 890 1293 890 c 0x45c0
 1119 890 1240 198 731 198 c 0
 526 198 244 290 244 656 c 0
 244 795 323 1079 640 1079 c 0
 914 1079 982 866 982 739 c 0
 982 635 884 485 708 485 c 0
 633 485 538 549 538 644 c 0
 538 711 587 784 667 784 c 0
 732 784 785 755 785 670 c 0
 785 664 784 659 784 653 c 1
 825 664 863 707 863 775 c 0
 863 844 820 978 649 978 c 0x93c0
 438 978 363 779 363 656 c 0
 363 382 590 313 731 313 c 0
 1168 313 959 1006 1284 1006 c 0x85c0
 1455 1006 1475 841 1475 668 c 2
 1475 614 l 2
 1475 412 1491 379 1539 379 c 0
 1577 379 1599 464 1604 506 c 2
 1617 612 l 2
 1649 848 1748 893 1836 893 c 0
 2008 893 2013 755 2032 585 c 0
 2039 517 2074 508 2110 508 c 0
 2207 508 2280 555 2335 555 c 0
 2369 555 2399 535 2399 506 c 0x69c0
EndSplineSet
EndChar
StartChar: ampersand.001
Encoding: 65540 -1 93
Width: 1538
VWidth: 3622
Flags: W
HStem: -29 113<497.701 865.034> 1657 127<477.527 765.92>
VStem: 131 127<316.925 699.353> 175 131<1195.83 1490.03> 904 136<1202.64 1517.97> 1335 124<433.096 821.239>
Fore
258 511 m 0xec
 258 338 361 84 720 84 c 0
 860 84 1037 172 1114 249 c 1
 973 335 782 481 552 911 c 1
 326 847 258 644 258 511 c 0xec
306 1341 m 0xdc
 306 1219 386 1083 616 1083 c 0
 846 1083 904 1252 904 1357 c 256
 904 1492 809 1638 653 1657 c 0
 438 1657 306 1487 306 1341 c 0xdc
1324 925 m 0
 1404 925 1459 802 1459 651 c 0
 1459 537 1427 393 1337 272 c 1
 1412 212 1492 173 1548 152 c 2
 1597 131 l 2
 1620 121 1643 105 1643 84 c 0
 1643 68 1626 28 1581 28 c 0
 1571 28 1560 30 1548 34 c 2
 1455 68 l 2
 1358 104 1304 135 1235 187 c 1
 974 -22 808 -29 692 -29 c 0
 382 -29 131 188 131 513 c 0xec
 131 733 242 918 416 992 c 1
 268 1050 175 1197 175 1369 c 0
 175 1586 339 1784 626 1784 c 0
 920 1784 1040 1532 1040 1364 c 0
 1040 1290 1016 1018 685 959 c 1
 809 700 947 510 1208 347 c 1
 1261 366 1335 460 1335 637 c 0
 1335 798 1275 816 1275 871 c 0
 1275 890 1285 925 1324 925 c 0
EndSplineSet
EndChar
StartChar: uni0E33.alt1
Encoding: 65541 -1 94
Width: 999
VWidth: 3622
Flags: W
HStem: 1201 104<301.981 621.952> 1503 96<-785.829 -625.121> 1774 97<-786.357 -625.044>
VStem: -890 94<1610.14 1742.71> -616 96<1609.45 1764.3> 750 101<24.0151 281.185 281.185 333.5 333.5 420.585 420.585 593.694 593.694 1028.42>
Back
-591 1882 m 256
 -560.333 1882 -531.667 1876.33 -505 1865 c 128
 -478.333 1853.67 -455.333 1838.67 -436 1820 c 128
 -416.667 1801.33 -401.333 1778.67 -390 1752 c 128
 -378.667 1725.33 -373 1697.33 -373 1668 c 0
 -373 1636 -378.667 1607 -390 1581 c 128
 -401.333 1555 -416.667 1532.33 -436 1513 c 128
 -455.333 1493.67 -478.333 1478.67 -505 1468 c 128
 -531.667 1457.33 -560.333 1452 -591 1452 c 256
 -621.667 1452 -650 1457.33 -676 1468 c 128
 -702 1478.67 -724.667 1493.67 -744 1513 c 128
 -763.333 1532.33 -778.667 1555 -790 1581 c 128
 -801.333 1607 -807 1636 -807 1668 c 0
 -807 1697.33 -801.333 1725.33 -790 1752 c 128
 -778.667 1778.67 -763.333 1801.33 -744 1820 c 128
 -724.667 1838.67 -702 1853.67 -676 1865 c 128
 -650 1876.33 -621.667 1882 -591 1882 c 256
-593 1779 m 0
 -605.667 1779 -618.5 1776.17 -631.5 1770.5 c 128
 -644.5 1764.83 -656.333 1757 -667 1747 c 128
 -677.667 1737 -686.167 1725.17 -692.5 1711.5 c 128
 -698.833 1697.83 -702 1683.33 -702 1668 c 0
 -702 1634.67 -692 1607.17 -672 1585.5 c 128
 -652 1563.83 -625 1553 -591 1553 c 0
 -557.667 1553 -530.5 1563.83 -509.5 1585.5 c 128
 -488.5 1607.17 -478 1634.67 -478 1668 c 0
 -478 1698.67 -488.833 1724.33 -510.5 1745 c 128
 -532.167 1765.67 -559.667 1777 -593 1779 c 0
101 941 m 0
 105.667 1054.33 136.333 1143.33 193 1208 c 128
 249.667 1272.67 339.333 1305 462 1305 c 0
 558.667 1305 633.833 1288 687.5 1254 c 128
 741.167 1220 780.833 1171.67 806.5 1109 c 128
 832.167 1046.33 847.667 971.5 853 884.5 c 128
 858.333 797.5 861 700.667 861 594 c 2
 851 73 l 2
 849.667 52.3333 843.667 38 833 30 c 128
 822.333 22 810.833 18.1667 798.5 18.5 c 128
 786.167 18.8333 775 23.8333 765 33.5 c 128
 755 43.1667 750 56.3333 750 73 c 0
 750 104.333 750.667 156.667 752 230 c 128
 754 340 754 340 757 515 c 0
 763 749.667 757 899.333 739 964 c 0
 731 997.333 720.167 1028.33 706.5 1057 c 128
 692.833 1085.67 675.5 1110.67 654.5 1132 c 128
 633.5 1153.33 607.833 1170.17 577.5 1182.5 c 128
 547.167 1194.83 511 1201 469 1201 c 0
 423 1199.67 384 1193.5 352 1182.5 c 128
 320 1171.5 293.667 1155 273 1133 c 128
 252.333 1111 236.167 1083.17 224.5 1049.5 c 128
 212.833 1015.83 204 976 198 930 c 1
 193.333 917.333 185.667 908 175 902 c 128
 164.333 896 153.5 893.667 142.5 895 c 128
 131.5 896.333 121.833 900.833 113.5 908.5 c 128
 105.167 916.167 101 927 101 941 c 0
EndSplineSet
Refer: 77 3661 N 1 0 0 1 -469 0 2
Refer: 54 3634 N 1 0 0 1 0 0 2
EndChar
StartChar: uni0E10.alt1
Encoding: 63232 63232 96
Width: 1271
VWidth: 3622
Flags: W
HStem: 0 103<760.113 824.651> 340 93<406.415 610.178> 700 103<405.902 598.28> 847 110<163.48 566.255 566.255 675.592 620.923 929.773> 988 105<957.603 1032.74> 1222 101<359.289 718.521>
VStem: 41 118<914.395 1065.74> 270 105<463.565 671.355> 639 104<462.608 660.119> 952 99<504.724 828.02> 1033 104<1100.13 1166.63>
Fore
506 700 m 0xff80
 402 700 375 617 375 562 c 0
 375 489 426 433 516 433 c 0
 587 433 639 492 639 559 c 0
 639 629 585 693 506 700 c 0xff80
777 0 m 0
 614 0 649 268 631 363 c 1
 609 352 582 340 508 340 c 0
 358 340 270 457 270 575 c 0
 270 708 382 803 506 803 c 0
 646 803 743 725 743 471 c 0
 743 178 756 103 784 103 c 0
 854 103 952 533 952 732 c 0xffc0
 942 810 938 853 755 853 c 0
 497 853 460 847 386 847 c 2
 313 847 l 2
 104 847 41 870 41 961 c 0
 41 1103 288 1323 522 1323 c 0
 823 1323 819 1205 942 1112 c 0
 959 1100 981 1093 1006 1093 c 0
 1028 1093 1033 1106 1033 1128 c 0
 1033 1154 1050 1167 1084 1167 c 0
 1119 1167 1137 1153 1137 1125 c 0xffa0
 1137 1073 1101 988 990 988 c 0
 975 988 952 991 925 1006 c 0
 775 1093 771 1222 532 1222 c 0
 374 1222 159 1087 159 969 c 0
 159 959 187 957 364 957 c 2
 525 957 l 2
 661 957 756 960 823 960 c 0
 942 960 978 950 1010 895 c 0
 1035 859 1051 814 1051 723 c 0xffc0
 1051 662 1044 581 1026 468 c 0
 979 168 877 0 777 0 c 0
EndSplineSet
EndChar
StartChar: uni0E48.alt2
Encoding: 63242 63242 106
Width: 0
VWidth: 3622
Flags: W
HStem: 1597 490<-236.826 -185.963>
VStem: -262 101<1633 2055>
Fore
-262 2055 m 2
 -262 2073 -244 2087 -210 2087 c 0
 -174 2087 -161 2055 -161 2055 c 1
 -161 1633 l 1
 -174 1609 -190 1597 -210 1597 c 0
 -233 1597 -250 1609 -262 1633 c 1
 -262 2055 l 2
EndSplineSet
Substitution2: "Single Substitution lookup 20 subtable" uni0E48.alt3
Substitution2: "Single Substitution lookup 21 subtable" uni0E48
Substitution2: "Single Substitution lookup 22 subtable" uni0E48.alt1
Substitution2: "Single Substitution lookup 20 subtable" uni0E48.alt3
Substitution2: "Single Substitution lookup 21 subtable" uni0E48
Substitution2: "Single Substitution lookup 22 subtable" uni0E48.alt1
EndChar
StartChar: uni0E49.alt2
Encoding: 63243 63243 107
Width: 0
VWidth: 3622
Flags: W
HStem: 1491 21G<-743 -683.5> 1760 87<-761.745 -662.295> 1988 87<-743.58 -616.178>
VStem: -851 83<1854.31 1981.28> -612 88<1854.74 1968.09>
Fore
-677 2075 m 0
 -601 2075 -524 2028 -524 1911 c 0
 -524 1774 -607 1661 -667 1580 c 1
 -407 1648 -279 1733 -209 2041 c 0
 -205 2078 -169 2083 -157 2083 c 0
 -141 2083 -117 2073 -117 2015 c 0
 -117 1925 -173 1639 -480 1541 c 0
 -535 1523 -651 1491 -716 1491 c 0
 -770 1491 -789 1507 -789 1532 c 0
 -789 1538 -788 1545 -785 1553 c 1
 -686 1718 l 2
 -678 1732 -670 1747 -662 1763 c 1
 -669 1760 -681 1760 -697 1760 c 0
 -762 1760 -851 1801 -851 1916 c 0
 -851 1979 -795 2075 -677 2075 c 0
-688 1988 m 0
 -715 1988 -768 1975 -768 1923 c 0
 -768 1877 -734 1847 -688 1847 c 0
 -647 1847 -612 1883 -612 1923 c 0
 -612 1944 -620 1988 -688 1988 c 0
EndSplineSet
Substitution2: "Single Substitution lookup 20 subtable" uni0E49.alt3
Substitution2: "Single Substitution lookup 21 subtable" uni0E49
Substitution2: "Single Substitution lookup 22 subtable" uni0E49.alt1
Substitution2: "Single Substitution lookup 20 subtable" uni0E49.alt3
Substitution2: "Single Substitution lookup 21 subtable" uni0E49
Substitution2: "Single Substitution lookup 22 subtable" uni0E49.alt1
EndChar
StartChar: uni0E4A.alt2
Encoding: 63244 63244 108
Width: 0
VWidth: 3622
Flags: MW
HStem: 1498 82<-858.532 -783.789> 1666 85<-867.777 -774.02> 1988 99<-826.782 -714.23 -506.696 -408.271>
VStem: -973 103<1582.77 1796.92 1749 1821.23> -773 81<1580.88 1665.15> -647 90<1670.02 1904.93> -246 106<1788.06 2157.15>
Fore
-465 2092 m 0
 -366 2092 -264 1958 -264 1760 c 1
 -252 1806 -246 1857 -246 1914 c 0
 -246 2124 -328 2221 -328 2240 c 0
 -328 2257 -315 2280 -281 2280 c 0
 -199 2280 -140 2089 -140 1914 c 0
 -140 1680 -269 1516 -329 1516 c 0
 -347 1516 -386 1522 -393 1576 c 1
 -369 1645 -357 1700 -357 1742 c 0
 -357 1872 -416 1985 -455 1985 c 0
 -516 1985 -549 1834 -557 1721 c 1
 -567 1677 -589 1670 -603 1670 c 0
 -621 1670 -647 1687 -647 1725 c 0
 -647 1847 -716 1988 -777 1988 c 0
 -844 1988 -866 1809 -868 1749 c 1
 -859 1751 -859 1751 -822 1751 c 0
 -718 1751 -692 1673 -692 1624 c 0
 -692 1564 -712 1498 -822 1498 c 0
 -913 1498 -973 1536 -973 1746 c 0
 -973 1892 -901 2087 -777 2087 c 0
 -698 2087 -632 1999 -608 1949 c 1
 -583 2012 -527 2092 -465 2092 c 0
-870 1620 m 0
 -870 1596 -846 1580 -816 1580 c 0
 -799 1580 -776 1586 -773 1624 c 0
 -773 1647 -796 1666 -822 1666 c 0
 -850 1666 -870 1641 -870 1620 c 0
EndSplineSet
Substitution2: "Single Substitution lookup 20 subtable" uni0E4A.alt3
Substitution2: "Single Substitution lookup 21 subtable" uni0E4A
Substitution2: "Single Substitution lookup 22 subtable" uni0E4A.alt1
Substitution2: "Single Substitution lookup 20 subtable" uni0E4A.alt3
Substitution2: "Single Substitution lookup 21 subtable" uni0E4A
Substitution2: "Single Substitution lookup 22 subtable" uni0E4A.alt1
EndChar
StartChar: uni0E4B.alt2
Encoding: 63245 63245 109
Width: 0
VWidth: 3622
Flags: MW
HStem: 1794 100<-534.785 -276 -163 -24.9463 -24.9463 18.3362>
VStem: -271 103<1539.46 1790 1896 1992.54 1992.54 2147.67>
Fore
86 1852 m 0
 86 1796 -1 1794 -135 1794 c 2
 -163 1794 l 1
 -168 1594 l 2
 -168 1550 -207 1538 -225 1538 c 0
 -249 1538 -271 1554 -271 1594 c 2
 -271 1790 l 1
 -465 1797 l 2
 -506 1797 -536 1813 -536 1850 c 0
 -536 1888 -510 1903 -460 1903 c 2
 -276 1896 l 1
 -274 2101 l 2
 -274 2133 -248 2149 -222 2149 c 0
 -193 2149 -164 2131 -164 2092 c 0
 -168 2013 -168 1953 -168 1894 c 1
 -80 1894 l 2
 -31 1894 4 1900 29 1900 c 0
 82 1900 86 1860 86 1852 c 0
EndSplineSet
Substitution2: "Single Substitution lookup 20 subtable" uni0E4B.alt3
Substitution2: "Single Substitution lookup 21 subtable" uni0E4B
Substitution2: "Single Substitution lookup 22 subtable" uni0E4B.alt1
Substitution2: "Single Substitution lookup 20 subtable" uni0E4B.alt3
Substitution2: "Single Substitution lookup 21 subtable" uni0E4B
Substitution2: "Single Substitution lookup 22 subtable" uni0E4B.alt1
EndChar
StartChar: uni0E4C.alt2
Encoding: 63246 63246 110
Width: 0
VWidth: 3622
Flags: W
HStem: 1502 109<-495.757 -351.303> 1781 92<-499.576 -345.166> 2043 95<-412.73 -89.8163>
VStem: -662 144<1654 1764.55> -338 94<1625.41 1773.54>
Fore
-417 1781 m 0
 -457 1781 -518 1763 -518 1654 c 1
 -487 1615 -461 1611 -436 1611 c 0
 -375 1611 -338 1654 -338 1704 c 0
 -338 1744 -364 1781 -417 1781 c 0
-22 2006 m 0
 -38 2006 -118 2043 -221 2043 c 0
 -353 2043 -522 1986 -561 1809 c 1
 -544 1830 -489 1873 -414 1873 c 0
 -325 1873 -244 1790 -244 1689 c 0
 -244 1578 -348 1502 -444 1502 c 0
 -547 1502 -662 1605 -662 1753 c 0
 -662 1926 -513 2138 -241 2138 c 0
 -169 2138 -90 2123 0 2087 c 1
 15 2075 21 2061 21 2049 c 0
 21 2026 2 2006 -22 2006 c 0
EndSplineSet
Substitution2: "Single Substitution lookup 20 subtable" uni0E4C.alt3
Substitution2: "Single Substitution lookup 21 subtable" uni0E4C
Substitution2: "Single Substitution lookup 22 subtable" uni0E4C.alt1
Substitution2: "Single Substitution lookup 20 subtable" uni0E4C.alt3
Substitution2: "Single Substitution lookup 21 subtable" uni0E4C
Substitution2: "Single Substitution lookup 22 subtable" uni0E4C.alt1
EndChar
StartChar: uni0E0D.alt1
Encoding: 63247 63247 111
Width: 1775
VWidth: 3622
Flags: W
HStem: 4 103<353.44 544.899 1047.57 1456.34 1395.34 1517.34> 7 108<1038 1189.11> 340 90<371.981 545.725> 1201 102<360.671 750.735>
VStem: 232 102<121.291 554.797> 570 101<125.708 315.163> 936 102<115 314.504> 952 102<371.036 951.215> 1519 105<111 191.608 191.608 435.262 435.262 488.5 488.5 986.152 986.152 1265.97>
Fore
1624 242 m 2xbe80
 1624 2 1617 4 1430 4 c 0xbe80
 1302 4 1124 7 1008 7 c 0
 939 7 936 44 936 69 c 2x7e80
 952 617 l 2
 952 1006 829 1201 584 1201 c 0
 362 1201 162 1074 140 953 c 1
 343 876 l 1
 360 865 364 819 364 730 c 0
 364 666 362 603 352 412 c 1
 375 426 412 430 463 430 c 0
 602 430 671 328 671 224 c 0
 671 116 597 6 451 6 c 0
 341 6 232 80 232 218 c 0
 232 372 249 688 264 798 c 1
 205 836 23 860 23 927 c 0
 23 1086 293 1303 554 1303 c 0
 954 1303 1047 1045 1054 578 c 2x7d80
 1038 115 l 1x7e80
 1118 109 1195 107 1273 107 c 0
 1352 107 1432 109 1518 111 c 1
 1518 144 1519 161 1519 276 c 0
 1519 404 1521 436 1521 596 c 0
 1521 991 1513 1149 1513 1218 c 0
 1513 1257 1524 1300 1562 1300 c 0
 1576 1300 1617 1290 1617 1220 c 2
 1620 653 l 2
 1623 542 1624 435 1624 324 c 258
 1624 242 l 2xbe80
449 99 m 0
 528 99 570 162 570 223 c 0
 570 282 531 340 449 340 c 0
 357 340 334 262 334 218 c 256
 334 172 357 99 449 99 c 0
EndSplineSet
EndChar
StartChar: uni0E38.alt1
Encoding: 63256 63256 120
Width: 0
VWidth: 3622
Flags: W
HStem: -941 92<-378.164 -201.399> -624 93<-373.305 -189.802>
VStem: -492 97<-804.861 -671.095> -157 99<-1072 -1046.51 -1046.51 -975.508 -975.508 -926 -926 -911 -827.854 -649.814>
Fore
-164 -741 m 0
 -164 -670 -222 -624 -272 -624 c 0
 -380 -624 -395 -701 -395 -736 c 0
 -395 -791 -372 -849 -283 -849 c 0
 -194 -849 -164 -784 -164 -741 c 0
-162 -1080 m 0
 -162 -1064 -157 -1050 -157 -1012 c 0
 -157 -955 -156 -955 -156 -941 c 0
 -156 -931 -157 -921 -157 -911 c 1
 -197 -938 -242 -941 -283 -941 c 0
 -394 -941 -437 -892 -451 -865 c 0
 -478 -816 -492 -767 -492 -716 c 0
 -492 -632 -417 -531 -284 -531 c 0
 -148 -531 -58 -585 -58 -823 c 2
 -58 -1072 l 1
 -74 -1116 -103 -1121 -122 -1121 c 0
 -146 -1121 -162 -1112 -162 -1080 c 0
EndSplineSet
EndChar
StartChar: uni0E39.alt1
Encoding: 63257 63257 121
Width: 0
VWidth: 3622
Flags: MW
HStem: -960 90<-676.767 -482.178> -647 95<-649.842 -510.365>
VStem: -791 97<-825.428 -693.059> -460 103<-1005 -985.733 -985.733 -934.151 -848.087 -670.34> -203 99<-998 -979.459 -979.459 -979.046 -979.046 -878.754 -878.754 -755.431 -755.431 -575.521>
Fore
-467 -1044 m 0
 -467 -1005 -460 -997 -460 -966 c 2
 -460 -934 l 1
 -499 -951 -509 -960 -582 -960 c 0
 -699 -960 -736 -908 -748 -884 c 0
 -777 -838 -791 -789 -791 -736 c 0
 -791 -659 -724 -552 -583 -552 c 0
 -399 -552 -353 -676 -353 -836 c 0
 -353 -847 -354 -858 -354 -870 c 0
 -354 -904 -357 -946 -357 -954 c 2
 -357 -1005 l 1
 -264 -1001 -280 -1000 -202 -998 c 1
 -203 -986 -203 -974 -203 -960 c 2
 -203 -927 l 2
 -206 -900 -207 -868 -207 -830 c 2
 -207 -617 l 2
 -207 -586 -185 -573 -162 -573 c 0
 -136 -573 -108 -591 -108 -621 c 0
 -108 -708 -108 -800 -104 -890 c 2
 -102 -960 l 2
 -101 -982 -101 -1009 -101 -1040 c 0
 -101 -1087 -127 -1100 -153 -1100 c 0
 -160 -1100 -166 -1099 -172 -1098 c 1
 -386 -1109 l 2
 -402 -1109 -467 -1095 -467 -1044 c 0
-582 -870 m 0
 -487 -870 -466 -805 -463 -773 c 0
 -463 -663 -543 -647 -571 -647 c 0
 -620 -647 -651 -657 -665 -677 c 0
 -684 -706 -694 -737 -694 -767 c 0
 -694 -823 -657 -870 -582 -870 c 0
EndSplineSet
EndChar
StartChar: uni0E3A.alt1
Encoding: 63258 63258 122
Width: 0
VWidth: 3622
Flags: W
HStem: -883 253<-315.201 -117.611>
VStem: -343 255<-854.193 -658.809>
Fore
-218 -630 m 256
 -142 -630 -88 -680 -88 -755 c 0
 -88 -828 -140 -883 -218 -883 c 256
 -295 -883 -343 -827 -343 -755 c 0
 -343 -681 -295 -630 -218 -630 c 256
EndSplineSet
EndChar
StartChar: uni0E0E.alt1
Encoding: 63259 63259 123
Width: 1333
VWidth: 3622
Flags: W
HStem: -410 97<223.523 566.836> -39 99<255.462 679.475> 73 95<158.17 322.681> 410 91<149.146 341.564> 1233 104<436.072 912.447>
VStem: 35 94<197.743 386.255> 101 94<-283.666 -93.2396> 368 108<254.857 347.202> 398 87<450.772 498.785 498.785 620.5 535.636 832.895> 1081 109<-193 -0.34375 -0.34375 426.592 213.124 1035.27>
Fore
1116 -357 m 0xfcc0
 1049 -357 1027 -238 821 -138 c 1
 783 -319 562 -410 384 -410 c 0
 239 -410 101 -340 101 -180 c 0
 101 12 278 60 421 60 c 0
 550 60 686 27 739 -4 c 1
 745 46 l 2
 750 106 791 113 803 113 c 0
 835 113 851 89 851 42 c 1
 838 -34 l 1
 940 -76 1000 -124 1028 -150 c 2
 1074 -193 l 1
 1081 285 l 2
 1083 383 1084 474 1084 568 c 0
 1084 1063 1026 1233 693 1233 c 0
 378 1233 231 1082 202 987 c 1
 303 954 356 948 456 913 c 0
 479 904 485 859 485 662 c 0xfac0
 485 523 476 265 476 264 c 0xf940
 464 99 298 73 251 73 c 0
 185 73 35 106 35 285 c 0
 35 346 71 501 244 501 c 0
 309 501 361 476 398 448 c 1
 398 479 400 489 400 551 c 0
 400 607 402 634 402 690 c 0
 402 736 401 819 394 824 c 0
 367 842 336 855 300 864 c 2
 198 888 l 2
 100 911 80 930 80 959 c 0
 83 1066 265 1337 672 1337 c 0
 1111 1337 1190 1102 1190 640 c 0
 1190 -24 1178 -140 1178 -180 c 0
 1178 -259 1166 -357 1116 -357 c 0xfcc0
249 410 m 0
 188 410 129 372.38 129 308 c 0
 129 220 180 168 258 168 c 0
 346 168 368 265 368 295 c 0xfd40
 368 338 334 410 249 410 c 0
195 -193 m 0xfa40
 195 -285 272 -313 364 -313 c 0
 491 -313 698 -247 725 -104 c 1
 668 -71 538 -39 426 -39 c 0
 330 -39 195 -70 195 -193 c 0xfa40
EndSplineSet
EndChar
StartChar: uni0E0F.alt1
Encoding: 63260 63260 124
Width: 1337
VWidth: 3622
Flags: W
HStem: -402 95<145.483 335.324> -66 100<152.016 323.278> 63 95<203.365 366.369> 400 90<179.899 368.677> 1228 102<449.791 911.024>
VStem: 29 94<-259.538 -93.5448> 63 94<187.859 376.2> 370 102<4 55.2717> 408 87<251.656 363.008 448.002 706.446 574.824 758.292 758.292 824> 1090 104<140.309 1002.48>
Fore
1061 -414 m 0xfac0
 994 -414 874 -189 828 -152 c 1
 825 -155 818 -168 806 -191 c 2
 741 -320 l 2
 729 -342 691 -417 658 -417 c 0
 616 -417 580 -384 456 -191 c 1
 456 -259 425 -402 238 -402 c 0
 119 -402 29 -316 29 -174 c 0
 29 -49 124 34 251 34 c 0
 296 34 335 24 370 4 c 1
 370 49 380 88 418 88 c 0
 440 88 470 67 472 27 c 2xfd40
 481 -50 l 1
 534 -120 610 -246 644 -294 c 1
 706 -176 l 2
 750 -90 778 -27 817 -27 c 0
 844 -27 890 -39 952 -133 c 2
 1063 -292 l 1
 1089 -26 1090 244 1090 378 c 2
 1090 570 l 2
 1090 1069 1020 1228 690 1228 c 0
 403 1228 259 1075 230 980 c 1
 476 913 l 1
 481 910 495 913 495 530 c 0
 495 400 493 373 493 269 c 0
 481 129 350 63 278 63 c 0
 234 63 63 83 63 271 c 0
 63 414 163 490 273 490 c 0
 395 490 404 447 407 447 c 0
 408 447 408 452 408 462 c 0
 408 508 404 531 404 693 c 0
 404 732 405 776 405 824 c 1
 338 865 113 869 110 953 c 0
 117 1053 267 1330 683 1330 c 0
 1096 1330 1194 1102 1194 633 c 0
 1194 620 1193 -137 1158 -315 c 0
 1142 -402 1112 -414 1061 -414 c 0xfac0
267 400 m 0
 204 400 157 347 157 287 c 0xfa40
 157 210 210 158 288 158 c 0
 371 158 397 259 397 279 c 0
 397 318 371 400 267 400 c 0
214 -307 m 0
 361 -307 361 -211 361 -172 c 0
 361 -96 290 -66 245 -66 c 0
 173 -66 123 -126 123 -186 c 0xfc40
 123 -226 148 -307 214 -307 c 0
EndSplineSet
EndChar
StartChar: uni0E2C.alt1
Encoding: 63261 63261 125
Width: 1659
VWidth: 3622
Flags: W
HStem: 11 118<1165.71 1277.61> 801 103<193.339 409.498> 957 103<1016.97 1192.06> 1233 106<186.934 412.629> 1291 96<1031.64 1205.93>
VStem: 41 104<952.965 1189.96> 485 109<145.558 442 442 872> 893 103<1082.28 1254.88> 1243 107<131.811 699 699 877.016 877.016 983 1083.82 1086>
Fore
299 1339 m 0xf780
 575 1339 594 1184 594 746 c 2
 608 138 l 1
 642 211 735 407 817 831 c 0
 820 844 829 897 876 897 c 0
 909 897 927 874 932 828 c 0
 1013 499 1151 129 1206 129 c 0
 1221 129 1243 254 1243 699 c 2
 1243 772 l 2
 1243 878 1241 856 1236 983 c 1
 1159 966 1159 957 1118 957 c 0
 979 957 893 1058 893 1180 c 0
 893 1289 976 1387 1106 1387 c 0xef80
 1198 1387 1286 1363 1344 1233 c 1
 1363 1241 1410 1312 1450 1312 c 0
 1480 1312 1502 1290 1502 1256 c 0
 1502 1198 1390 1109 1350 1086 c 1
 1350 732 l 2
 1350 227 1334 11 1224 11 c 0
 1072 11 940 393 879 610 c 1
 822 356 691 11 582 11 c 0
 504 11 485 124 485 460 c 2
 485 872 l 1
 436 822 369 801 306 801 c 0
 162 801 41 921 41 1072 c 256
 41 1222 144 1339 299 1339 c 0xf780
306 904 m 0
 393 904 452 975 456 1070 c 0
 456 1163 404 1233 302 1233 c 0xf780
 241 1233 145 1201 145 1072 c 0
 145 976 209 904 306 904 c 0
1121 1060 m 0
 1185 1060 1240 1102 1240 1164 c 0
 1240 1224 1182 1291 1121 1291 c 0xef80
 1046 1291 996 1217 996 1159 c 0
 996 1125 1022 1060 1121 1060 c 0
EndSplineSet
EndChar
StartChar: uni0E4F.liga
Encoding: 63616 63616 126
Width: 1630
VWidth: 3622
Flags: W
HStem: 71 118<907.918 1133.11> 140 116<361.997 606.864> 472 108<723.22 857.621> 730 108<705.064 854.177> 1090 125<1070 1262.28> 1164 113<485.795 735.408>
VStem: 156 122<342.467 521.382> 297 112<888.07 1090.89> 571 79<1519.63 1797.73> 594 101<588.708 720.534> 740 76<1493.36 1708.66> 865 104<615.89 699.254> 888 70<1497.19 1681.04> 1046 85<1533.56 1750> 1217 131<273.085 472.78> 1351 128<761.462 1000.02>
Fore
1348 379 m 0x3b27
 1348 193 1152 71 998 71 c 0xbb27
 904 71 781 109 722 267 c 1
 615 155 542 140 467 140 c 0
 263 140 156 338 156 469 c 0
 156 514 165 689 393 741 c 1
 348 798 297 882 297 985 c 0
 297 1141 452 1277 628 1277 c 0x7727
 738 1277 867 1222 907 1061 c 1
 1011 1194 1114 1215 1171 1215 c 0
 1324 1215 1479 1059 1479 890 c 0
 1479 807 1437 662 1261 587 c 1
 1345 490 1348 405 1348 379 c 0x3b27
764 472 m 0
 673 472 594 531 594 633 c 0
 594 713 625 838 781 838 c 0
 917 838 969 727 969 656 c 0x3377
 969 610 947 472 764 472 c 0
1079 1863 m 1
 1116 1839 1131 1798 1131 1739 c 0
 1131 1645 1069 1383 948 1383 c 1
 904 1406 888 1463 888 1528 c 0x332f
 888 1603 920 1786 1024 1840 c 0
 1040 1850 1059 1857 1079 1863 c 1
781 730 m 0
 733 730 695 697 695 646 c 0
 695 601 747 580 779 580 c 0
 849 580 865 627 865 656 c 0x3377
 865 679 835 730 781 730 c 0
969 1491 m 1
 988 1507 1046 1595 1046 1655 c 0
 1046 1695 1027 1702 1023 1702 c 0
 1011 1702 958 1625 958 1549 c 0x332f
 958 1526 963 1505 969 1491 c 1
761 1380 m 1
 630 1380 571 1612 571 1758 c 0x33a7
 571 1843 601 1869 617 1875 c 1
 677 1855 816 1794 816 1545 c 0
 816 1486 807 1402 761 1380 c 1
740 1546 m 0
 740 1679 688 1728 669 1728 c 0
 658 1728 650 1718 650 1677 c 0
 650 1598 700 1487 723 1487 c 0
 732 1487 740 1513 740 1546 c 0
881 876 m 0
 860 876 821 891 821 925 c 0
 817 999 803 1060 752 1106 c 0
 714 1145 669 1164 616 1164 c 0
 530 1164 409 1106 409 973 c 0
 409 933 425 873 509 775 c 1
 526 764 534 749 534 730 c 0
 534 709 524 665 478 647 c 1
 292 607 278 503 278 467 c 0
 278 376 359 256 474 256 c 0x7727
 591 256 641 329 669 373 c 1
 678 402 698 417 728 417 c 0
 765 417 786 405 789 379 c 0
 827 200 959 189 1003 189 c 0
 1098 189 1217 267 1217 389 c 0
 1217 450 1183 511 1114 571 c 1
 1110 586 1107 600 1107 612 c 0
 1107 629 1112 641 1137 654 c 0
 1281 706 1351 786 1351 874 c 0
 1351 934 1329 984 1286 1024 c 0
 1243 1068 1196 1090 1144 1090 c 0xbb27
 1064 1090 995 1057 945 927 c 0
 932 893 911 876 881 876 c 0
EndSplineSet
LCarets2: 1 0 
Ligature2: "'liga' Standard Ligatures in Latin lookup 19 subtable" uni0E4F quotedbl
EndChar
StartChar: uni0E24.liga
Encoding: 63617 63617 127
Width: 2004
VWidth: 3622
Flags: W
HStem: -8 96<390.807 576.965> 327 94<405.594 585.408> 1224 103<354.132 723.841> 1247 96<1284.73 1607.87>
VStem: 276 140<597.736 673 673 732.754 732.754 813.726> 278 90<205 405> 613 92<124.187 298.156> 1056 108<-707.217 36.8568> 1075 103<-100.553 629.288> 1732 99<-702.954 -588.915 -588.915 -464.138 -464.138 -391.488> 1735 112<-283.098 716.477 716.477 927.516>
Fore
630 1327 m 0xe6
 696 1327 985 1319 1083 1107 c 1
 1117 1208 1212 1343 1442 1343 c 0
 1619 1343 1815 1283 1839 942 c 0
 1844 865 1847 784 1847 700 c 2
 1847 352 l 2xd620
 1847 119 1838 -518 1831 -658 c 0
 1831 -686 1797 -704 1778 -704 c 0
 1747 -704 1732 -687 1732 -653 c 0xd240
 1732 -612 1733 -583 1733 -524 c 0
 1734 -487 1735 -447 1735 -404 c 2
 1735 656 l 2
 1735 696 1736 736 1737 777 c 0
 1737 916 1715 1084 1629 1182 c 0
 1592 1225 1534 1247 1454 1247 c 0
 1271 1247 1172 1145 1157 941 c 1
 1153 934 1143 931 1143 920 c 1
 1164 797 1178 608 1178 295 c 0xd2a0
 1178 73 1172 -221 1169 -391 c 2
 1164 -646 l 2
 1164 -703 1111 -714 1098 -714 c 0
 1075 -714 1061 -693 1056 -651 c 1xd3
 1064 -320 1070 -17 1075 281 c 2
 1075 370 l 2
 1075 811 1030 1033 923 1132 c 0
 839 1207 704 1224 629 1224 c 0
 348 1224 204 1128 142 975 c 1
 389 897 l 1
 412 879 416 830 416 792 c 0
 416 758 414 718 410 673 c 2
 384 400 l 1
 397 409 421 421 468 421 c 0
 658 421 705 288 705 210 c 0
 705 154 663 -8 468 -8 c 0
 405 -8 262 56 262 205 c 0
 265 262 270 323 276 384 c 0xea80
 276 388 278 401 278 405 c 0
 309 688 305 810 315 814 c 1
 185 875 19 876 19 941 c 0
 19 992 95 1327 630 1327 c 0xe6
613 216 m 0
 613 278 550 327 481 327 c 0
 384 327 368 240 368 205 c 0
 368 178 379 88 481 88 c 0
 560 88 613 156 613 216 c 0
EndSplineSet
LCarets2: 1 0 
Ligature2: "'liga' Standard Ligatures in Latin lookup 19 subtable" uni0E24 uni0E45
Ligature2: "'liga' Standard Ligatures in Latin lookup 19 subtable" uni0E24 uni0E32
EndChar
StartChar: uni0E26.liga
Encoding: 63618 63618 128
Width: 2004
VWidth: 3622
Flags: W
HStem: -1 96<158.621 340.529> 337 89<153.436 342.695> 1240 104<444.141 901.81 1278.07 1611.84>
VStem: 35 94<124.093 311.912> 393 93<388.064 773.967> 1056 108<-670 -328 -328 -240.046 -240.046 -179 -179 -81.5 -81.5 392.633 392.633 403.554 398.093 835.878 630.984 881.515> 1735 109<-689.226 -588.915 -588.915 -524 -524 -464.138 -464.138 249.231 249.231 716.477 716.477 927.516>
Fore
387 386 m 1
 391 449 393 508 393 561 c 0
 393 664 378 832 375 833 c 0
 290 881 81 888 81 959 c 0
 90 1092 322 1344 673 1344 c 0
 776 1344 908 1315 985 1265 c 0
 1030 1233 1066 1190 1093 1137 c 1
 1144 1238 1234 1343 1442 1343 c 0
 1619 1343 1815 1283 1839 942 c 0
 1844 865 1847 784 1847 700 c 2
 1847 352 l 2
 1847 288 1847 220 1846 146 c 2
 1844 -79 l 2
 1839 -691 1835 -673 1813 -690 c 0
 1801 -699 1789 -704 1778 -704 c 0
 1747 -704 1732 -687 1732 -653 c 0
 1732 -612 1733 -583 1733 -524 c 0
 1734 -487 1735 -447 1735 -404 c 2
 1735 656 l 2
 1735 696 1736 736 1737 777 c 0
 1737 916 1715 1084 1629 1182 c 0
 1592 1225 1534 1247 1454 1247 c 0
 1271 1247 1172 1145 1157 941 c 1
 1151 934 l 1
 1159 873 1164 808 1164 736 c 0
 1164 652 1166 630 1166 525 c 256
 1166 427 1164 403 1164 281 c 2
 1164 23 l 2
 1164 -61 1162 -102 1162 -186 c 0
 1161 -223 1160 -259 1160 -294 c 2
 1160 -670 l 1
 1144 -693 1129 -704 1114 -704 c 0
 1092 -704 1052 -681 1052 -665 c 2
 1052 -426 l 2
 1052 -348 1054 -308 1054 -230 c 0
 1055 -196 1056 -162 1056 -128 c 2
 1056 210 l 2
 1056 262 1065 490 1065 631 c 0
 1065 1073 1004 1240 691 1240 c 0
 387 1240 242 1085 200 987 c 1
 448 914 l 2
 480 900 486 808 486 587 c 0
 486 472 482 402 479 356 c 2
 469 189 l 2
 460 53 337 -1 253 -1 c 0
 175 -1 35 42 35 214 c 0
 35 321 109 426 247 426 c 0
 364 426 377 386 387 386 c 1
249 337 m 0
 183 337 129 293 129 223 c 0
 129 145 187 95 257 95 c 0
 349 95 369 195 369 214 c 0
 369 240 353 337 249 337 c 0
EndSplineSet
LCarets2: 1 0 
Ligature2: "'liga' Standard Ligatures in Latin lookup 19 subtable" uni0E26 uni0E45
Ligature2: "'liga' Standard Ligatures in Latin lookup 19 subtable" uni0E26 uni0E32
EndChar
StartChar: MALI
Encoding: 65543 -1 129
Width: 3408
VWidth: 3622
Flags: W
HStem: -486 42<2939.82 3194.05 5269.38 5562.03> -476 43<320.668 600.443 1093.24 1399.32 1706.63 1932.18 2333.44 2555.92 3299.86 3332 4677.37 4953.32> -463 81<4334.01 4396.01> -435 37<-1527.02 -1344.98 -982.152 -706.347> -315 32<367.191 575.865 645.348 757.258> -4 36<2954.66 3179.27 5918.5 6060.87 6210.35 6361.29> 4 46<1703.69 1987.95 2328.25 2612.75 4687.3 4921.11 5266.44 5553.23> 28 45<-345.068 -135.939> 50 42<-968.502 -746.599> 69 37<-1915.13 -1732.2 387.79 569.322> 111 158<3456.33 3557.03> 216 37<323.054 672.271 1149.17 1395.3> 646 92<1853.55 2146.89> 731 88<1215.04 1486.3> 1091 82<417 448.373 367.612 658.91 3003.66 3208.82 3127.67 3159> 1113 102<1620.34 1827.27> 1265 78<475.751 692.174 2885.88 3101.21> 1456 101<1620.23 1713.05 1713.05 1722.72 1723.23 1730.98 1730.98 1822.58> 1479 72<478.055 698.836 2878.71 3095.26> 1645 76<428 446.431 446.431 659.982 2916.26 3133 3133 3148> 1900 95<2044.86 2307.57> 1992 81<1367.98 1667.28>
VStem: -2041 42<-414.375 -400 -398 -368.323 -368.323 -195.5 -195.5 -69 -69 7> -1698 41<-402 39.7359> -1603 41<-368.038 80.7748> -1261 42<-349.858 -347 -347 -260 -76.2321 69 71 85.073> -1095 43<-328.941 -37.6821> -462 40<-453.305 -401.115 -401.115 -352.138 -376.627 6.75165> -80 41<-457.165 -36.7191> 120 43<-279.056 50.6673> 294 35<-245.625 -69.9685> 607 26<-256.741 -114.292> 626 43<15.4923 74.6409> 805 39<-182.394 86.7832> 978 39<-354.805 -188.881> 982 95<960.265 1230.7> 1061 45<5.92676 31.6384 15.8428 163.395> 1157 83<1581.07 1868.93> 1431 39<2.2577 144.475> 1449 35<-380.522 -160.396> 1496 96<1244.93 1429.7> 1565 73<2505.04 2708.09 2627.23 2659> 1585 44<-352.463 -70.8989> 1739 78<2385.06 2599.84> 1855 100<1240.55 1423.42> 1953 72<2376.77 2597.16> 2036 46<-335.952 -211.077 -211.077 -46.0488 -26.7929 203.18> 2119 76<2416.11 2632.48 2632.48 2648> 2209 44<-352.463 -70.9128> 2291 104<874.832 1147.46> 2453 101<1470.02 1755.04> 2662 44<-334.395 -211.077 -211.077 -46.0488 -180.985 214.206> 2835 43<-378.685 -86.3126> 3235 43<-402.266 -370 -370 -104.139> 3242 55<-53 18.2246> 3447 156<158.738 259.578> 3483 46<-483.482 -229 -229 -229 -229 23.3857> 3737 39<-504.187 370.756> 4279 42<-81.8983 28.2304> 4334 79<-442.634 -402.157> 4567 42<-365.927 -76.2184> 5153 44<-373.139 -64.9044> 5635 43<-374.215 -79.3021> 5802 47<-491.397 -331.687 -143 -58 -58 -9.12339> 6113 44<-492.677 -401.715 -401.715 -207.239> 6400 40<-481.02 -356.892 -356.892 -37.4922>
Fore
-2054 101 m 256x190093fe4413f87fc0
 -2021 101 -2002 31 -1999 18 c 1
 -1999 -69 l 1
 -1974 86 -1908 106 -1831 106 c 0
 -1718 106 -1657 55 -1657 -140 c 2
 -1657 -402 l 1
 -1662 -410 -1669 -414 -1680 -414 c 0
 -1692 -414 -1698 -410 -1698 -402 c 2
 -1700 -136 l 2
 -1706 -21 -1708 69 -1834 69 c 0x084093fe4413f87fc0
 -1955 69 -1985 -136 -1985 -336 c 0
 -1985 -364 -1985 -386 -1986 -400 c 0
 -1986 -413 -1994 -419 -2009 -419 c 0
 -2024 -419 -2031 -412 -2031 -398 c 2
 -2041 7 l 1
 -2048 28 l 1
 -2057 45 -2078 70 -2078 81 c 256
 -2078 89 -2068 101 -2054 101 c 256x190093fe4413f87fc0
-1205 -430 m 256
 -1242 -430 -1259 -364 -1261 -347 c 2
 -1261 -260 l 1
 -1285 -412 -1351 -435 -1431 -435 c 0
 -1563 -435 -1603 -351 -1603 -189 c 2
 -1603 73 l 1
 -1602 80 -1594 83 -1580 83 c 0
 -1568 83 -1562 80 -1562 73 c 2
 -1560 -193 l 2
 -1554 -305 -1551 -398 -1426 -398 c 0x190093fe4413f87fc0
 -1257 -398 -1277 6 -1274 71 c 0
 -1274 84 -1267 90 -1252 90 c 0
 -1237 90 -1229 83 -1229 69 c 2
 -1219 -336 l 2
 -1219 -342 -1218 -347 -1216 -350 c 2
 -1204 -372 l 2
 -1188 -397 -1182 -402 -1182 -410 c 0
 -1182 -423 -1190 -430 -1205 -430 c 256
-837 92 m 0x088093fe4413f87fc0
 -756 92 -619 41 -619 -60 c 0
 -619 -69 -626 -73 -640 -73 c 0
 -652 -73 -666 -68 -669 -53 c 1
 -709 36 -791 50 -837 50 c 256
 -982 50 -1052 -68 -1052 -186 c 256
 -1052 -280 -1011 -394 -844 -394 c 0
 -630 -394 -669 -226 -624 -226 c 0
 -611 -226 -605 -234 -605 -249 c 0
 -605 -302 -668 -439 -844 -439 c 0
 -1010 -439 -1095 -329 -1095 -186 c 256
 -1095 -64 -1024 92 -837 92 c 0x088093fe4413f87fc0
-421 384 m 0
 -407 384 -394 375 -394 361 c 2
 -419 -65 l 1
 -412 -23 -363 73 -235 73 c 0
 -45 68 -39 -82 -39 -446 c 0
 -39 -457 -45 -462 -57 -462 c 0
 -72 -462 -80 -454 -80 -439 c 0
 -80 -109 -95 28 -235 28 c 0x090093fe4413f87fc0
 -407 28 -422 -181 -422 -353 c 0
 -422 -387 -421 -420 -421 -449 c 0
 -421 -456 -425 -460 -433 -460 c 0
 -445 -460 -459 -452 -462 -448 c 1
 -465 -387 -467 -323 -467 -256 c 0
 -467 -217 -464 384 -421 384 c 0
1084 0 m 0
 1066 0 1061 65 1061 65 c 1
 1061 174 1166 248 1270 248 c 0
 1376 248 1470 168 1470 67 c 0x080093fe4e13f87fc0
 1470 8 1443 -67 1355 -90 c 1
 1458 -114 1484 -211 1484 -279 c 256
 1484 -354 1427 -467 1261 -467 c 0
 1053 -467 978 -365 978 -212 c 0
 978 -193 985 -184 998 -184 c 256
 1011 -184 1017 -190 1017 -203 c 0
 1017 -385 1136 -430 1252 -430 c 0
 1404 -430 1449 -343 1449 -285 c 0x080093fe6513f87fc0
 1449 -146 1350 -111 1258 -111 c 0
 1245 -111 1238 -105 1238 -92 c 0
 1238 -65 1329 -84 1390 -24 c 0
 1417 4 1431 38 1431 78 c 0
 1431 115 1407 209 1272 209 c 0
 1162 209 1102 143 1102 42 c 0
 1102 40 1104 29 1106 21 c 1x080093fe4e13f87fc0
 1103 7 1096 0 1084 0 c 0
1841 -433 m 0x4a0093fe4433f87fc0
 1940 -433 2038 -367 2038 -274 c 0
 2038 -223 2039 -223 2039 -147 c 0
 2039 -26 1912 4 1845 4 c 0
 1753 4 1629 -41 1629 -219 c 0
 1629 -369 1750 -433 1841 -433 c 0x4a0093fe4433f87fc0
1585 -219 m 0
 1585 -40 1708 50 1834 50 c 256
 1952 50 1998 18 2039 -28 c 1
 2036 -2 2036 8 2036 17 c 2
 2036 18 l 2
 2036 75 2040 170 2048 275 c 2
 2061 439 l 2
 2061 450 2068 456 2082 456 c 0
 2093 456 2100 451 2103 440 c 1
 2083 203 2082 82 2082 -200 c 0
 2082 -331 2091 -385 2112 -419 c 1
 2130 -435 l 1x1a0093fe4433f87fc0
 2130 -441 2131 -445 2133 -448 c 1
 2133 -458 2126 -463 2112 -463 c 0x280093fe4433f87fc0
 2101 -463 2092 -458 2084 -448 c 2
 2069 -432 l 1
 2062 -422 2052 -410 2048 -380 c 1
 1949 -472 1856 -476 1831 -476 c 0
 1755 -476 1585 -425 1585 -219 c 0
2466 -433 m 0x4a0093fe4413f87fc0
 2561 -433 2662 -369 2662 -274 c 0
 2662 -223 2664 -223 2664 -147 c 0
 2664 -26 2535 4 2469 4 c 0
 2379 4 2253 -41 2253 -219 c 0
 2253 -369 2375 -433 2466 -433 c 0x4a0093fe4413f87fc0
2209 -219 m 0
 2209 -65 2309 50 2459 50 c 256
 2578 50 2623 17 2664 -28 c 1
 2662 -19 2660 -5 2660 18 c 0
 2660 75 2664 170 2672 275 c 2
 2685 439 l 2
 2685 450 2692 456 2706 456 c 0
 2717 456 2724 451 2727 440 c 1
 2708 203 2706 81 2706 -200 c 0
 2706 -328 2715 -384 2736 -419 c 1
 2754 -435 l 1x1a0093fe4413f87fc0
 2754 -441 2755 -445 2758 -448 c 1
 2758 -458 2751 -463 2736 -463 c 0x280093fe4413f87fc0
 2725 -463 2716 -458 2708 -448 c 2
 2694 -432 l 2
 2678 -412 2676 -403 2673 -380 c 1
 2573 -471 2481 -476 2455 -476 c 0
 2379 -476 2209 -425 2209 -219 c 0
3062 -444 m 0x8c0093fe4413fc7fc0
 3193 -444 3235 -391 3235 -219 c 2
 3232 -147 l 2
 3214 -43 3126 -4 3069 -4 c 0
 2916 -4 2878 -174 2878 -219 c 0
 2878 -323 2915 -444 3062 -444 c 0x8c0093fe4413fc7fc0
3348 -458 m 0
 3348 -464 3345 -478 3324 -478 c 2
 3311 -478 l 2
 3262 -478 3243 -457 3239 -412 c 1
 3205 -464 3147 -486 3065 -486 c 0
 2881 -486 2835 -343 2835 -218 c 0
 2835 -135 2891 32 3067 32 c 0
 3152 32 3198 -5 3237 -53 c 1
 3242 7 l 2
 3244 18 3256 25 3269 25 c 0
 3280 25 3297 21 3297 11 c 1x8c0093fe4413fa7fc0
 3279 -38 3278 -112 3278 -260 c 2
 3278 -370 l 2
 3278 -434 3305 -439 3332 -439 c 1
 3343 -445 3348 -451 3348 -458 c 0
3527 269 m 0x082093fe4413f97fc0
 3555 269 3603 246 3603 189 c 0
 3603 142 3566 111 3525 111 c 0
 3470 111 3447 163 3447 187 c 0
 3447 236 3490 269 3527 269 c 0x082093fe4413f97fc0
3529 -465 m 1x090093fe4413f8ffc0
 3525 -482 3517 -490 3506 -490 c 0
 3493 -490 3485 -482 3483 -465 c 2
 3493 7 l 2
 3493 21 3500 28 3515 28 c 0
 3530 28 3538 21 3538 7 c 2
 3529 -465 l 1x090093fe4413f8ffc0
3782 -486 m 1x880093fe4413f87fc0
 3778 -501 3770 -508 3757 -508 c 256
 3744 -508 3737 -501 3737 -486 c 2
 3732 354 l 2
 3733 369 3742 377 3757 377 c 0
 3770 377 3776 369 3776 354 c 2
 3782 -486 l 1x880093fe4413f87fc0
4022 -750 m 0
 4022 -737 4121 -514 4121 -465 c 0
 4121 -432 3994 -423 3895 11 c 1
 3896 22 3903 28 3914 28 c 0x090093fe4413f87fc0
 3954 28 3948 -128 4048 -313 c 0
 4086 -383 4113 -405 4135 -416 c 1
 4170 -408 4222 -208 4279 12 c 1
 4285 25 4293 32 4303 32 c 0x0c0093fe4413f87fc0
 4315 32 4321 26 4321 14 c 1
 4301 -88 l 2
 4275 -223 4191 -455 4072 -743 c 1
 4063 -757 4052 -764 4040 -764 c 256
 4028 -764 4022 -759 4022 -750 c 0
4374 -382 m 0x280093fe4413f87fc0
 4396 -382 4413 -400 4413 -423 c 0
 4413 -443 4395 -463 4374 -463 c 256
 4350 -463 4334 -437 4334 -423 c 0
 4334 -407 4350 -382 4374 -382 c 0x280093fe4413f87fc0
4825 55 m 0
 4906 55 5043 -1 5043 -97 c 0
 5043 -106 5036 -110 5022 -110 c 0
 5010 -110 4996 -105 4993 -90 c 1
 4953 -2 4871 11 4825 11 c 256
 4652 11 4609 -141 4609 -225 c 0
 4609 -315 4651 -433 4818 -433 c 0
 4979 -433 5006 -305 5013 -288 c 1
 5016 -272 5025 -264 5038 -264 c 256
 5051 -264 5057 -272 5057 -288 c 0
 5057 -335 5001 -476 4818 -476 c 0x480093fe4413f87fc0
 4617 -476 4567 -329 4567 -225 c 256
 4567 -129 4619 55 4825 55 c 0
5418 50 m 0x8a0093fe4413f87fc0
 5536 50 5678 -28 5678 -228 c 0
 5678 -434 5540 -486 5411 -486 c 0
 5310 -486 5153 -437 5153 -239 c 0
 5153 -102 5206 50 5418 50 c 0x8a0093fe4413f87fc0
5411 -440 m 0
 5513 -440 5635 -401 5635 -244 c 0
 5635 -49 5511 11 5418 11 c 0
 5241 11 5197 -109 5197 -239 c 0
 5197 -400 5319 -440 5411 -440 c 0
478 -283 m 0
 565 -283 591 -252 607 -113 c 2
 607 -58 l 2x080093ff4413f87fc0
 602 13 541 64 483 64 c 0
 339 64 330 -110 329 -111 c 1
 329 -197 359 -283 478 -283 c 0
683 -288 m 0
 781 -288 805 -114 805 -64 c 0
 805 103 669 216 495 216 c 0
 319 216 163 84 163 -113 c 0
 163 -306 308 -440 515 -440 c 0
 530 -440 621 -436 658 -417 c 1
 667 -421 672 -427 672 -435 c 0x189093ff4413f87fc0
 672 -468 558 -476 515 -476 c 0
 288 -476 120 -330 120 -111 c 0
 120 81 275 253 499 253 c 0
 683 253 844 126 844 -64 c 0
 844 -200 782 -324 690 -324 c 0
 627 -324 613 -299 600 -264 c 1
 592 -277 565 -315 485 -315 c 0
 332 -315 294 -215 294 -117 c 0
 294 -66 325 92 476 92 c 0
 549 92 588 58 619 16 c 1
 626 64 l 1
 629 72 636 76 646 76 c 0
 661 76 669 71 669 62 c 1x489093fec413f87fc0
 653 14 633 -136 633 -230 c 0
 633 -282 668 -288 683 -288 c 0
5793 25 m 0
 5804 25 5826 20 5849 -58 c 1
 5849 -143 l 1
 5878 12 5917 35 5993 35 c 0
 6106 35 6129 -99 6134 -152 c 1
 6162 22 6216 39 6270 39 c 0
 6431 39 6440 -126 6440 -301 c 0
 6440 -373 l 0
 6440 -476 6432 -499 6419 -499 c 0
 6396 -499 6400 -478 6400 -442 c 0
 6400 -374 6403 -356 6403 -271 c 0
 6403 -55 6351 5 6272 5 c 0
 6180 5 6157 -217 6157 -423 c 2
 6157 -483 l 1
 6154 -492 6146 -497 6134 -497 c 0
 6112 -497 6113 -486 6113 -453 c 0
 6113 -422 6115 -411 6115 -349 c 0
 6115 -261 6112 -0 5987 0 c 0
 5850 0 5858 -398 5851 -478 c 0
 5851 -489 5844 -495 5830 -495 c 0
 5815 -495 5807 -489 5807 -478 c 2
 5802 -62 l 2
 5802 -37 5770 -23 5770 5 c 0
 5770 18 5778 25 5793 25 c 0
1992 646 m 0x08089bfe5413f87fc0
 1855 646 1717 717 1664 914 c 1
 1598 834 1499 731 1341 731 c 0
 1154 731 982 914 982 1111 c 0
 982 1307 1132 1398 1293 1424 c 1
 1293 1434 l 1
 1220 1518 1157 1615 1157 1735 c 0
 1157 1913 1305 2073 1528 2073 c 0x080497fe5413f87fc0
 1729 2073 1845 1948 1863 1763 c 1
 1895 1814 2002 1995 2211 1995 c 0
 2383 1995 2554 1819 2554 1626 c 0
 2554 1481 2471 1336 2266 1263 c 1
 2333 1194 2395 1102 2395 994 c 0
 2395 800 2187 646 1992 646 c 0x08089bfe5413f87fc0
1710 1113 m 0x0801d3fe449bf87fc0
 1592 1113 1496 1191 1496 1307 c 0
 1496 1452 1574 1557 1691 1557 c 2
 1707 1557 l 2
 1712 1557 1717 1556 1723 1555 c 1
 1728 1556 1731 1557 1734 1557 c 2
 1751 1557 l 2
 1870 1557 1955 1434 1955 1337 c 0
 1955 1258 1906 1113 1710 1113 c 0x0801d3fe449bf87fc0
2008 2243 m 1
 2001 2246 1953 2281 1953 2400 c 0x080093fe4417f87fc0
 1953 2638 2083 2750 2163 2779 c 1
 2184 2770 2195 2732 2195 2667 c 0
 2195 2519 2127 2243 2008 2243 c 1
1703 1456 m 0x0801d3fe449bf87fc0
 1639 1456 1592 1398 1592 1325 c 0
 1592 1265 1654 1215 1718 1215 c 0
 1823 1215 1855 1280 1855 1337 c 256
 1855 1385 1802 1456 1739 1456 c 0
 1733 1456 1728 1454 1723 1454 c 0
 1715 1454 1713 1456 1703 1456 c 0x0801d3fe449bf87fc0
2117 2648 m 1
 2076 2648 2025 2504 2025 2443 c 0x080093fe4417f87fc0
 2025 2407 2035 2381 2047 2358 c 1
 2104 2429 2119 2504 2119 2588 c 2
 2119 2617 l 2
 2119 2627 2118 2637 2117 2648 c 1
1762 2239 m 1
 1605 2239 1565 2607 1565 2674 c 0x080093fe4453f87fc0
 1565 2743 1576 2782 1597 2791 c 1
 1628 2780 1817 2712 1817 2398 c 0
 1817 2326 1782 2247 1762 2239 c 1
1647 2659 m 1
 1644 2639 1638 2605 1638 2575 c 0
 1638 2477 1673 2407 1719 2358 c 1
 1735 2409 l 2
 1737 2419 1739 2429 1739 2443 c 0
 1739 2554 1665 2659 1647 2659 c 1
1852 1613 m 0
 1814 1613 1802 1632 1802 1645 c 0
 1791 1858 1690 1992 1521 1992 c 256
 1389 1992 1240 1892 1240 1728 c 0
 1240 1649 1284 1561 1371 1463 c 1
 1385 1456 1392 1444 1392 1427 c 0
 1392 1384 1364 1363 1348 1355 c 1
 1101 1302 1077 1156 1077 1106 c 0
 1077 968 1205 819 1348 819 c 0x080497fe5413f87fc0
 1403 819 1514 838 1624 1010 c 1
 1629 1033 1645 1044 1673 1044 c 0
 1700 1044 1714 1036 1714 1019 c 1
 1773 761 1932 738 1997 738 c 0
 2142 738 2291 863 2291 1010 c 0
 2291 1093 2246 1173 2156 1252 c 1
 2153 1261 2151 1268 2151 1275 c 256
 2151 1293 2161 1306 2179 1312 c 0
 2374 1385 2453 1490 2453 1608 c 0
 2453 1769 2308 1900 2170 1900 c 0x08089bfe5413f87fc0
 2062 1900 1966 1831 1901 1657 c 0
 1891 1628 1875 1613 1852 1613 c 0
833 1534 m 1
 830 1527 795 1479 676 1479 c 0x0800b3fe4413f87fc0
 438 1479 320 1608 297 1689 c 1
 306 1710 343 1721 409 1721 c 0
 578 1721 833 1646 833 1534 c 1
428 1643 m 1
 428 1602 571 1551 633 1551 c 0x0800b3ff4413f87fc0
 650 1551 671 1551 718 1572 c 1
 649 1629 573 1645 486 1645 c 2
 465 1645 l 2
 451 1645 439 1644 428 1643 c 1
837 1288 m 1
 837 1155 545 1091 400 1091 c 0x080293fe4413f87fc0
 331 1091 293 1102 285 1123 c 1
 296 1156 363 1343 677 1343 c 0
 749 1343 829 1307 837 1288 c 1
417 1173 m 1
 466 1165 483 1164 499 1164 c 0
 597 1164 669 1199 718 1245 c 1
 667 1261 l 2
 657 1263 647 1265 633 1265 c 0x080293ff4413f87fc0
 522 1265 417 1191 417 1173 c 1
2743 1534 m 1
 2749 1522 2789 1479 2901 1479 c 0x0800b3fe4413f87fc0
 3161 1479 3260 1629 3279 1689 c 1
 3270 1710 3233 1721 3168 1721 c 0
 3019 1721 2743 1654 2743 1534 c 1
3148 1643 m 1
 3148 1605 3014 1551 2943 1551 c 0
 2926 1551 2905 1551 2858 1572 c 1
 2929 1629 3003 1645 3088 1645 c 2
 3118 1645 l 2
 3128 1645 3138 1644 3148 1643 c 1
2740 1288 m 1
 2740 1130 3106 1091 3175 1091 c 0x080293fe4413f87fc0
 3244 1091 3283 1102 3292 1123 c 1
 3281 1153 3213 1343 2899 1343 c 0
 2826 1343 2748 1308 2740 1288 c 1
3159 1173 m 1
 3140 1170 3105 1164 3076 1164 c 0
 2977 1164 2907 1199 2858 1245 c 1
 2910 1261 l 2
 2920 1263 2930 1265 2943 1265 c 0
 3059 1265 3159 1191 3159 1173 c 1
EndSplineSet
LCarets2: 12 0 0 0 0 0 0 0 0 0 0 0 0 
Ligature2: "'liga' Standard Ligatures in Latin lookup 19 subtable" M A L I D e s i g n parenleft c parenright
EndChar
StartChar: exclam
Encoding: 33 33 130
Width: 560
VWidth: 3622
Flags: W
HStem: 18 235<179.873 362.339> 1483 20G<249 283.5>
VStem: 154 235<99.6797 176.056 1251.42 1475.83> 210 123<361 513.43>
Fore
267 1503 m 0xd0
 300 1503 377 1484 382 1404 c 2
 333 361 l 1
 316 312 290 313 267 313 c 0
 237 313 218 329 210 361 c 1
 161 1403 l 2
 164 1486 231 1503 267 1503 c 0xd0
389 132 m 0xe0
 389 103 361 18 276 18 c 0
 192 18 154 81 154 140 c 0
 154 193 191 253 276 253 c 0
 382 253 389 151 389 132 c 0xe0
EndSplineSet
EndChar
StartChar: quotedbl
Encoding: 34 34 131
Width: 785
VWidth: 3622
Flags: W
HStem: 1223 521<200.188 249.954 487.264 537.738>
VStem: 157 428<1540.05 1732 1680 1682 1682 1682> 157 149<1534.34 1737.82> 177 110<1275 1417.66> 437 148<1540.05 1737.83> 455 109<1275 1409.95>
Fore
233 1744 m 0xc0
 272 1744 303 1723 306 1680 c 2xa0
 287 1275 l 1
 274 1242 248 1223 224 1223 c 0
 202 1223 183 1238 177 1270 c 2x90
 157 1682 l 2
 160 1732 211 1744 233 1744 c 0xc0
513 1744 m 0
 537 1744 583 1733 585 1680 c 2xc0
 564 1270 l 1
 557 1237 533 1224 512 1224 c 0
 489 1224 464 1241 455 1275 c 1x84
 437 1682 l 2x88
 440 1733 492 1744 513 1744 c 0
EndSplineSet
EndChar
StartChar: numbersign
Encoding: 35 35 132
Width: 1303
VWidth: 3622
Flags: MW
HStem: 559 122<221.656 382 522 738 877 1061.68> 918 127<299.509 435 571 799 939 1089.25>
Fore
755 685 m 1
 764 726 771 764 778 800 c 2
 799 918 l 1
 555 918 l 1
 540 799 541 823 522 681 c 1
 755 685 l 1
219 619 m 256
 219 639 231 681 281 681 c 2
 398 681 l 1
 435 923 l 1
 350 923 l 1
 316 930 295 952 295 989 c 0
 295 1029 314 1049 352 1049 c 2
 449 1049 l 1
 488 1288 l 2
 495 1331 525 1351 553 1351 c 0
 581 1351 608 1330 608 1293 c 0
 608 1275 581 1115 571 1045 c 1
 814 1045 l 1
 839 1192 815 1045 863 1292 c 0
 871 1332 903 1334 914 1334 c 0
 936 1334 989 1316 989 1289 c 1
 939 1042 l 1
 1038 1042 l 1
 1075 1035 1093 1012 1093 975 c 256
 1093 937 1073 918 1033 918 c 2
 922 918 l 1
 905 825 893 778 877 685 c 1
 1012 685 l 1
 1050 679 1065 644 1065 619 c 0
 1065 596 1054 559 1008 559 c 2
 860 559 l 1
 842 430 l 2
 836 387 829 345 822 304 c 1
 809 271 779 264 761 264 c 0
 733 264 703 282 703 314 c 0
 703 318 703 321 704 325 c 2
 738 559 l 1
 506 559 l 1
 469 302 l 2
 460 271 438 255 405 255 c 0
 375 255 342 273 342 303 c 0
 342 310 344 317 347 325 c 1
 382 559 l 1
 281 559 l 2
 231 559 219 600 219 619 c 256
EndSplineSet
EndChar
StartChar: dollar
Encoding: 36 36 133
Width: 1383
VWidth: 3622
Flags: W
HStem: 71 108<469.193 637 766 877.819> 718 115<790.521 948.486> 738 115<464.181 637> 1081 21G<1010 1042.5> 1427 110<487.641 637 766 851.776>
VStem: 231 117<992.342 1291.23> 637 129<-134.248 71 182 718 853 1419 1537 1733.42> 989 108<314.362 595.999 1087.93 1247.86>
Fore
766 833 m 1xdf
 1073 766 1097 567 1097 412 c 0
 1097 316 1036 100 766 73 c 1
 766 -69 l 2
 766 -126 719 -138 700 -138 c 0
 677 -138 637 -125 637 -69 c 2
 637 71 l 1
 224 94 180 410 180 447 c 0
 180 472 198 485 224 485 c 0
 283 485 291 456 292 439 c 1
 316 333 401 194 637 179 c 1
 637 738 l 1xbf
 282 775 231 1037 231 1145 c 0
 231 1319 371 1505 637 1537 c 1
 637 1668 l 2
 637 1725 679 1737 700 1737 c 0
 719 1737 766 1725 766 1668 c 2
 766 1528 l 1
 840 1516 1075 1457 1083 1141 c 1
 1076 1106 1060 1081 1025 1081 c 0
 995 1081 978 1099 975 1134 c 0
 959 1296 873 1389 766 1419 c 1
 766 833 l 1xdf
637 1427 m 1
 390 1410 348 1212 348 1132 c 0
 348 1067 375 898 637 853 c 1
 637 1427 l 1
766 182 m 1
 994 219 989 389 989 414 c 0
 989 588 916 676 766 718 c 1xdf
 766 182 l 1
EndSplineSet
EndChar
StartChar: percent
Encoding: 37 37 134
Width: 1742
VWidth: 3622
Flags: W
HStem: 103 118<1097.3 1310.28> 529 124<1088.43 1313.02> 923 119<423.474 640.069> 1350 122<420.485 636.64>
VStem: 255 122<1088.72 1307.84> 683 109<1084.21 1303.26> 925 122<269.433 487.07> 1352 111<262.785 489.072>
Fore
540 -6 m 0
 519 -6 482 3 482 40 c 0
 482 51 485 65 492 81 c 2
 1091 1542 l 2
 1108 1573 1129 1588 1155 1588 c 0
 1187 1588 1215 1565 1215 1531 c 0
 1215 1518 1212 1504 1203 1489 c 1
 612 35 l 1
 589 8 565 -6 540 -6 c 0
534 1472 m 0
 722 1472 792 1306 792 1192 c 0
 792 1131 771 1070 729 1010 c 1
 731 1010 l 1
 688 952 623 923 534 923 c 0
 324 923 255 1097 255 1199 c 256
 255 1300 321 1472 534 1472 c 0
538 1042 m 0
 621 1042 678 1107 683 1190 c 0
 683 1252 639 1350 538 1350 c 0
 436 1350 377 1282 377 1203 c 0
 377 1125 428 1042 538 1042 c 0
1205 653 m 0
 1393 653 1463 487 1463 373 c 0
 1463 307 1442 246 1399 189 c 1
 1401 189 l 1
 1361 132 1296 103 1205 103 c 0
 990 103 925 288 925 380 c 0
 925 465 981 653 1205 653 c 0
1208 221 m 0
 1303 221 1352 300 1352 378 c 0
 1352 454 1305 529 1208 529 c 0
 1104 529 1047 460 1047 384 c 0
 1047 304 1101 221 1208 221 c 0
EndSplineSet
EndChar
StartChar: ampersand
Encoding: 38 38 135
Width: 1466
VWidth: 3622
Flags: W
HStem: 25 125<446.315 756.66> 1327 124<397.74 670.53>
VStem: 170 143<283.767 585.041> 206 130<1076.35 1264.28> 743 130<999.911 1256.1> 1066 133<407.273 628.565>
Fore
313 453 m 0xec
 313 324 376 150 628 150 c 0
 739 150 830 188 886 244 c 1
 824 283 628 401 481 741 c 1
 379 716 313 585 313 453 c 0xec
336 1140 m 0xdc
 336 1088 360 939 545 918 c 1
 710 931 743 1075 743 1127 c 256
 743 1201 700 1327 529 1327 c 0
 375 1327 336 1207 336 1140 c 0xdc
1123 276 m 1
 1266 161 1357 190 1357 111 c 0
 1357 97 1349 52 1296 52 c 0
 1270 52 1160 73 1037 191 c 1
 825 28 672 25 602 25 c 0
 327 25 170 230 170 460 c 0xec
 170 537 191 741 384 838 c 1
 228 902 206 1067 206 1141 c 0
 206 1315 334 1451 554 1451 c 0
 809 1451 873 1229 873 1115 c 0
 873 1002 811 841 605 801 c 1
 694 608 797 455 992 334 c 1
 1039 385 1066 446 1066 534 c 0
 1066 601 1046 685 1046 709 c 0
 1046 764 1086 774 1111 774 c 0
 1187 774 1199 614 1199 539 c 0
 1199 479 1191 344 1123 276 c 1
EndSplineSet
EndChar
StartChar: quotesingle
Encoding: 39 39 136
Width: 417
VWidth: 3622
Flags: W
HStem: 968 527<178.258 228.469>
VStem: 133 145<1280.77 1488.55> 149 109<969.187 1165.23>
Fore
209 1495 m 0xc0
 234 1495 278 1476 278 1427 c 2xc0
 258 1019 l 1
 251 983 225 968 204 968 c 0
 194 968 158 972 149 1021 c 1xa0
 133 1429 l 2
 137 1473 174 1495 209 1495 c 0xc0
EndSplineSet
EndChar
StartChar: parenleft
Encoding: 40 40 137
Width: 864
VWidth: 3622
Flags: W
VStem: 117 139<328.116 942.747> 117 495
Fore
612 -198 m 0x40
 612 -238 585 -270 547 -270 c 0
 529 -270 510 -263 490 -248 c 1
 243 3 117 285 117 640 c 0x80
 117 1042 294 1342 504 1555 c 1
 516 1562 528 1565 539 1565 c 0
 579 1565 612 1526 612 1480 c 0x40
 612 1474 610 1441 580 1415 c 0
 408 1238 256 976 256 640 c 0x80
 256 332 374 80 578 -131 c 1
 578 -128 612 -154 612 -198 c 0x40
EndSplineSet
EndChar
StartChar: parenright
Encoding: 41 41 138
Width: 864
VWidth: 3622
Flags: W
VStem: 573 140<337.099 939.794>
Fore
573 640 m 0
 573 973 423 1237 251 1415 c 0
 228 1435 216 1457 216 1482 c 0
 216 1521 244 1566 287 1566 c 0
 299 1566 311 1563 325 1555 c 1
 565 1313 713 1006 713 640 c 0
 713 285 585 2 340 -248 c 1
 320 -263 300 -270 283 -270 c 0
 246 -270 218 -242 218 -200 c 0
 218 -173 230 -149 253 -129 c 1
 253 -129 573 153 573 640 c 0
EndSplineSet
EndChar
StartChar: asterisk
Encoding: 42 42 139
Width: 1061
VWidth: 3622
Flags: MW
VStem: 490 126<643.351 920 1132 1206.48 1206.48 1305.5 1305.5 1441.39>
Fore
553 1443 m 0
 585 1443 603 1421 608 1378 c 2
 612 1132 l 1
 819 1249 l 2
 837 1258 853 1262 866 1262 c 0
 907 1262 917 1217 917 1203 c 0
 917 1182 903 1165 876 1151 c 2
 658 1026 l 1
 910 884 917 884 917 845 c 0
 917 820 892 784 861 784 c 0
 851 784 840 788 828 796 c 2
 616 920 l 1
 616 697 l 2
 616 650 575 640 554 640 c 0
 528 640 493 651 493 697 c 2
 490 927 l 1
 287 808 l 2
 276 803 265 801 256 801 c 0
 215 801 204 853 204 864 c 0
 204 880 210 893 223 904 c 1
 425 1026 l 1
 193 1162 l 2
 170 1178 160 1195 160 1213 c 0
 160 1234 183 1271 217 1271 c 0
 228 1271 239 1268 251 1261 c 1
 249 1261 l 1
 490 1123 l 1
 490 1180 l 2
 490 1197 489 1215 488 1233 c 0
 488 1291 486 1320 486 1378 c 0
 490 1446 536 1443 553 1443 c 0
EndSplineSet
EndChar
StartChar: plus
Encoding: 43 43 140
Width: 1123
VWidth: 3622
Flags: MW
HStem: 690 113<177.637 358 358 360 360 490 619 709.916 709.916 910.744>
VStem: 497 122<447.375 686 805 828.777 828.777 938.57 938.57 1026.52 1026.52 1105.25>
Fore
918 761 m 0
 918 718 891 690 619 690 c 1
 619 568 l 2
 619 457 615 386 555 380 c 0
 516 380 497 401 497 444 c 2
 497 686 l 1
 223 695 l 2
 191 700 175 720 175 757 c 0
 175 795 192 814 226 814 c 2
 490 805 l 1
 489 827 488 842 488 852 c 0
 488 869 490 887 495 1031 c 0
 496 1082 515 1108 550 1108 c 0
 553 1108 556 1107 559 1107 c 0
 595 1107 613 1083 613 1036 c 0
 613 1030 613 1024 612 1017 c 1
 612 803 l 1
 669 803 749 815 813 815 c 0
 899 815 918 793 918 761 c 0
EndSplineSet
EndChar
StartChar: comma
Encoding: 44 44 141
Width: 622
VWidth: 3622
Flags: MW
HStem: -186 96<63.6272 141.831 102.729 324.281> 28 94<309.995 384.057> 232 102<309.663 400.779>
VStem: 60 455 199 95<125.094 230.127> 403 112<123.061 230.233>
Fore
60 -127 m 0
 60 -107 80 -90 110 -90 c 0
 114 -90 142 -96 175 -96 c 0
 295 -96 372 -22 391 35 c 1
 383 30 368 28 346 28 c 0
 277 28 199 80 199 183 c 0
 199 308 305 334 352 334 c 0
 415 334 515 275 515 143 c 0
 515 11 395 -186 191 -186 c 0
 124 -186 60 -162 60 -127 c 0
403 168 m 1
 403 210 378 232 356 232 c 0
 327 232 294 219 294 169 c 0
 294 141 323 122 355 122 c 0
 365 122 391 124 403 168 c 1
EndSplineSet
EndChar
StartChar: hyphen
Encoding: 45 45 142
Width: 1050
VWidth: 3622
Flags: MW
HStem: 724 106<176.418 223 226 433.516 866.567 895 895 915.109>
Fore
918 775 m 0
 918 753 900 724 895 724 c 1
 870 712 761 707 571 707 c 0
 475 707 359 708 223 711 c 0
 191 716 175 736 175 773 c 0
 175 811 192 830 226 830 c 2
 840 835 l 1
 884 822 918 808 918 775 c 0
EndSplineSet
EndChar
StartChar: period
Encoding: 46 46 143
Width: 622
VWidth: 3622
Flags: W
HStem: 12 227<266.14 385.729>
VStem: 187 223<36.2305 214.446>
Fore
296 12 m 0
 209 12 187 76 187 119 c 0
 187 220 272 239 307 239 c 0
 345 239 410 203 410 123 c 0
 410 65 361 12 296 12 c 0
EndSplineSet
EndChar
StartChar: slash
Encoding: 47 47 144
Width: 1068
VWidth: 3622
Flags: MW
Fore
219 -58 m 0
 210 -58 163 -53 163 -5 c 0
 163 14 169 41 180 74 c 2
 718 1707 l 2
 732 1756 746 1794 787 1794 c 0
 823 1794 846 1776 846 1740 c 0
 846 1727 843 1712 837 1695 c 1
 837 1698 l 1
 299 18 l 2
 274 -37 246 -58 219 -58 c 0
EndSplineSet
EndChar
StartChar: zero
Encoding: 48 48 145
Width: 1268
VWidth: 3622
Flags: W
HStem: 25 138<409 807.701> 1247 140<444.233 800.583>
VStem: 53 143<407.921 944.097> 1044 139<411.042 946.913>
Fore
616 1387 m 256
 1025 1387 1183 985 1183 662 c 0
 1183 341 991 25 608 25 c 0
 212 25 53 372 53 662 c 0
 53 904 166 1387 616 1387 c 256
605 163 m 0
 909 163 1044 376 1044 662 c 0
 1044 899 959 1247 619 1247 c 0
 281 1247 196 898 196 662 c 0
 196 386 313 163 605 163 c 0
EndSplineSet
EndChar
StartChar: one
Encoding: 49 49 146
Width: 933
VWidth: 3622
Flags: MW
VStem: 527 149<27.3467 702.5 702.5 1162>
Fore
596 21 m 256
 565 21 527 32 527 76 c 2
 534 545 l 1
 527 1162 l 1
 422 1031 353 966 333 948 c 1
 321 941 308 938 295 938 c 0
 257 938 223 967 223 1004 c 0
 223 1020 233 1039 253 1058 c 1
 253 1056 l 1
 339 1135 420 1220 513 1392 c 1
 511 1390 l 1
 520 1408 536 1415 554 1415 c 0
 597 1415 653 1375 662 1325 c 1
 676 80 l 2
 676 33 620 21 596 21 c 256
EndSplineSet
EndChar
StartChar: two
Encoding: 50 50 147
Width: 1155
VWidth: 3622
Flags: MW
HStem: 18 116<282.497 391.152 336.825 925.945 850.876 953> 1358 121<387.067 732.412>
VStem: 140 118<1011.24 1217.03> 865 126<946.668 1226.74>
Fore
506 18 m 0
 295 18 225 10 154 10 c 0
 140 10 131 29 131 61 c 0
 131 119 162 221 256 342 c 0
 497 650 748 643 846 956 c 0
 859 994 865 1032 865 1068 c 0
 865 1156 823 1358 557 1358 c 0
 386 1358 277 1265 258 1051 c 0
 255 1024 234 1010 196 1010 c 256
 159 1010 140 1033 140 1079 c 0
 140 1308 338 1479 550 1479 c 0
 844 1479 991 1291 991 1065 c 0
 991 962 953 718 683 554 c 0
 424 402 296 228 281 134 c 1
 336 138 496 144 647 144 c 0
 909 144 1017 130 1017 65 c 0
 1017 27 993 10 953 4 c 1
 864 14 640 18 506 18 c 0
EndSplineSet
EndChar
StartChar: three
Encoding: 51 51 148
Width: 1199
VWidth: 3622
Flags: W
HStem: 0 115<409.438 846.338> 692 111<623 799.231> 1318 118<497.659 847.308>
VStem: 80 118<317.793 592.813> 244 124<907.144 1011.02 959.08 1198.92> 964 119<940.189 1210.29> 996 115<246.546 516.156>
Fore
368 956 m 0xfc
 368 914 323 904 300 904 c 0
 270 904 251 934 244 991 c 0
 244 1136 261 1238 370 1331 c 0
 441 1392 546 1436 672 1436 c 0
 885 1436 1083 1288 1083 1065 c 0xfc
 1083 981 1045 863 984 808 c 0
 961 788 936 771 907 757 c 1
 1092 676 1111 465 1111 386 c 0
 1111 232 989 0 654 0 c 0
 226 0 80 207 80 518 c 0
 80 569 99 594 138 594 c 0
 178 594 198 574 198 534 c 0
 198 199 429 115 637 115 c 0
 909 115 996 273 996 378 c 0xfa
 996 491 963 570 899 617 c 0
 835 667 751 692 647 692 c 0
 607 692 583 725 583 755 c 0
 583 777 596 797 623 803 c 0
 810 826 964 899 964 1084 c 0
 964 1207 853 1318 676 1318 c 0
 498 1318 366 1207 366 1064 c 0
 366 1043 368 1021 368 956 c 0xfc
EndSplineSet
EndChar
StartChar: four
Encoding: 52 52 149
Width: 1155
VWidth: 3622
Flags: W
HStem: 11 21G<769.5 809> 449 119<288 484.031 484.031 657.577 657.577 716.955 716.955 745> 476 122<870 1018.24>
VStem: 731 118<12.0679 267.56> 745 118<281.142 453 598 742.691>
Fore
833 1130 m 0xc8
 865 1130 883 1108 888 1065 c 1
 870 598 l 1
 993 615 1055 628 1090 628 c 0
 1143 628 1153 583 1153 566 c 0
 1153 555 1150 544 1143 534 c 0
 1116 505 1022 485 863 476 c 1xa8
 858 339 849 79 849 65 c 0
 849 29 829 11 789 11 c 0
 750 11 731 32 731 73 c 2xb0
 745 453 l 1
 701 451 638 449 569 449 c 0
 221 449 18 497 18 568 c 0xc8
 18 577 21 587 27 598 c 0xa8
 178 947 591 1462 645 1462 c 0
 686 1462 711 1437 711 1407 c 0
 711 1394 706 1380 695 1367 c 1
 695 1366 l 1
 511 1169 171 631 154 594 c 1
 172 594 219 585 288 580 c 2
 389 573 l 2
 464 570 526 568 578 568 c 2
 688 568 l 2
 712 568 731 569 748 571 c 1
 769 1074 l 2
 769 1132 809 1130 833 1130 c 0xc8
EndSplineSet
EndChar
StartChar: five
Encoding: 53 53 150
Width: 1213
VWidth: 3622
Flags: W
HStem: -1 111<373.074 761.1> 863 115<462.254 780.142> 1316 127<366 407.655 407.655 410.185 410.185 787.782>
VStem: 113 133<239.811 480.747 435.846 525.647> 973 113<304.189 663.629>
Fore
553 110 m 0
 742 110 973 218 973 471 c 0
 973 699 824 863 587 863 c 0
 517 863 421 855 237 791 c 1
 207 812 l 1
 222 1108 l 2
 226 1184 230 1244 234 1288 c 2
 242 1384 l 2
 244 1417 244 1412 244 1431 c 0
 244 1451 265 1456 288 1456 c 0
 325 1456 442 1443 670 1443 c 0
 761 1443 858 1447 960 1454 c 0
 997 1454 1015 1428 1015 1400 c 0
 1015 1374 999 1347 968 1339 c 0
 834 1323 692 1316 545 1316 c 2
 454 1316 l 2
 429 1316 399 1317 366 1320 c 1
 361 1176 351 1104 347 960 c 1
 443 976 517 978 590 978 c 0
 975 978 1086 719 1086 467 c 0
 1083 124 812 -1 566 -1 c 0
 365 -1 113 75 113 382 c 0
 113 480 127 531 184 531 c 256
 204 531 249 518 249 462 c 0
 249 456 246 430 246 409 c 0
 246 190 395 110 553 110 c 0
EndSplineSet
EndChar
StartChar: six
Encoding: 54 54 151
Width: 1257
VWidth: 3622
Flags: W
HStem: -0 113<422.932 828.655> 738 109<411.818 827.359> 1311 116<492.104 840.044>
VStem: 87 115<656 949.261> 992 112<253.843 576.395>
Fore
87 660 m 0
 87 1104 314 1427 654 1427 c 0
 922 1427 988 1335 1100 1132 c 0
 1108 1117 1112 1104 1112 1093 c 0
 1112 1068 1096 1048 1063 1033 c 1
 1014 1033 985 1079 985 1079 c 1
 946 1180 864 1311 683 1311 c 0
 330 1311 202 944 202 656 c 1
 281 790 426 847 640 847 c 0
 987 847 1104 571 1104 417 c 0
 1104 304 1068 207 996 124 c 0
 922 41 801 -0 626 -0 c 0
 229 -0 87 243 87 660 c 0
640 738 m 0
 431 738 253 650 253 453 c 0
 253 358 284 276 347 209 c 1
 345 209 l 1
 404 147 511 113 622 113 c 0
 803 113 992 202 992 403 c 0
 992 526 922 738 640 738 c 0
EndSplineSet
EndChar
StartChar: seven
Encoding: 55 55 152
Width: 1155
VWidth: 3622
GlyphClass: 2
Flags: MW
HStem: 667 125<849.408 874 874 887.954 887.954 919.069 919.069 999.625> 1339 129<231.621 660.677>
VStem: 787 126<1064.45 1277.96>
Fore
510 4 m 0
 487 4 459 28 459 45 c 0
 459 96 530 80 690 662 c 1
 622 654 l 2
 532 644 572 640 510 640 c 0
 465 640 448 672 448 693 c 256
 448 761 508 755 647 778 c 2
 723 791 l 1
 759 945 l 2
 778 1016 787 1085 787 1150 c 0
 787 1227 763 1277 715 1298 c 0
 658 1325 590 1339 509 1339 c 0
 374 1339 220 1282 127 1282 c 0
 56 1282 51 1329 51 1337 c 0
 51 1395 381 1468 522 1468 c 0
 709 1468 913 1408 913 1167 c 0
 913 1092 891 977 849 791 c 1
 869 791 879 792 899 792 c 0
 914 793 927 793 939 793 c 0
 973 793 1043 792 1043 727 c 0
 1043 695 1009 667 920 667 c 0
 884 667 890 667 856 665 c 0
 833 665 839 663 808 663 c 1
 789 616 789 589 732 421 c 2
 688 294 l 2
 618 99 561 4 510 4 c 0
EndSplineSet
EndChar
StartChar: eight
Encoding: 56 56 153
Width: 1238
VWidth: 3622
Flags: W
HStem: 0 119<384.095 847.236> 805 120<476.209 747.861> 1328 119<478.973 748.648>
VStem: 53 119<307.667 619.107> 281 121<997.239 1250.13> 815 119<992.592 1261.13> 1038 119<293.022 614.337>
Fore
616 1447 m 0
 774 1447 934 1341 934 1143 c 0
 934 1030 911 967 853 891 c 1
 933 853 999 799 1056 736 c 0
 1123 661 1157 566 1157 451 c 0
 1157 141 897 0 616 0 c 0
 330 0 53 150 53 471 c 0
 53 632 129 732 259 820 c 0
 296 845 335 867 375 884 c 1
 350 910 281 982 281 1128 c 0
 281 1347 468 1447 616 1447 c 0
1038 448 m 0
 1038 657 859 805 621 805 c 0
 371 805 172 661 172 478 c 0
 172 280 328 119 616 119 c 0
 948 119 1038 314 1038 448 c 0
815 1143 m 1
 815 1146 l 1
 816 1151 816 1150 815 1143 c 1
621 925 m 0
 695 925 812 957 815 1146 c 0
 814 1195 778 1328 621 1328 c 0
 482 1328 402 1234 402 1128 c 0
 402 966 533 925 621 925 c 0
EndSplineSet
EndChar
StartChar: nine
Encoding: 57 57 154
Width: 1216
VWidth: 3622
Flags: W
HStem: 4 111<387.849 759.808> 543 119<402.779 735.414> 1332 118<403.646 796.591>
VStem: 76 117<304.079 455> 120 119<826.28 1178.55> 973 166<652.102 1103.18>
Fore
594 4 m 0xec
 205 4 76 268 76 444 c 0
 76 488 108 511 138 511 c 0
 165 511 190 493 193 455 c 0xf4
 207 276 337 115 587 115 c 0
 731 115 839 181 911 313 c 0
 977 430 1015 581 1026 766 c 1
 903 555 678 543 601 543 c 0
 427 543 302 587 226 676 c 0
 155 762 120 873 120 1010 c 0
 120 1177 215 1450 594 1450 c 0
 812 1450 1139 1338 1139 810 c 0
 1139 430 1013 4 594 4 c 0xec
601 662 m 0
 782 662 973 806 973 998 c 0
 973 1039 966 1078 952 1113 c 1
 952 1111 l 1
 866 1283 764 1332 594 1332 c 0
 354 1332 239 1178 239 1014 c 0xec
 239 862 311 662 601 662 c 0
EndSplineSet
EndChar
StartChar: colon
Encoding: 58 58 155
Width: 622
VWidth: 3622
Flags: W
HStem: 88 108<280.525 377.251> 297 108<279.631 378.254> 621 110<271.664 353.656> 830 109<257.354 355.437>
VStem: 147 109<731.017 815.832> 173 106<197.01 282.702> 356 109<734.238 828.487> 380 108<198.596 280.895>
Fore
304 621 m 0xfa
 214 621 147 704 147 782 c 256
 147 865 221 939 304 939 c 0
 391 939 465 868 465 782 c 256
 465 698 395 621 304 621 c 0xfa
301 830 m 0
 281 830 256 803 256 785 c 0
 256 756 285 731 301 731 c 0
 326 731 356 758 356 785 c 0
 356 804 327 830 301 830 c 0
329 88 m 0
 238 88 173 172 173 248 c 256
 173 328 246 405 329 405 c 0
 408 405 488 338 488 248 c 0xf5
 488 158 416 88 329 88 c 0
325 297 m 0
 305 297 279 269 279 251 c 0
 279 224 307 196 325 196 c 0
 354 196 380 227 380 251 c 0
 380 269 353 297 325 297 c 0
EndSplineSet
EndChar
StartChar: semicolon
Encoding: 59 59 156
Width: 622
VWidth: 3622
Flags: W
HStem: 99 97<280.781 381.481> 304 94<280.146 382.609> 662 107<303.475 385.931> 870 108<289.59 387.902>
VStem: 177 101<197.487 303.295 772.545 855.093> 177 339 389 106<772.259 867.527> 421 95<6.60482 131>
Fore
334 398 m 0xf9
 397 398 516 342 516 151 c 0xf9
 516 65 488 -29 416 -87 c 0
 385 -109 315 -157 241 -170 c 1
 200 -170 177 -148 177 -126 c 0xf4
 177 -111 187 -97 209 -88 c 1
 210 -87 l 1
 314 -64 421 0 421 131 c 1
 398 110 366 99 325 99 c 0
 245 99 177 171 177 248 c 0
 177 322 233 398 334 398 c 0xf9
338 662 m 256
 244 662 180 742 180 821 c 0
 180 899 251 978 338 978 c 256
 412 978 495 915 495 821 c 0xf2
 495 722 415 662 338 662 c 256
325 304 m 0
 303 304 278 281 278 255 c 0xf8
 278 226 301 196 325 196 c 0
 357 196 384 227 384 255 c 0
 384 281 355 304 325 304 c 0
333 870 m 0
 311 870 288 841 288 824 c 0
 288 796 315 769 333 769 c 0
 358 769 389 798 389 824 c 0xf2
 389 843 359 870 333 870 c 0
EndSplineSet
EndChar
StartChar: less
Encoding: 60 60 157
Width: 1390
VWidth: 3622
Flags: MW
Fore
1171 971 m 0
 1221 971 1231 935 1231 910 c 0
 1231 854 1129 847 970 801 c 0
 865 771 304 602 304 552 c 0
 304 528 412 480 558 431 c 2
 704 384 l 1
 1084 280 l 2
 1123 270 1212 253 1212 180 c 0
 1212 158 1203 126 1144 126 c 0
 1127 126 187 377 175 552 c 1
 191 683 681 839 825 882 c 2
 980 926 l 2
 1069 952 1131 971 1171 971 c 0
EndSplineSet
EndChar
StartChar: equal
Encoding: 61 61 158
Width: 1123
VWidth: 3622
Flags: MW
HStem: 532 130<83.0099 389.763> 555 130<702.093 1003.88> 792 137<83.6274 142 142 998.959>
Fore
1003 861 m 256
 1003 842 994 799 930 799 c 2
 142 792 l 1
 96 801 78 833 78 861 c 256
 78 880 92 927 170 922 c 2
 937 929 l 2
 982 929 1003 891 1003 861 c 256
1008 617 m 256
 1008 597 1000 555 937 555 c 2
 142 532 l 1
 97 541 78 573 78 601 c 0
 78 620 92 667 170 662 c 2
 943 685 l 2
 995 685 1008 639 1008 617 c 256
EndSplineSet
EndChar
StartChar: greater
Encoding: 62 62 159
Width: 1390
VWidth: 3622
Flags: MW
Fore
246 971 m 1
 269 965 1224 740 1224 552 c 0
 1224 446 891 325 780 288 c 0
 743 275 290 130 290 130 c 2
 276 127 264 126 255 126 c 0
 196 126 187 158 187 180 c 0
 187 272 291 268 686 387 c 2
 834 433 l 2
 921 461 1086 518 1095 554 c 1
 1077 598 644 739 476 787 c 2
 301 837 l 2
 255 850 164 873 164 926 c 0
 164 953 192 971 246 971 c 1
EndSplineSet
EndChar
StartChar: question
Encoding: 63 63 160
Width: 1093
VWidth: 3622
Flags: W
HStem: 50 210<442.987 613.133> 1389 132<347.868 699.481>
VStem: 111 130<1047.43 1287.71> 423 210<69.815 240.192> 465 129<366.746 496.556> 824 131<951.617 1263.72>
Fore
529 50 m 0xf4
 472 50 423 93 423 157 c 0
 423 211 468 260 529 260 c 0
 584 260 633 213 633 157 c 0
 633 91 580 50 529 50 c 0xf4
539 1389 m 0
 367 1389 241 1318 241 1143 c 0
 241 1055 325 1011 384 996 c 0
 432 978 431 950 431 938 c 0
 431 923 424 867 375 867 c 0
 308 867 111 936 111 1143 c 0
 111 1388 274 1521 536 1521 c 0
 815 1521 955 1309 955 1104 c 0
 955 877 796 809 646 600 c 1
 647 600 l 1
 612 554 594 496 594 425 c 0
 594 389 561 363 529 363 c 0
 497 363 465 388 465 453 c 0xec
 465 498 476 617 606 759 c 2
 679 835 l 2
 801 948 824 1021 824 1104 c 0
 824 1207 767 1389 539 1389 c 0
EndSplineSet
EndChar
StartChar: at
Encoding: 64 64 161
Width: 1859
VWidth: 3622
Flags: W
HStem: 4 115<699.492 1074.82> 302 115<1245.26 1379.81> 318 111<739.275 1040.39> 1056 102<762.267 1028.32> 1353 119<692.518 1167.77>
VStem: 172 127<502.797 971.396> 515 109<549.365 898.726> 1509 118<598.039 1039.19>
Fore
624 718 m 0xbf
 624 570 708 429 891 429 c 0
 962 429 1057 451 1093 543 c 2
 1109 608 l 2
 1116 642 1113 654 1120 723 c 0
 1120 723 1122 820 1121 842 c 0
 1115 966 1011 1056 896 1056 c 0
 748 1056 624 904 624 718 c 0xbf
1627 831 m 0
 1627 628 1539 302 1307 302 c 0xdf
 1163 302 1142 363 1125 394 c 1
 1075 348 985 318 890 318 c 0xbf
 734 318 515 401 515 732 c 0
 515 990 684 1158 893 1158 c 0
 980 1158 1078 1129 1153 1042 c 1
 1159 1079 l 2
 1169 1114 1193 1127 1218 1127 c 0
 1252 1127 1288 1101 1288 1074 c 1
 1279 1049 1270 1006 1261 945 c 2
 1250 858 l 2
 1227 670 1220 571 1220 517 c 0
 1220 454 1230 454 1232 450 c 0
 1249 426 1271 417 1293 417 c 0xdf
 1423 417 1509 660 1509 831 c 0
 1509 1141 1259 1353 925 1353 c 0
 590 1353 299 1105 299 732 c 0
 299 441 496 119 966 119 c 0
 1014 119 1139 128 1243 164 c 1
 1276 152 1296 130 1296 106 c 0
 1296 24 1061 4 966 4 c 0
 506 4 172 297 172 736 c 0
 172 1139 491 1472 934 1472 c 0
 1340 1472 1627 1181 1627 831 c 0
EndSplineSet
EndChar
StartChar: A
Encoding: 65 65 162
Width: 1358
VWidth: 3622
Flags: W
HStem: 414 120<419 975> 1482 20G<694.5 745>
Fore
196 14 m 0
 166 14 147 30 147 69 c 1
 514 1208 550 1348 640 1461 c 0
 661 1488 683 1502 706 1502 c 0
 784 1502 848 1335 902 1171 c 2
 1116 518 l 1
 1178 518 1194 496 1194 460 c 0
 1194 443 1184 414 1143 414 c 1
 1235 76 l 1
 1231 38 1209 19 1169 19 c 0
 1143 19 1125 30 1114 53 c 1
 1022 414 l 1
 375 414 l 1
 265 57 l 1
 245 28 222 14 196 14 c 0
975 534 m 1
 960 586 942 642 922 702 c 2
 716 1315 l 2
 707 1344 702 1361 702 1367 c 1
 598 1068 l 1
 419 534 l 1
 975 534 l 1
EndSplineSet
EndChar
StartChar: B
Encoding: 66 66 163
Width: 1216
VWidth: 3622
Flags: W
HStem: 53 106<262 351.185 351.185 362.915 357.05 737.19> 693 115<385.365 788.778> 1385 104<359.576 780.055>
VStem: 175 124<376.001 1099.43 1097.96 1100.89 1100.89 1282> 971 110<276.762 547.396> 994 108<954.637 1220.97>
Fore
253 53 m 1xf8
 253 23 229 14 195 14 c 0
 164 14 147 27 142 53 c 1
 99 53 l 1
 83 57 44 66 44 117 c 0
 44 148 62 168 99 177 c 1
 143 177 l 1
 169 470 175 729 175 913 c 0
 175 1134 172 1208 168 1282 c 1
 164 1282 l 1
 163 1281 159 1281 152 1281 c 0
 118 1281 92 1306 92 1337 c 0
 92 1383 149 1405 172 1413 c 1
 170 1413 l 1
 293 1464 421 1489 555 1489 c 0
 826 1489 1102 1379 1102 1079 c 0xf4
 1102 945 983 804 845 745 c 1
 943 703 1081 585 1081 412 c 0
 1081 231 994 154 870 90 c 0
 803 55 608 46 465 46 c 0
 423 46 359 47 253 53 c 1xf8
994 1079 m 0
 994 1311 726 1385 529 1385 c 0
 436 1385 357 1369 292 1343 c 1
 296 1200 299 1059 299 913 c 0
 299 461 273 252 262 159 c 1
 325 156 385 154 440 154 c 0
 740 154 971 203 971 398 c 0xf8
 971 634 735 690 525 693 c 2
 453 693 l 2
 407 693 384 713 384 752 c 0
 384 803 416 808 504 808 c 2
 564 808 l 2
 746 808 994 886 994 1079 c 0
EndSplineSet
EndChar
StartChar: C
Encoding: 67 67 164
Width: 1430
VWidth: 3622
Flags: W
HStem: -4 121<534.759 998.267> 1381 121<580.586 918.177>
VStem: 87 116<444.498 966.336> 1183 117<1322.08 1361.55 1361.55 1463> 1251 123<310.658 575.549>
Fore
1182 1401 m 0xf0
 1182 1484 1220 1489 1238 1491 c 0
 1271 1491 1290 1482 1295 1463 c 1
 1298 1332 l 2
 1298 1287 1300 1278 1300 1242 c 0xf0
 1300 1165 1293 1102 1263 1102 c 0
 1205 1102 1186 1127 1182 1132 c 0
 1042 1298 943 1381 784 1381 c 0
 498 1381 203 1129 203 692 c 0
 203 292 477 117 768 117 c 0
 1154 117 1229 392 1251 515 c 0
 1258 552 1280 570 1318 570 c 0
 1352 570 1374 557 1374 499 c 0xe8
 1310 38 936 -4 768 -4 c 0
 438 -4 87 197 87 688 c 0
 87 1231 461 1502 798 1502 c 0
 862 1502 984 1496 1183 1321 c 1
 1183 1385 1182 1361 1182 1401 c 0xf0
EndSplineSet
EndChar
StartChar: D
Encoding: 68 68 165
Width: 1399
VWidth: 3622
Flags: W
HStem: 11 118<231.253 259 259 304 419 690.328> 1348 124<165.458 265 382 692.852>
VStem: 265 117<1123.95 1348> 304 115<131 353.046> 1173 132<534.614 956.204>
Fore
322 11 m 0xe8
 249 11 166 14 166 88 c 0
 166 120 182 138 214 142 c 1
 304 129 l 1xd8
 265 1348 l 1
 239 1348 l 2
 174 1353 161 1396 161 1412 c 0
 161 1436 179 1472 265 1472 c 1
 271 1504 293 1519 316 1519 c 0
 339 1519 364 1503 375 1472 c 1
 918 1454 1280 1217 1305 762 c 0
 1296 222 834 11 322 11 c 0xe8
448 129 m 2
 838 129 1173 398 1173 729 c 0
 1173 1227 707 1340 382 1351 c 1xe8
 419 131 l 1
 448 129 l 2
EndSplineSet
EndChar
StartChar: E
Encoding: 69 69 166
Width: 1112
VWidth: 3622
Flags: MW
HStem: 41 97<71.1324 147 374.32 426 446 511 511 603.121 603.121 652.385 627.753 871.798 723 995.085> 723 112<120.125 187 310 357.2 357.2 523.785 523.785 556.23 556.23 832.468> 1353 113<139.522 187 308 425.785 425.785 549.231 487.508 859.233 680.161 962.092>
VStem: 187 123<597.177 718 837.889 987.028 987.028 1168.35 1168.35 1294.57 1294.57 1297.63 1297.63 1346>
Fore
308 41 m 2
 150 41 69 52 69 96 c 0
 69 149 106 150 147 150 c 1
 162 263 172 378 187 720 c 1
 127 721 97 742 97 782 c 0
 97 833 128 833 189 833 c 1
 189 841 195 892 195 1151 c 2
 195 1210 l 2
 195 1268 191 1297 187 1355 c 1
 147 1356 138 1382 138 1406 c 0
 138 1439 157 1455 226 1459 c 2
 432 1465 l 2
 456 1465 528 1466 672 1466 c 0
 934 1466 1045 1459 1045 1399 c 0
 1045 1358 1020 1340 987 1337 c 1
 969 1338 945 1340 915 1342 c 2
 812 1347 l 2
 730 1351 637 1353 548 1353 c 0
 404 1353 356 1350 308 1346 c 1
 311 1313 311 1279 311 1243 c 0
 311 1183 310 1168 310 1093 c 2
 310 888 l 2
 310 873 309 856 308 837 c 1
 317 836 324 835 328 835 c 0
 448 835 l 0
 509 835 509 833 601 833 c 2
 715 833 l 2
 835 833 875 823 881 777 c 0
 881 736 864 716 830 716 c 1
 833 718 l 1
 822 717 789 715 723 715 c 0
 659 715 437 723 405 723 c 0
 367 723 335 721 310 718 c 1
 309 678 306 634 302 586 c 2
 291 438 l 2
 278 276 276 222 276 168 c 1
 446 151 l 2
 593 137 667 138 692 138 c 0
 717 138 729 140 754 140 c 2
 945 145 l 2
 978 145 1029 145 1035 101 c 1
 1028 53 962 28 709 28 c 0
 668 28 632 29 596 32 c 2
 426 41 l 1
 308 41 l 2
EndSplineSet
EndChar
StartChar: F
Encoding: 70 70 167
Width: 1075
VWidth: 3622
Flags: MW
HStem: 640 140<64.9656 142.673> 681 118<329 390.593 390.593 394.746 392.67 801.375> 1351 117<49.4648 171.688 306 438.399 438.399 786.125>
VStem: 193 113<808.177 1058 1058 1205.34 1205.34 1344> 207 122<259.77 518.843 518.843 669 799 960.598 960.598 1125.64>
Fore
104 640 m 0
 70 640 53 661 53 702 c 256
 53 733 72 766 207 780 c 1
 198 880 193 973 193 1058 c 0
 193 1144 191 1222 186 1293 c 2
 182 1344 l 1
 123 1341 130 1341 108 1341 c 0
 68 1341 48 1362 48 1404 c 0
 48 1436 68 1453 108 1454 c 2
 173 1457 l 1
 166 1505 l 1
 166 1535 178 1567 227 1567 c 0
 279 1567 293 1516 299 1468 c 1
 433 1468 l 2
 901 1468 1022 1461 1022 1389 c 0
 1022 1360 1005 1339 971 1325 c 1
 846 1346 738 1355 566 1355 c 0
 514 1355 462 1355 306 1351 c 1
 323 1176 329 995 329 799 c 1
 387 806 446 812 621 812 c 0
 781 812 897 791 897 734 c 0
 897 695 877 676 838 676 c 0
 655 693 563 692 532 692 c 0
 471 692 403 688 329 681 c 1
 329 493 331 493 331 368 c 0
 331 118 310 7 225 7 c 0
 186 7 182 45 182 58 c 0
 193 150 207 291 207 523 c 2
 207 669 l 1
 199 669 141 640 104 640 c 0
EndSplineSet
EndChar
StartChar: G
Encoding: 71 71 168
Width: 1517
VWidth: 3622
Flags: W
HStem: 7 120<547.851 986.058> 612 117<1039.62 1194 1316 1348 1350 1395.98> 1327 123<546.787 1005.74>
VStem: 87 132<474.684 975.393> 1194 122<361.817 612> 1233 101<1261.89 1298.61 1298.61 1351.72>
Fore
1035 679 m 0xf8
 1035 701 1048 738 1098 738 c 2
 1350 729 l 2
 1383 724 1399 708 1399 681 c 0
 1399 642 1382 623 1348 623 c 2
 1316 623 l 1xf8
 1316 356 1208 7 775 7 c 0
 337 7 87 356 87 734 c 0
 87 1114 355 1450 757 1450 c 0
 902 1450 1061 1437 1233 1259 c 1
 1233 1292 1226 1289 1226 1339 c 0
 1226 1368 1242 1383 1275 1383 c 0
 1322 1383 1334 1347 1334 1314 c 2
 1334 1277 l 2xf4
 1334 1166 1300 1132 1249 1132 c 0
 1220 1132 1193 1140 1170 1157 c 0
 1040 1248 1036 1327 757 1327 c 0
 488 1327 219 1123 219 734 c 0
 219 402 409 127 775 127 c 0
 1077 127 1188 312 1194 612 c 1
 1097 619 l 2
 1042 625 1035 664 1035 679 c 0xf8
EndSplineSet
EndChar
StartChar: H
Encoding: 72 72 169
Width: 1383
VWidth: 3622
Flags: W
HStem: 601 121<714.334 1058 1180 1297.14> 619 112<99.4672 216 347 681.666>
VStem: 177 117<8.78476 184.206> 290 122<1373.79 1404.62 1404.62 1487.23> 1026 124<1292.36 1457> 1067 113<43.369 345.5 345.5 601 722 886.64>
Fore
219 5 m 0xa4
 189 5 177 31 177 88 c 2xa4
 216 619 l 1
 138 626 97 623 97 672 c 0
 97 701 117 734 156 734 c 2
 230 731 l 1
 290 1461 l 2
 293 1485 302 1518 352 1518 c 0
 402 1518 416 1488 416 1435 c 0
 416 1417 414 1397 412 1374 c 2
 382 1093 l 2
 370 976 358 856 347 731 c 1x50
 1058 722 l 1
 1026 1457 l 2
 1026 1506 1059 1518 1088 1518 c 0
 1132 1518 1141 1502 1150 1457 c 1x98
 1161 1163 1169 1016 1180 722 c 1
 1269 722 1299 701 1299 669 c 0
 1299 622 1284 601 1242 601 c 2
 1180 601 l 1
 1189 90 l 2
 1187 55 1175 19 1117 19 c 0
 1080 19 1067 49 1067 69 c 2
 1067 601 l 1
 329 616 l 1
 294 73 l 2
 286 5 240 5 219 5 c 0xa4
EndSplineSet
EndChar
StartChar: I
Encoding: 73 73 170
Width: 804
VWidth: 3622
Flags: MW
HStem: 21 113<90 219.624 219.624 352 463 767.688> 1368 114<46.6957 132.862 132.862 228.477 228.477 342.738 342.738 393.371 514.116 539.523 526.82 708.605 645.075 751.17>
VStem: 352 111<135.204 587.846> 390 121<1049.2 1245.73 1245.73 1367>
Fore
769 71 m 0
 769 43 758 11 713 11 c 2
 90 21 l 1
 36 40 35 68 35 80 c 0
 35 101 38 134 92 134 c 0
 127 134 214 133 352 131 c 1
 359 230 355 181 372 628 c 2
 390 1130 l 2
 391 1153 394 1224 394 1367 c 1
 384 1368 332 1368 290 1368 c 2
 170 1366 l 2
 143 1366 117 1363 96 1363 c 0
 63 1363 41 1370 41 1405 c 0
 41 1463 69 1483 209 1483 c 0
 222 1483 234 1482 248 1482 c 0
 391 1486 496 1489 573 1489 c 0
 745 1489 777 1473 777 1415 c 0
 777 1375 747 1365 709 1365 c 0
 673 1365 625 1374 568 1374 c 0
 549 1374 531 1373 511 1371 c 1
 511 1294 486 248 463 129 c 1
 704 126 l 2
 748 124 769 105 769 71 c 0
EndSplineSet
EndChar
StartChar: J
Encoding: 74 74 171
Width: 1017
VWidth: 3622
Flags: W
HStem: 4 113<291.58 570.51> 1358 122<573.504 762 888 918.677 918.677 983.881>
VStem: 34 111<278.756 598.134> 766 113<361.349 949 949 986.477 967.738 1284.2 1263.82 1304.58>
Fore
950 1364 m 0
 911 1364 913 1364 888 1362 c 1
 879 1249 877 1147 877 1031 c 0
 877 965 879 933 879 867 c 2
 879 634 l 2
 879 464 863 279 742 134 c 0
 637 8 506 4 471 4 c 0
 209 4 34 152 34 536 c 0
 34 579 50 600 81 600 c 0
 126 600 145 577 145 536 c 0
 145 308 209 117 463 117 c 0
 645 117 766 264 766 799 c 0
 766 986 759 986 759 1174 c 0
 759 1211 759 1247 762 1357 c 1
 631 1358 l 2
 581 1358 570 1399 570 1417 c 0
 570 1467 627 1480 785 1480 c 0
 976 1480 1067 1476 1067 1420 c 0
 1067 1387 1064 1364 950 1364 c 0
EndSplineSet
EndChar
StartChar: K
Encoding: 75 75 172
Width: 1216
VWidth: 3622
Flags: W
VStem: 172 118<38.5914 430.5 430.5 711 900 946.425 946.425 1103.14 1103.14 1290.64 1196.89 1416.17 1359.85 1472.49>
Fore
1157 1479 m 0
 1178 1479 1210 1460 1210 1422 c 0
 1210 1375 1110 1299 920 1165 c 2
 644 971 l 1
 382 796 l 1
 433 717 601 562 704 474 c 2
 879 329 l 1
 1060 191 l 2
 1137 135 1160 116 1160 80 c 0
 1160 64 1150 34 1109 34 c 0
 1095 34 1080 38 1063 46 c 1
 818 223 l 2
 683 325 568 425 456 540 c 2
 297 711 l 1
 290 97 l 2
 281 37 233 30 221 30 c 0
 186 30 163 65 161 104 c 2
 172 757 l 2
 172 783 173 806 173 830 c 0
 173 878 172 926 172 994 c 2
 172 1196 l 2
 172 1262 171 1325 168 1385 c 0
 168 1440 182 1475 235 1475 c 0
 258 1475 292 1463 292 1406 c 0
 292 1387 290 1368 290 1312 c 0
 290 1147 297 941 297 900 c 1
 642 1127 l 2
 714 1174 780 1218 840 1261 c 2
 1102 1450 l 2
 1130 1470 1148 1479 1157 1479 c 0
EndSplineSet
EndChar
StartChar: L
Encoding: 76 76 173
Width: 1047
VWidth: 3622
Flags: MW
HStem: 25 118<308.051 570.531>
VStem: 108 120<183.068 556.126 497 615.251>
Fore
258 1505 m 0
 283 1505 320 1495 320 1438 c 1
 270 1167 248 990 236 614 c 2
 228 380 l 2
 237 203 240 191 321 159 c 0
 348 148 382 143 425 143 c 0
 487 143 641 161 768 180 c 2
 906 202 l 1
 955 202 985 182 985 136 c 0
 985 86 945 78 925 74 c 2
 653 34 l 2
 574 25 513 25 453 25 c 0
 212 25 108 30 108 417 c 0
 111 526 122 961 175 1316 c 2
 196 1456 l 2
 203 1502 244 1505 258 1505 c 0
EndSplineSet
EndChar
StartChar: M
Encoding: 77 77 174
Width: 1690
VWidth: 3622
Flags: W
HStem: 1385 124<371.241 469.229>
VStem: 177 124<42.1363 1105.55> 1311 169<87.5425 1034.07>
Fore
1307 1509 m 0
 1464 1509 1428 859 1480 62 c 0
 1478 27 1458 6 1420 0 c 1
 1319 0 1370 79 1311 1099 c 0
 1309 1138 1295 1370 1284 1381 c 1
 1171 1355 935 1007 879 568 c 0
 876 533 858 514 826 509 c 1
 755 520 778 564 708 803 c 0
 651 1027 553 1220 499 1302 c 0
 464 1358 429 1385 392 1385 c 0
 337 1385 301 590 301 80 c 1
 293 47 286 8 235 8 c 0
 182 8 177 63 177 80 c 0
 182 1208 260 1509 384 1509 c 0
 588 1509 749 1133 822 851 c 1
 905 1199 1121 1509 1307 1509 c 0
EndSplineSet
EndChar
StartChar: N
Encoding: 78 78 175
Width: 1551
VWidth: 3622
Flags: W
HStem: 1482 20G<258.5 297>
VStem: 183 126<11.9524 185.308 185.308 725.395> 1236 124<587.9 1505.01>
Fore
246 9 m 0
 190 9 183 56 183 209 c 0
 183 359 195 1374 223 1452 c 0
 235 1485 250 1502 267 1502 c 0
 327 1502 423 1386 907 626 c 2
 1038 416 l 2
 1130 268 1211 159 1213 159 c 0
 1214 159 1236 417 1236 1447 c 1
 1246 1488 1274 1509 1301 1509 c 0
 1330 1509 1358 1485 1360 1434 c 2
 1360 971 l 2
 1360 847 1350 307 1332 142 c 0
 1325 69 1286 31 1215 28 c 1
 1127 39 1031 196 827 506 c 2
 560 911 l 1
 320 1288 l 1
 311 1067 309 803 309 569 c 2
 309 296 l 2
 309 209 309 133 308 76 c 1
 299 31 279 9 246 9 c 0
EndSplineSet
EndChar
StartChar: O
Encoding: 79 79 176
Width: 1630
VWidth: 3622
Flags: W
HStem: 21 124<557.772 1045.35> 1358 128<558.963 1012.96>
VStem: 99 131<462.078 991.204> 1383 125<474.78 961.505>
Fore
1508 730 m 0
 1508 305 1225 21 768 21 c 0
 458 21 99 220 99 695 c 0
 99 1180 368 1486 771 1486 c 0
 1241 1486 1508 1118 1508 730 c 0
771 1358 m 0
 523 1358 230 1202 230 695 c 0
 230 296 535 145 775 145 c 0
 1025 145 1369 241 1383 697 c 0
 1374 916 1312 1082 1197 1194 c 0
 1084 1306 942 1358 771 1358 c 0
EndSplineSet
EndChar
StartChar: P
Encoding: 80 80 177
Width: 1199
VWidth: 3622
Flags: W
HStem: 566 124<489.106 818.104> 1366 109<325.399 792.021> 1479 20G<190 211.5>
VStem: 150 108<1413.54 1497.49> 161 134<-5.56873 232.278 871.815 1171.12> 173 126<171.112 619 738 830.727> 1033 111<875.307 1173.38>
Fore
585 690 m 0xe2
 860 690 1033 831 1033 1029 c 0
 1033 1224 816 1366 564 1366 c 0
 467 1366 369 1343 269 1298 c 1
 283 1038 l 2
 291 858 296 798 301 738 c 1
 398 706 492 690 585 690 c 0xe2
1144 1026 m 0
 1144 681 848 566 608 566 c 0
 515 566 409 582 299 619 c 1xe6
 299 388 295 272 295 41 c 0
 290 4 244 -12 219 -12 c 256
 193 -12 161 0 161 48 c 0xea
 167 195 173 337 173 486 c 0xe6
 173 726 157 932 157 1242 c 1
 149 1235 141 1231 132 1231 c 0
 105 1231 82 1265 82 1289 c 0
 82 1326 153 1365 154 1366 c 1
 154 1393 150 1415 150 1435 c 0
 150 1483 180 1499 200 1499 c 0
 223 1499 253 1488 258 1413 c 1xf2
 352 1455 457 1475 561 1475 c 0
 772 1475 1144 1385 1144 1026 c 0
EndSplineSet
EndChar
StartChar: Q
Encoding: 81 81 178
Width: 1593
VWidth: 3622
Flags: W
HStem: 32 122<536.335 984.208> 1366 129<595.245 977.728>
VStem: 87 136<488.223 978.707> 1353 126<495.713 953.852>
Fore
1410 39 m 0
 1381 39 1328 84 1224 198 c 1
 1113 106 954 32 757 32 c 0
 494 32 131 137 87 738 c 0
 96 1269 491 1495 791 1495 c 0
 1109 1495 1479 1231 1479 738 c 0
 1479 540 1434 415 1316 271 c 1
 1452 138 l 2
 1465 125 1471 111 1471 98 c 0
 1471 66 1439 39 1410 39 c 0
223 741 m 0
 223 384 437 154 757 154 c 0
 984 154 1108 267 1136 292 c 1
 975 451 l 2
 965 462 961 473 961 485 c 0
 961 512 992 547 1027 547 c 0
 1054 547 1086 528 1123 490 c 1
 1155 445 1190 402 1229 361 c 1
 1315 468 1353 592 1353 717 c 0
 1353 1042 1098 1366 791 1366 c 0
 525 1366 223 1127 223 741 c 0
EndSplineSet
EndChar
StartChar: R
Encoding: 82 82 179
Width: 1292
VWidth: 3622
Flags: W
HStem: 599 121<441.284 818.526> 1355 118<418.89 819.821>
VStem: 161 125<34.1589 137.623 66.8066 496.586> 181 106<350.211 557 764 897.519> 181 90<619 1116> 1033 118<887.533 1177.97>
Fore
540 720 m 0xd4
 929 720 1033 901 1033 1022 c 0
 1033 1253 799 1355 600 1355 c 0
 471 1355 359 1322 265 1282 c 1
 269 1231 271 1175 271 1116 c 0xcc
 276 978 281 861 287 764 c 1
 363 730 456 720 540 720 c 0xd4
287 87 m 0xd4
 287 43 279 -7 219 -7 c 0
 193 -7 161 5 161 53 c 0xe4
 176 386 181 512 181 619 c 0xcc
 181 747 171 1112 154 1238 c 1
 145 1230 135 1226 126 1226 c 0
 100 1226 78 1254 78 1276 c 0
 78 1287 83 1299 94 1311 c 2
 147 1357 l 1
 148 1368 149 1376 149 1383 c 0
 149 1399 147 1399 147 1422 c 0
 147 1461 164 1482 198 1488 c 1
 227 1488 246 1477 255 1456 c 1
 262 1408 l 1
 393 1457 516 1473 612 1473 c 0
 894 1473 1151 1340 1151 1034 c 0
 1151 686 782 599 564 599 c 0
 506 599 462 606 419 610 c 1
 1097 138 l 1
 1108 125 1113 111 1113 96 c 0
 1113 55 1075 30 1057 30 c 0
 1040 30 1004 49 950 87 c 2
 292 557 l 1
 287 370 286 259 286 190 c 0xe4
 286 134 287 105 287 87 c 0xd4
EndSplineSet
EndChar
StartChar: S
Encoding: 83 83 180
Width: 1098
VWidth: 3622
Flags: W
HStem: 4 120<400.215 760.235> 1369 120<372.185 724.586>
VStem: 119 125<293.342 455 946.664 1239.49> 851 120<1081 1232.94> 866 120<226.502 506.188>
Fore
589 124 m 0xe8
 826 124 866 289 866 366 c 0xe8
 866 586 605 656 522 676 c 0
 173 756 113 957 113 1099 c 0
 113 1311 286 1489 564 1489 c 0
 795 1488 971 1325 971 1090 c 0
 971 1041 932 1020 906 1020 c 0
 879 1020 854 1043 851 1081 c 0xf0
 830 1351 635 1369 547 1369 c 0
 304 1369 240 1189 240 1087 c 0
 240 931 347 856 584 789 c 0
 824 728 986 602 986 371 c 0
 986 146 815 4 568 4 c 0
 297 4 119 195 119 449 c 0
 119 488 143 511 183 511 c 0
 216 511 235 486 244 455 c 1
 258 213 405 124 589 124 c 0xe8
EndSplineSet
EndChar
StartChar: T
Encoding: 84 84 181
Width: 1137
VWidth: 3622
Flags: MW
HStem: 1355 127<658 970.716>
VStem: 448 150<22.6532 431.9> 501 157<1167.1 1351>
Fore
1057 1396 m 0
 1057 1350 1021 1338 973 1338 c 0
 924 1338 894 1350 658 1355 c 1
 617 1100 598 224 598 76 c 0
 598 29 548 18 524 18 c 0
 493 18 448 30 448 76 c 0
 448 373 479 826 483 934 c 2
 492 1162 l 2
 497 1275 496 1314 501 1351 c 1
 349 1351 243 1337 176 1337 c 0
 118 1337 91 1348 91 1388 c 0
 91 1403 93 1418 100 1436 c 0
 114 1473 563 1482 578 1482 c 256
 1036 1482 1021 1463 1034 1452 c 0
 1046 1441 1057 1418 1057 1396 c 0
EndSplineSet
EndChar
StartChar: U
Encoding: 85 85 182
Width: 1365
VWidth: 3622
Flags: W
HStem: 6 136<470.52 849.623> 1469 20G<1101 1129.5>
VStem: 147 143<347.649 703.5 615.5 791.5 791.5 1031 1031 1238.11 1238.11 1469.62> 1047 152<36.4526 143.554 143.554 195 369.348 750 750 1479.17>
Fore
649 142 m 0
 888 142 1047 273 1047 663 c 2
 1047 1431 l 2
 1047 1478 1088 1489 1114 1489 c 0
 1145 1489 1181 1473 1185 1438 c 2
 1199 62 l 2
 1199 22 1157 -4 1123 -4 c 0
 1065 -4 1057 38 1057 94 c 0
 1057 134 1058 114 1058 195 c 1
 973 57 803 6 650 6 c 0
 248 6 147 343 147 536 c 2
 156 1047 l 2
 160 1235 161 1349 161 1424 c 0
 161 1466 202 1477 226 1477 c 0
 263 1477 302 1458 302 1420 c 2
 290 642 l 2
 289 624 288 607 288 589 c 0
 288 357 385 142 649 142 c 0
EndSplineSet
EndChar
StartChar: V
Encoding: 86 86 183
Width: 1379
VWidth: 3622
Flags: W
HStem: 1480 20G<165.5 212>
Fore
123 1436 m 0
 123 1469 149 1500 182 1500 c 0
 242 1500 253 1472 274 1426 c 2
 644 177 l 1
 663 156 675 152 688 152 c 0
 695 152 703 158 711 170 c 1
 1075 1420 l 2
 1099 1482 1127 1484 1145 1484 c 0
 1159 1484 1217 1479 1217 1423 c 0
 1217 1412 1215 1399 1212 1385 c 0
 1199 1331 901 244 831 87 c 0
 812 33 749 2 679 2 c 0
 618 2 557 23 538 81 c 1
 499 142 414 430 344 664 c 2
 131 1397 l 2
 125 1411 123 1424 123 1436 c 0
EndSplineSet
EndChar
StartChar: W
Encoding: 87 87 184
Width: 1862
VWidth: 3622
Flags: W
HStem: 11 21G<1286.5 1356.5> 1469 20G<207 234.5>
Fore
581 9 m 0
 543 9 515 29 499 69 c 1
 458 252 416 424 374 586 c 2
 264 1010 l 1
 264 1008 l 1
 205 1213 l 2
 157 1384 142 1406 142 1426 c 0
 142 1466 190 1489 224 1489 c 0
 245 1489 253 1485 281 1427 c 2
 354 1208 l 2
 422 994 517 629 562 424 c 2
 594 274 l 1
 605 228 l 1
 636 300 726 497 877 819 c 1
 893 840 911 851 930 851 c 0
 985 851 1033 752 1084 652 c 2
 1288 230 l 1
 1351 534 l 1
 1476 1080 l 2
 1503 1194 1532 1313 1565 1436 c 0
 1572 1455 1602 1471 1633 1471 c 0
 1659 1471 1697 1458 1697 1406 c 0
 1697 1361 1641 1207 1492 547 c 2
 1442 314 l 2
 1390 63 1409 14 1304 11 c 0
 1269 14 1242 26 1222 80 c 2
 937 646 l 1
 693 115 652 9 581 9 c 0
EndSplineSet
EndChar
StartChar: X
Encoding: 88 88 185
Width: 1386
VWidth: 3622
Flags: W
HStem: 1474 20G<1158 1196.5>
Fore
181 22 m 0
 154 22 114 36 114 94 c 0
 114 104 116 112 120 117 c 2
 578 766 l 1
 133 1420 l 1
 129 1429 128 1437 128 1445 c 0
 128 1481 165 1504 201 1504 c 0
 220 1504 239 1498 253 1484 c 1
 674 883 l 1
 1120 1477 l 2
 1126 1485 1147 1494 1169 1494 c 0
 1224 1494 1238 1444 1238 1423 c 0
 1238 1415 1236 1409 1233 1404 c 2
 761 766 l 1
 1251 96 l 2
 1254 91 1256 84 1256 75 c 0
 1256 38 1223 13 1181 13 c 0
 1156 13 1134 23 1120 37 c 1
 670 653 l 1
 241 48 l 2
 225 30 202 22 181 22 c 0
EndSplineSet
EndChar
StartChar: Y
Encoding: 89 89 186
Width: 1361
VWidth: 3622
Flags: W
HStem: 11 21G<663 690> 1482 20G<194.5 243 1127.5 1159>
VStem: 598 154<17.2436 376.5 376.5 677>
Fore
131 1457 m 0
 131 1493 185 1502 204 1502 c 0
 282 1502 278 1382 462 1051 c 0
 496 990 594 848 631 818 c 0
 646 805 660 799 672 799 c 0
 741 799 892 1074 1008 1322 c 2
 1070 1454 l 2
 1086 1485 1114 1499 1141 1499 c 0
 1177 1499 1211 1474 1211 1432 c 0
 1211 1426 1210 1419 1208 1412 c 1
 1098 1181 l 2
 972 926 838 724 741 677 c 1
 752 76 l 2
 752 24 703 11 677 11 c 0
 649 11 605 23 605 69 c 2
 598 681 l 1
 534 712 461 809 350 989 c 2
 284 1108 l 2
 211 1243 131 1432 131 1457 c 0
EndSplineSet
EndChar
